AtkinsonHyperlegibleNext-Medium.sfdir
StartChar: exclam
Encoding: 33 33 263
Width: 294
GlyphClass: 1
Flags: W
LayerCount: 2
Fore
SplineSet
88 496 m 1,0,-1
 88 668 l 1,1,-1
 206 668 l 1,2,-1
 206 496 l 1,3,-1
 182 213 l 1,4,-1
 111 213 l 1,5,-1
 88 496 l 1,0,-1
92.5 10.5 m 128,-1,7
 70 33 70 33 70 65 c 256,8,9
 70 97 70 97 92.5 119.5 c 128,-1,10
 115 142 115 142 147 142 c 256,11,12
 179 142 179 142 201.5 119.5 c 128,-1,13
 224 97 224 97 224 65 c 256,14,15
 224 33 224 33 201.5 10.5 c 128,-1,16
 179 -12 179 -12 147 -12 c 256,17,6
 115 -12 115 -12 92.5 10.5 c 128,-1,7
EndSplineSet
EndChar
StartChar: quotedbl
Encoding: 34 34 293
Width: 342
GlyphClass: 1
Flags: W
LayerCount: 2
Fore
SplineSet
199 668 m 1,0,-1
 302 668 l 1,1,-1
 288 442 l 1,2,-1
 213 442 l 1,3,-1
 199 668 l 1,0,-1
40 668 m 1,4,-1
 143 668 l 1,5,-1
 129 442 l 1,6,-1
 54 442 l 1,7,-1
 40 668 l 1,4,-1
EndSplineSet
EndChar
StartChar: numbersign
Encoding: 35 35 270
Width: 704
GlyphClass: 1
Flags: W
LayerCount: 2
Fore
SplineSet
159 155 m 1,0,-1
 33 155 l 1,1,-1
 47 258 l 1,2,-1
 173 258 l 1,3,-1
 195 410 l 1,4,-1
 69 410 l 1,5,-1
 84 513 l 1,6,-1
 209 513 l 1,7,-1
 231 668 l 1,8,-1
 335 668 l 1,9,-1
 313 513 l 1,10,-1
 441 513 l 1,11,-1
 463 668 l 1,12,-1
 567 668 l 1,13,-1
 545 513 l 1,14,-1
 671 513 l 1,15,-1
 656 410 l 1,16,-1
 530 410 l 1,17,-1
 509 258 l 1,18,-1
 634 258 l 1,19,-1
 620 155 l 1,20,-1
 494 155 l 1,21,-1
 472 0 l 1,22,-1
 368 0 l 1,23,-1
 390 155 l 1,24,-1
 262 155 l 1,25,-1
 240 0 l 1,26,-1
 136 0 l 1,27,-1
 159 155 l 1,0,-1
405 258 m 1,28,-1
 426 410 l 1,29,-1
 298 410 l 1,30,-1
 277 258 l 1,31,-1
 405 258 l 1,28,-1
EndSplineSet
EndChar
StartChar: dollar
Encoding: 36 36 313
Width: 600
GlyphClass: 1
Flags: W
LayerCount: 2
Fore
SplineSet
120 37.5 m 128,-1,1
 57 79 57 79 32 150 c 1,2,-1
 136 189 l 1,3,4
 148 147 148 147 184 120 c 128,-1,5
 220 93 220 93 268 84 c 1,6,-1
 268 300 l 1,7,-1
 235 307 l 2,8,9
 48 347 48 347 48 486 c 0,10,11
 48 540 48 540 77.5 581.5 c 128,-1,12
 107 623 107 623 157 647.5 c 128,-1,13
 207 672 207 672 268 678 c 1,14,-1
 268 758 l 1,15,-1
 327 758 l 1,16,-1
 327 680 l 1,17,18
 401 675 401 675 460 642 c 128,-1,19
 519 609 519 609 547 548 c 1,20,-1
 443 509 l 1,21,22
 428 540 428 540 397.5 559.5 c 128,-1,23
 367 579 367 579 327 584 c 1,24,-1
 327 392 l 1,25,-1
 352 386 l 2,26,27
 461 362 461 362 514.5 320 c 128,-1,28
 568 278 568 278 568 197 c 0,29,30
 568 137 568 137 535.5 91.5 c 128,-1,31
 503 46 503 46 448.5 20 c 128,-1,32
 394 -6 394 -6 327 -11 c 1,33,-1
 327 -90 l 1,34,-1
 268 -90 l 1,35,-1
 268 -11 l 1,36,0
 183 -4 183 -4 120 37.5 c 128,-1,1
418.5 113.5 m 128,-1,38
 454 140 454 140 454 188 c 0,39,40
 454 226 454 226 427.5 247.5 c 128,-1,41
 401 269 401 269 334 285 c 2,42,-1
 327 287 l 1,43,-1
 327 83 l 1,44,37
 383 87 383 87 418.5 113.5 c 128,-1,38
191.5 555 m 128,-1,46
 162 532 162 532 162 493 c 0,47,48
 162 430 162 430 256 408 c 2,49,-1
 268 405 l 1,50,-1
 268 584 l 1,51,45
 221 578 221 578 191.5 555 c 128,-1,46
EndSplineSet
EndChar
StartChar: percent
Encoding: 37 37 341
Width: 942
GlyphClass: 1
Flags: W
LayerCount: 2
Fore
SplineSet
652 668 m 1,0,-1
 755 668 l 1,1,-1
 287 0 l 1,2,-1
 185 0 l 1,3,-1
 652 668 l 1,0,-1
127 329.5 m 128,-1,5
 84 355 84 355 58.5 398 c 128,-1,6
 33 441 33 441 33 492 c 256,7,8
 33 543 33 543 58.5 586 c 128,-1,9
 84 629 84 629 127 654.5 c 128,-1,10
 170 680 170 680 221 680 c 256,11,12
 272 680 272 680 315 655 c 128,-1,13
 358 630 358 630 383 586.5 c 128,-1,14
 408 543 408 543 408 492 c 256,15,16
 408 441 408 441 383 397.5 c 128,-1,17
 358 354 358 354 315 329 c 128,-1,18
 272 304 272 304 221 304 c 256,19,4
 170 304 170 304 127 329.5 c 128,-1,5
289 423.5 m 128,-1,21
 317 452 317 452 317 492 c 256,22,23
 317 532 317 532 289 560.5 c 128,-1,24
 261 589 261 589 221 589 c 256,25,26
 181 589 181 589 152.5 561 c 128,-1,27
 124 533 124 533 124 492 c 0,28,29
 124 452 124 452 152.5 423.5 c 128,-1,30
 181 395 181 395 221 395 c 256,31,20
 261 395 261 395 289 423.5 c 128,-1,21
627 13 m 128,-1,33
 584 38 584 38 559 81.5 c 128,-1,34
 534 125 534 125 534 176 c 256,35,36
 534 227 534 227 559 270.5 c 128,-1,37
 584 314 584 314 627 339 c 128,-1,38
 670 364 670 364 721 364 c 256,39,40
 772 364 772 364 815 338.5 c 128,-1,41
 858 313 858 313 883.5 270 c 128,-1,42
 909 227 909 227 909 176 c 256,43,44
 909 125 909 125 883.5 82 c 128,-1,45
 858 39 858 39 815 13.5 c 128,-1,46
 772 -12 772 -12 721 -12 c 256,47,32
 670 -12 670 -12 627 13 c 128,-1,33
790 107.5 m 128,-1,49
 818 136 818 136 818 176 c 0,50,51
 818 217 818 217 790 245 c 128,-1,52
 762 273 762 273 721 273 c 0,53,54
 681 273 681 273 653 244.5 c 128,-1,55
 625 216 625 216 625 176 c 256,56,57
 625 136 625 136 653 107.5 c 128,-1,58
 681 79 681 79 721 79 c 0,59,48
 762 79 762 79 790 107.5 c 128,-1,49
EndSplineSet
EndChar
StartChar: ampersand
Encoding: 38 38 298
Width: 728
GlyphClass: 1
Flags: W
LayerCount: 2
Fore
SplineSet
164.5 14 m 128,-1,1
 111 40 111 40 81.5 84.5 c 128,-1,2
 52 129 52 129 52 183 c 0,3,4
 52 251 52 251 96 303.5 c 128,-1,5
 140 356 140 356 220 386 c 1,6,7
 185 425 185 425 168 461 c 128,-1,8
 151 497 151 497 151 534 c 0,9,10
 151 578 151 578 174 613.5 c 128,-1,11
 197 649 197 649 240 670 c 128,-1,12
 283 691 283 691 339 691 c 0,13,14
 388 691 388 691 430 671.5 c 128,-1,15
 472 652 472 652 497.5 616.5 c 128,-1,16
 523 581 523 581 523 534 c 0,17,18
 523 422 523 422 388 359 c 1,19,-1
 509 228 l 1,20,21
 539 286 539 286 549 356 c 1,22,-1
 651 356 l 1,23,24
 632 237 632 237 577 153 c 1,25,-1
 717 0 l 1,26,-1
 577 0 l 1,27,-1
 508 74 l 1,28,29
 413 -12 413 -12 287 -12 c 0,30,0
 218 -12 218 -12 164.5 14 c 128,-1,1
443 144 m 1,32,-1
 282 318 l 1,33,34
 227 298 227 298 197.5 265.5 c 128,-1,35
 168 233 168 233 168 190 c 0,36,37
 168 141 168 141 204.5 111 c 128,-1,38
 241 81 241 81 294 81 c 0,39,31
 379 81 379 81 443 144 c 1,32,-1
399.5 469.5 m 128,-1,41
 424 497 424 497 424 530 c 0,42,43
 424 561 424 561 399.5 582 c 128,-1,44
 375 603 375 603 339 603 c 0,45,46
 305 603 305 603 282 585.5 c 128,-1,47
 259 568 259 568 259 537 c 0,48,49
 259 511 259 511 276 485 c 128,-1,50
 293 459 293 459 329 423 c 1,51,40
 375 442 375 442 399.5 469.5 c 128,-1,41
EndSplineSet
EndChar
StartChar: quotesingle
Encoding: 39 39 294
Width: 183
GlyphClass: 1
Flags: W
LayerCount: 2
Fore
SplineSet
40 668 m 1,0,-1
 143 668 l 1,1,-1
 129 442 l 1,2,-1
 54 442 l 1,3,-1
 40 668 l 1,0,-1
EndSplineSet
EndChar
StartChar: parenleft
Encoding: 40 40 277
Width: 316
GlyphClass: 1
Flags: W
LayerCount: 2
Fore
SplineSet
83.5 48 m 128,-1,1
 50 161 50 161 50 273 c 0,2,3
 50 386 50 386 83.5 498.5 c 128,-1,4
 117 611 117 611 177 708 c 1,5,-1
 284 708 l 1,6,7
 221 612 221 612 186.5 499.5 c 128,-1,8
 152 387 152 387 152 273 c 0,9,10
 152 160 152 160 186.5 47 c 128,-1,11
 221 -66 221 -66 284 -162 c 1,12,-1
 177 -162 l 1,13,0
 117 -65 117 -65 83.5 48 c 128,-1,1
EndSplineSet
EndChar
StartChar: parenright
Encoding: 41 41 278
Width: 316
GlyphClass: 1
Flags: W
LayerCount: 2
Fore
SplineSet
128.5 47.5 m 128,-1,1
 163 160 163 160 163 274 c 256,2,3
 163 388 163 388 128.5 500.5 c 128,-1,4
 94 613 94 613 31 709 c 1,5,-1
 139 709 l 1,6,7
 199 612 199 612 232 499.5 c 128,-1,8
 265 387 265 387 265 274 c 0,9,10
 265 162 265 162 231.5 49 c 128,-1,11
 198 -64 198 -64 139 -161 c 1,12,-1
 31 -161 l 1,13,0
 94 -65 94 -65 128.5 47.5 c 128,-1,1
EndSplineSet
EndChar
StartChar: asterisk
Encoding: 42 42 269
Width: 485
GlyphClass: 1
Flags: W
LayerCount: 2
Fore
SplineSet
109 371 m 1,0,-1
 184 474 l 1,1,-1
 63 512 l 1,2,-1
 85 580 l 1,3,-1
 206 541 l 1,4,-1
 206 668 l 1,5,-1
 277 668 l 1,6,-1
 277 541 l 1,7,-1
 397 580 l 1,8,-1
 420 512 l 1,9,-1
 298 474 l 1,10,-1
 373 371 l 1,11,-1
 317 329 l 1,12,-1
 241 431 l 1,13,-1
 167 329 l 1,14,-1
 109 371 l 1,0,-1
EndSplineSet
EndChar
StartChar: plus
Encoding: 43 43 320
Width: 601
GlyphClass: 1
Flags: W
LayerCount: 2
Fore
SplineSet
251 199 m 1,0,-1
 49 199 l 1,1,-1
 49 297 l 1,2,-1
 251 297 l 1,3,-1
 251 496 l 1,4,-1
 349 496 l 1,5,-1
 349 297 l 1,6,-1
 551 297 l 1,7,-1
 551 199 l 1,8,-1
 349 199 l 1,9,-1
 349 0 l 1,10,-1
 251 0 l 1,11,-1
 251 199 l 1,0,-1
EndSplineSet
EndChar
StartChar: comma
Encoding: 44 44 259
Width: 238
GlyphClass: 1
Flags: W
LayerCount: 2
Fore
SplineSet
59.5 16 m 128,-1,1
 42 37 42 37 42 65 c 0,2,3
 42 97 42 97 64.5 119.5 c 128,-1,4
 87 142 87 142 119 142 c 256,5,6
 151 142 151 142 173.5 119.5 c 128,-1,7
 196 97 196 97 196 65 c 0,8,9
 196 49 196 49 190 34 c 2,10,-1
 123 -138 l 1,11,-1
 55 -138 l 1,12,-1
 104 -10 l 1,13,0
 77 -5 77 -5 59.5 16 c 128,-1,1
EndSplineSet
EndChar
StartChar: hyphen
Encoding: 45 45 273
Width: 367
GlyphClass: 1
Flags: W
LayerCount: 2
Fore
SplineSet
31 298 m 1,0,-1
 336 298 l 1,1,-1
 336 199 l 1,2,-1
 31 199 l 1,3,-1
 31 298 l 1,0,-1
EndSplineSet
EndChar
StartChar: period
Encoding: 46 46 258
Width: 239
GlyphClass: 1
Flags: W
LayerCount: 2
Fore
SplineSet
65 11 m 128,-1,1
 42 34 42 34 42 65 c 0,2,3
 42 97 42 97 64.5 120 c 128,-1,4
 87 143 87 143 119 143 c 256,5,6
 151 143 151 143 174 120 c 128,-1,7
 197 97 197 97 197 65 c 256,8,9
 197 33 197 33 174 10.5 c 128,-1,10
 151 -12 151 -12 119 -12 c 0,11,0
 88 -12 88 -12 65 11 c 128,-1,1
EndSplineSet
EndChar
StartChar: zero
Encoding: 48 48 229
Width: 653
GlyphClass: 1
Flags: W
LayerCount: 2
Fore
SplineSet
124 78.5 m 128,-1,1
 54 169 54 169 54 335 c 256,2,3
 54 501 54 501 124 591 c 128,-1,4
 194 681 194 681 327 681 c 0,5,6
 459 681 459 681 529 591 c 128,-1,7
 599 501 599 501 599 335 c 256,8,9
 599 169 599 169 529 78.5 c 128,-1,10
 459 -12 459 -12 327 -12 c 0,11,0
 194 -12 194 -12 124 78.5 c 128,-1,1
432 124 m 1,13,-1
 188 474 l 1,14,15
 170 417 170 417 170 335 c 0,16,17
 170 77 170 77 327 77 c 0,18,12
 393 77 393 77 432 124 c 1,13,-1
484 335 m 0,20,21
 484 455 484 455 445.5 524 c 128,-1,22
 407 593 407 593 327 593 c 0,23,24
 264 593 264 593 226 550 c 1,25,-1
 468 204 l 1,26,19
 484 262 484 262 484 335 c 0,20,21
EndSplineSet
Substitution2: "'tnum' Tabular Numbers in Latin lookup 10 subtable" zero.tf
AlternateSubs2: "'aalt' Access All Alternates in Latin lookup 0 subtable" zero.tf
EndChar
StartChar: two
Encoding: 50 50 231
Width: 562
GlyphClass: 5
Flags: W
LayerCount: 2
Fore
SplineSet
305.5 322.5 m 128,-1,1
 396 414 396 414 396 492 c 0,2,3
 396 538 396 538 365.5 566 c 128,-1,4
 335 594 335 594 284 594 c 0,5,6
 238 594 238 594 204 569.5 c 128,-1,7
 170 545 170 545 159 493 c 1,8,-1
 54 527 l 1,9,10
 76 599 76 599 138 639.5 c 128,-1,11
 200 680 200 680 288 680 c 0,12,13
 387 680 387 680 449 630 c 128,-1,14
 511 580 511 580 511 492 c 0,15,16
 511 389 511 389 424.5 297 c 128,-1,17
 338 205 338 205 173 97 c 1,18,-1
 522 97 l 1,19,-1
 522 0 l 1,20,-1
 29 0 l 1,21,-1
 29 96 l 1,22,0
 215 231 215 231 305.5 322.5 c 128,-1,1
EndSplineSet
Substitution2: "'tnum' Tabular Numbers in Latin lookup 10 subtable" two.tf
Substitution2: "'sups' Superscript in Latin lookup 6 subtable" uni00B2
AlternateSubs2: "'aalt' Access All Alternates in Latin lookup 0 subtable" uni00B2 two.tf
EndChar
StartChar: three
Encoding: 51 51 232
Width: 587
GlyphClass: 5
Flags: W
LayerCount: 2
Fore
SplineSet
125.5 30.5 m 128,-1,1
 63 73 63 73 40 147 c 1,2,-1
 144 181 l 1,3,4
 155 130 155 130 191.5 102 c 128,-1,5
 228 74 228 74 283 74 c 0,6,7
 343 74 343 74 380 104.5 c 128,-1,8
 417 135 417 135 417 189 c 0,9,10
 417 253 417 253 367.5 279 c 128,-1,11
 318 305 318 305 242 305 c 2,12,-1
 217 305 l 1,13,-1
 217 393 l 1,14,-1
 242 393 l 2,15,16
 312 393 312 393 357 419.5 c 128,-1,17
 402 446 402 446 402 499 c 0,18,19
 402 544 402 544 367.5 569 c 128,-1,20
 333 594 333 594 282 594 c 0,21,22
 229 594 229 594 195 567.5 c 128,-1,23
 161 541 161 541 151 493 c 1,24,-1
 49 527 l 1,25,26
 71 600 71 600 134 640 c 128,-1,27
 197 680 197 680 286 680 c 0,28,29
 382 680 382 680 448 635.5 c 128,-1,30
 514 591 514 591 514 505 c 0,31,32
 514 452 514 452 484 412.5 c 128,-1,33
 454 373 454 373 399 354 c 1,34,35
 466 333 466 333 499 289.5 c 128,-1,36
 532 246 532 246 532 191 c 0,37,38
 532 125 532 125 497.5 79.5 c 128,-1,39
 463 34 463 34 405.5 11 c 128,-1,40
 348 -12 348 -12 281 -12 c 0,41,0
 188 -12 188 -12 125.5 30.5 c 128,-1,1
EndSplineSet
Substitution2: "'tnum' Tabular Numbers in Latin lookup 10 subtable" three.tf
Substitution2: "'sups' Superscript in Latin lookup 6 subtable" uni00B3
AlternateSubs2: "'aalt' Access All Alternates in Latin lookup 0 subtable" uni00B3 three.tf
EndChar
StartChar: four
Encoding: 52 52 233
Width: 619
GlyphClass: 5
Flags: W
LayerCount: 2
Fore
SplineSet
362 156 m 1,0,-1
 32 156 l 1,1,-1
 32 247 l 1,2,-1
 361 668 l 1,3,-1
 471 668 l 1,4,-1
 471 256 l 1,5,-1
 582 256 l 1,6,-1
 582 156 l 1,7,-1
 471 156 l 1,8,-1
 471 0 l 1,9,-1
 362 0 l 1,10,-1
 362 156 l 1,0,-1
362 256 m 1,11,-1
 362 522 l 1,12,-1
 151 256 l 1,13,-1
 362 256 l 1,11,-1
EndSplineSet
Substitution2: "'tnum' Tabular Numbers in Latin lookup 10 subtable" four.tf
AlternateSubs2: "'aalt' Access All Alternates in Latin lookup 0 subtable" four.tf
EndChar
StartChar: five
Encoding: 53 53 234
Width: 597
GlyphClass: 1
Flags: W
LayerCount: 2
Fore
SplineSet
137.5 30.5 m 128,-1,1
 77 73 77 73 52 147 c 1,2,-1
 153 180 l 1,3,4
 179 74 179 74 288 74 c 0,5,6
 348 74 348 74 387.5 113 c 128,-1,7
 427 152 427 152 427 220 c 0,8,9
 427 290 427 290 386 327 c 128,-1,10
 345 364 345 364 289 364 c 0,11,12
 245 364 245 364 213.5 344 c 128,-1,13
 182 324 182 324 167 294 c 1,14,-1
 65 327 l 1,15,-1
 106 668 l 1,16,-1
 513 668 l 1,17,-1
 513 572 l 1,18,-1
 196 572 l 1,19,-1
 176 405 l 1,20,21
 200 429 200 429 237 440.5 c 128,-1,22
 274 452 274 452 316 452 c 0,23,24
 376 452 376 452 427.5 424.5 c 128,-1,25
 479 397 479 397 510 344.5 c 128,-1,26
 541 292 541 292 541 220 c 0,27,28
 541 146 541 146 507 93.5 c 128,-1,29
 473 41 473 41 416 14.5 c 128,-1,30
 359 -12 359 -12 291 -12 c 0,31,0
 198 -12 198 -12 137.5 30.5 c 128,-1,1
EndSplineSet
Substitution2: "'tnum' Tabular Numbers in Latin lookup 10 subtable" five.tf
AlternateSubs2: "'aalt' Access All Alternates in Latin lookup 0 subtable" five.tf
EndChar
StartChar: six
Encoding: 54 54 235
Width: 611
GlyphClass: 1
Flags: W
LayerCount: 2
Fore
SplineSet
123.5 73.5 m 128,-1,1
 60 159 60 159 60 310 c 0,2,3
 60 471 60 471 125.5 575.5 c 128,-1,4
 191 680 191 680 331 680 c 0,5,6
 405 680 405 680 453.5 651 c 128,-1,7
 502 622 502 622 528 572 c 1,8,-1
 425 535 l 1,9,10
 412 562 412 562 384.5 577 c 128,-1,11
 357 592 357 592 322 592 c 0,12,13
 254 592 254 592 214.5 532.5 c 128,-1,14
 175 473 175 473 173 369 c 1,15,16
 198 405 198 405 240 426.5 c 128,-1,17
 282 448 282 448 338 448 c 0,18,19
 400 448 400 448 450 419 c 128,-1,20
 500 390 500 390 528.5 338.5 c 128,-1,21
 557 287 557 287 557 222 c 256,22,23
 557 157 557 157 526.5 103.5 c 128,-1,24
 496 50 496 50 440 19 c 128,-1,25
 384 -12 384 -12 313 -12 c 0,26,0
 187 -12 187 -12 123.5 73.5 c 128,-1,1
407.5 115.5 m 128,-1,28
 443 154 443 154 443 217 c 256,29,30
 443 280 443 280 407.5 318.5 c 128,-1,31
 372 357 372 357 312 357 c 0,32,33
 253 357 253 357 217 318.5 c 128,-1,34
 181 280 181 280 181 217 c 256,35,36
 181 154 181 154 217 115.5 c 128,-1,37
 253 77 253 77 313 77 c 0,38,27
 372 77 372 77 407.5 115.5 c 128,-1,28
EndSplineSet
Substitution2: "'tnum' Tabular Numbers in Latin lookup 10 subtable" six.tf
AlternateSubs2: "'aalt' Access All Alternates in Latin lookup 0 subtable" six.tf
EndChar
StartChar: eight
Encoding: 56 56 237
Width: 619
GlyphClass: 1
Flags: W
LayerCount: 2
Fore
SplineSet
177.5 12.5 m 128,-1,1
 119 37 119 37 85.5 84 c 128,-1,2
 52 131 52 131 52 195 c 0,3,4
 52 314 52 314 172 370 c 1,5,6
 149 395 149 395 136 427.5 c 128,-1,7
 123 460 123 460 123 495 c 0,8,9
 123 545 123 545 147.5 588 c 128,-1,10
 172 631 172 631 215 656 c 128,-1,11
 258 681 258 681 309 681 c 0,12,13
 361 681 361 681 403.5 656 c 128,-1,14
 446 631 446 631 470.5 588 c 128,-1,15
 495 545 495 545 495 495 c 0,16,17
 495 460 495 460 482.5 427.5 c 128,-1,18
 470 395 470 395 447 370 c 1,19,20
 567 314 567 314 567 195 c 0,21,22
 567 131 567 131 533.5 84 c 128,-1,23
 500 37 500 37 441.5 12.5 c 128,-1,24
 383 -12 383 -12 309 -12 c 0,25,0
 236 -12 236 -12 177.5 12.5 c 128,-1,1
413 113 m 128,-1,27
 452 144 452 144 452 196 c 256,28,29
 452 248 452 248 413.5 278.5 c 128,-1,30
 375 309 375 309 309 309 c 0,31,32
 245 309 245 309 206.5 278.5 c 128,-1,33
 168 248 168 248 168 196 c 256,34,35
 168 144 168 144 206.5 113 c 128,-1,36
 245 82 245 82 309 82 c 0,37,26
 374 82 374 82 413 113 c 128,-1,27
374 429.5 m 128,-1,39
 401 456 401 456 401 494 c 256,40,41
 401 532 401 532 374 559 c 128,-1,42
 347 586 347 586 309 586 c 256,43,44
 271 586 271 586 244.5 559 c 128,-1,45
 218 532 218 532 218 494 c 0,46,47
 218 457 218 457 245 430 c 128,-1,48
 272 403 272 403 309 403 c 0,49,38
 347 403 347 403 374 429.5 c 128,-1,39
EndSplineSet
Substitution2: "'tnum' Tabular Numbers in Latin lookup 10 subtable" eight.tf
AlternateSubs2: "'aalt' Access All Alternates in Latin lookup 0 subtable" eight.tf
EndChar
StartChar: nine
Encoding: 57 57 238
Width: 584
GlyphClass: 1
Flags: W
LayerCount: 2
Fore
SplineSet
287 200 m 0,1,2
 222 200 222 200 167.5 232 c 128,-1,3
 113 264 113 264 81 319 c 128,-1,4
 49 374 49 374 49 439 c 0,5,6
 49 503 49 503 80.5 558 c 128,-1,7
 112 613 112 613 167.5 645.5 c 128,-1,8
 223 678 223 678 289 678 c 0,9,10
 356 678 356 678 411 646 c 128,-1,11
 466 614 466 614 498 559.5 c 128,-1,12
 530 505 530 505 530 442 c 0,13,14
 530 393 530 393 511.5 345 c 128,-1,15
 493 297 493 297 457 236 c 2,16,-1
 321 0 l 1,17,-1
 198 0 l 1,18,-1
 324 203 l 1,19,0
 306 200 306 200 287 200 c 0,1,2
358.5 320.5 m 128,-1,21
 390 339 390 339 408.5 370 c 128,-1,22
 427 401 427 401 427 438 c 0,23,24
 427 473 427 473 409 504.5 c 128,-1,25
 391 536 391 536 359.5 555.5 c 128,-1,26
 328 575 328 575 289 575 c 0,27,28
 251 575 251 575 220 556.5 c 128,-1,29
 189 538 189 538 171 506.5 c 128,-1,30
 153 475 153 475 153 438 c 0,31,32
 153 400 153 400 171.5 369 c 128,-1,33
 190 338 190 338 221.5 320 c 128,-1,34
 253 302 253 302 289 302 c 0,35,20
 327 302 327 302 358.5 320.5 c 128,-1,21
EndSplineSet
Substitution2: "'tnum' Tabular Numbers in Latin lookup 10 subtable" nine.tf
AlternateSubs2: "'aalt' Access All Alternates in Latin lookup 0 subtable" nine.tf
EndChar
StartChar: less
Encoding: 60 60 327
Width: 561
GlyphClass: 1
Flags: W
LayerCount: 2
Fore
SplineSet
40 208 m 1,0,-1
 40 289 l 1,1,-1
 521 501 l 1,2,-1
 521 392 l 1,3,-1
 169 249 l 1,4,-1
 521 105 l 1,5,-1
 521 -4 l 1,6,-1
 40 208 l 1,0,-1
EndSplineSet
EndChar
StartChar: equal
Encoding: 61 61 324
Width: 621
GlyphClass: 1
Flags: W
LayerCount: 2
Fore
SplineSet
59 395 m 1,0,-1
 561 395 l 1,1,-1
 561 298 l 1,2,-1
 59 298 l 1,3,-1
 59 395 l 1,0,-1
59 209 m 1,4,-1
 561 209 l 1,5,-1
 561 112 l 1,6,-1
 59 112 l 1,7,-1
 59 209 l 1,4,-1
EndSplineSet
EndChar
StartChar: greater
Encoding: 62 62 326
Width: 561
GlyphClass: 1
Flags: W
LayerCount: 2
Fore
SplineSet
40 105 m 1,0,-1
 392 249 l 1,1,-1
 40 392 l 1,2,-1
 40 501 l 1,3,-1
 521 289 l 1,4,-1
 521 208 l 1,5,-1
 40 -4 l 1,6,-1
 40 105 l 1,0,-1
EndSplineSet
EndChar
StartChar: question
Encoding: 63 63 265
Width: 511
GlyphClass: 1
Flags: W
LayerCount: 2
Fore
SplineSet
193.5 326.5 m 128,-1,1
 218 362 218 362 287 401 c 0,2,3
 335 428 335 428 356 451.5 c 128,-1,4
 377 475 377 475 377 505 c 0,5,6
 377 544 377 544 344.5 567.5 c 128,-1,7
 312 591 312 591 260 591 c 0,8,9
 204 591 204 591 171 564 c 128,-1,10
 138 537 138 537 128 495 c 1,11,-1
 26 529 l 1,12,13
 45 599 45 599 109.5 639.5 c 128,-1,14
 174 680 174 680 265 680 c 0,15,16
 324 680 324 680 376 661.5 c 128,-1,17
 428 643 428 643 459.5 605 c 128,-1,18
 491 567 491 567 491 513 c 0,19,20
 491 454 491 454 458.5 411.5 c 128,-1,21
 426 369 426 369 365 334 c 0,22,23
 316 306 316 306 298.5 285.5 c 128,-1,24
 281 265 281 265 281 233 c 2,25,-1
 281 206 l 1,26,-1
 169 206 l 1,27,-1
 169 235 l 2,28,0
 169 291 169 291 193.5 326.5 c 128,-1,1
170.5 10.5 m 128,-1,30
 148 33 148 33 148 65 c 256,31,32
 148 97 148 97 170.5 119.5 c 128,-1,33
 193 142 193 142 225 142 c 256,34,35
 257 142 257 142 279.5 119.5 c 128,-1,36
 302 97 302 97 302 65 c 256,37,38
 302 33 302 33 279.5 10.5 c 128,-1,39
 257 -12 257 -12 225 -12 c 256,40,29
 193 -12 193 -12 170.5 10.5 c 128,-1,30
EndSplineSet
EndChar
StartChar: at
Encoding: 64 64 297
Width: 780
GlyphClass: 1
Flags: W
LayerCount: 2
Fore
SplineSet
219.5 -53.5 m 128,-1,1
 137 -9 137 -9 88 71.5 c 128,-1,2
 39 152 39 152 39 254 c 0,3,4
 39 353 39 353 86.5 433.5 c 128,-1,5
 134 514 134 514 216.5 560 c 128,-1,6
 299 606 299 606 397 606 c 0,7,8
 483 606 483 606 562.5 567.5 c 128,-1,9
 642 529 642 529 691.5 456.5 c 128,-1,10
 741 384 741 384 741 286 c 0,11,12
 741 214 741 214 718 166.5 c 128,-1,13
 695 119 695 119 658.5 97 c 128,-1,14
 622 75 622 75 582 75 c 0,15,16
 548 75 548 75 518 92 c 128,-1,17
 488 109 488 109 476 135 c 1,18,19
 436 75 436 75 356 75 c 0,20,21
 319 75 319 75 285 94 c 128,-1,22
 251 113 251 113 229.5 150 c 128,-1,23
 208 187 208 187 208 238 c 0,24,25
 208 343 208 343 267 391 c 128,-1,26
 326 439 326 439 412 439 c 0,27,28
 470 439 470 439 532 419 c 1,29,-1
 532 208 l 2,30,31
 532 177 532 177 548.5 161.5 c 128,-1,32
 565 146 565 146 590 146 c 0,33,34
 629 146 629 146 650.5 186 c 128,-1,35
 672 226 672 226 672 287 c 0,36,37
 672 359 672 359 635 417 c 128,-1,38
 598 475 598 475 534.5 507.5 c 128,-1,39
 471 540 471 540 396 540 c 0,40,41
 317 540 317 540 251.5 502.5 c 128,-1,42
 186 465 186 465 148 400 c 128,-1,43
 110 335 110 335 110 254 c 0,44,45
 110 171 110 171 149.5 105.5 c 128,-1,46
 189 40 189 40 255 4 c 128,-1,47
 321 -32 321 -32 398 -32 c 0,48,49
 471 -32 471 -32 532 3 c 1,50,-1
 532 -70 l 1,51,52
 470 -98 470 -98 398 -98 c 0,53,0
 302 -98 302 -98 219.5 -53.5 c 128,-1,1
428 178.5 m 128,-1,55
 453 207 453 207 453 257 c 2,56,-1
 453 361 l 1,57,58
 423 365 423 365 403 365 c 0,59,60
 356 365 356 365 324.5 337 c 128,-1,61
 293 309 293 309 293 238 c 0,62,63
 293 197 293 197 316.5 173.5 c 128,-1,64
 340 150 340 150 369 150 c 0,65,54
 403 150 403 150 428 178.5 c 128,-1,55
EndSplineSet
EndChar
StartChar: A
Encoding: 65 65 2
Width: 650
GlyphClass: 2
Flags: W
AnchorPoint: "Anchor-2" 642 10 basechar 0
AnchorPoint: "Anchor-1" 325 668 basechar 0
AnchorPoint: "Anchor-0" 325 0 basechar 0
LayerCount: 2
Fore
SplineSet
260 668 m 1,0,-1
 391 668 l 1,1,-1
 642 0 l 1,2,-1
 515 0 l 1,3,-1
 467 136 l 1,4,-1
 183 136 l 1,5,-1
 135 0 l 1,6,-1
 8 0 l 1,7,-1
 260 668 l 1,0,-1
434 235 m 1,8,-1
 325 546 l 1,9,-1
 216 235 l 1,10,-1
 434 235 l 1,8,-1
EndSplineSet
Substitution2: "Single Substitution lookup 15 subtable" ordfeminine
AlternateSubs2: "'aalt' Access All Alternates in Latin lookup 0 subtable" ordfeminine
EndChar
StartChar: B
Encoding: 66 66 13
Width: 627
GlyphClass: 2
Flags: W
AnchorPoint: "Anchor-1" 321 668 basechar 0
AnchorPoint: "Anchor-0" 321 0 basechar 0
LayerCount: 2
Fore
SplineSet
70 668 m 1,0,-1
 341 668 l 2,1,2
 450 668 450 668 510.5 621.5 c 128,-1,3
 571 575 571 575 571 495 c 0,4,5
 571 448 571 448 548.5 411 c 128,-1,6
 526 374 526 374 481 352 c 1,7,8
 540 331 540 331 569.5 290 c 128,-1,9
 599 249 599 249 599 195 c 0,10,11
 599 106 599 106 534 53 c 128,-1,12
 469 0 469 0 355 0 c 2,13,-1
 70 0 l 1,14,-1
 70 668 l 1,0,-1
447 127 m 128,-1,16
 478 155 478 155 478 200 c 0,17,18
 478 244 478 244 447 271 c 128,-1,19
 416 298 416 298 356 298 c 2,20,-1
 188 298 l 1,21,-1
 188 99 l 1,22,-1
 356 99 l 2,23,15
 416 99 416 99 447 127 c 128,-1,16
425.5 414.5 m 128,-1,25
 452 439 452 439 452 480 c 0,26,27
 452 522 452 522 423.5 546 c 128,-1,28
 395 570 395 570 342 570 c 2,29,-1
 188 570 l 1,30,-1
 188 390 l 1,31,-1
 348 390 l 2,32,24
 399 390 399 390 425.5 414.5 c 128,-1,25
EndSplineSet
EndChar
StartChar: C
Encoding: 67 67 14
Width: 651
GlyphClass: 2
Flags: W
AnchorPoint: "Anchor-1" 357 668 basechar 0
AnchorPoint: "Anchor-0" 354 0 basechar 0
LayerCount: 2
Fore
SplineSet
185 31.5 m 128,-1,1
 114 75 114 75 76.5 153.5 c 128,-1,2
 39 232 39 232 39 335 c 0,3,4
 39 439 39 439 78.5 517 c 128,-1,5
 118 595 118 595 190.5 637.5 c 128,-1,6
 263 680 263 680 360 680 c 0,7,8
 447 680 447 680 516 640 c 128,-1,9
 585 600 585 600 621 528 c 1,10,-1
 517 490 l 1,11,12
 494 533 494 533 452 557.5 c 128,-1,13
 410 582 410 582 355 582 c 256,14,15
 300 582 300 582 256 553 c 128,-1,16
 212 524 212 524 186.5 468 c 128,-1,17
 161 412 161 412 161 335 c 256,18,19
 161 258 161 258 186 201.5 c 128,-1,20
 211 145 211 145 256 115.5 c 128,-1,21
 301 86 301 86 358 86 c 0,22,23
 413 86 413 86 455.5 109.5 c 128,-1,24
 498 133 498 133 521 178 c 1,25,-1
 625 140 l 1,26,27
 588 68 588 68 516 28 c 128,-1,28
 444 -12 444 -12 353 -12 c 0,29,0
 256 -12 256 -12 185 31.5 c 128,-1,1
EndSplineSet
EndChar
StartChar: D
Encoding: 68 68 19
Width: 678
GlyphClass: 2
Flags: W
AnchorPoint: "Anchor-1" 324 668 basechar 0
AnchorPoint: "Anchor-0" 344 0 basechar 0
LayerCount: 2
Fore
SplineSet
70 668 m 1,0,-1
 266 668 l 2,1,2
 445 668 445 668 542 589.5 c 128,-1,3
 639 511 639 511 639 335 c 0,4,5
 639 155 639 155 540.5 77.5 c 128,-1,6
 442 0 442 0 266 0 c 2,7,-1
 70 0 l 1,8,-1
 70 668 l 1,0,-1
399.5 117.5 m 128,-1,10
 454 136 454 136 486 188 c 128,-1,11
 518 240 518 240 518 335 c 0,12,13
 518 429 518 429 486 480.5 c 128,-1,14
 454 532 454 532 399 551 c 128,-1,15
 344 570 344 570 266 570 c 2,16,-1
 188 570 l 1,17,-1
 188 99 l 1,18,-1
 266 99 l 2,19,9
 345 99 345 99 399.5 117.5 c 128,-1,10
EndSplineSet
EndChar
StartChar: E
Encoding: 69 69 23
Width: 582
GlyphClass: 2
Flags: W
AnchorPoint: "Anchor-2" 546 10 basechar 0
AnchorPoint: "Anchor-1" 309 668 basechar 0
AnchorPoint: "Anchor-0" 292 0 basechar 0
LayerCount: 2
Fore
SplineSet
70 668 m 1,0,-1
 542 668 l 1,1,-1
 542 565 l 1,2,-1
 188 565 l 1,3,-1
 188 395 l 1,4,-1
 435 395 l 1,5,-1
 435 292 l 1,6,-1
 188 292 l 1,7,-1
 188 103 l 1,8,-1
 546 103 l 1,9,-1
 546 0 l 1,10,-1
 70 0 l 1,11,-1
 70 668 l 1,0,-1
EndSplineSet
EndChar
StartChar: F
Encoding: 70 70 32
Width: 558
GlyphClass: 2
Flags: W
AnchorPoint: "Anchor-1" 279 668 basechar 0
AnchorPoint: "Anchor-0" 279 0 basechar 0
LayerCount: 2
Fore
SplineSet
70 668 m 1,0,-1
 520 668 l 1,1,-1
 520 565 l 1,2,-1
 188 565 l 1,3,-1
 188 384 l 1,4,-1
 516 384 l 1,5,-1
 516 281 l 1,6,-1
 188 281 l 1,7,-1
 188 0 l 1,8,-1
 70 0 l 1,9,-1
 70 668 l 1,0,-1
EndSplineSet
EndChar
StartChar: G
Encoding: 71 71 33
Width: 705
GlyphClass: 2
Flags: W
AnchorPoint: "Anchor-1" 351 668 basechar 0
AnchorPoint: "Anchor-0" 351 0 basechar 0
LayerCount: 2
Fore
SplineSet
181.5 31.5 m 128,-1,1
 112 75 112 75 75.5 153.5 c 128,-1,2
 39 232 39 232 39 335 c 0,3,4
 39 439 39 439 79 517 c 128,-1,5
 119 595 119 595 192.5 637.5 c 128,-1,6
 266 680 266 680 363 680 c 0,7,8
 451 680 451 680 521 642 c 128,-1,9
 591 604 591 604 625 532 c 1,10,-1
 519 493 l 1,11,12
 498 534 498 534 457 558 c 128,-1,13
 416 582 416 582 359 582 c 0,14,15
 303 582 303 582 258 553.5 c 128,-1,16
 213 525 213 525 187 469.5 c 128,-1,17
 161 414 161 414 161 335 c 0,18,19
 161 258 161 258 185.5 201.5 c 128,-1,20
 210 145 210 145 254.5 115.5 c 128,-1,21
 299 86 299 86 358 86 c 0,22,23
 432 86 432 86 484.5 121.5 c 128,-1,24
 537 157 537 157 537 238 c 2,25,-1
 537 259 l 1,26,-1
 359 259 l 1,27,-1
 359 357 l 1,28,-1
 652 357 l 1,29,-1
 652 0 l 1,30,-1
 579 0 l 1,31,-1
 555 80 l 1,32,33
 493 -12 493 -12 346 -12 c 0,34,0
 251 -12 251 -12 181.5 31.5 c 128,-1,1
EndSplineSet
EndChar
StartChar: H
Encoding: 72 72 37
Width: 697
GlyphClass: 2
Flags: W
AnchorPoint: "Anchor-1" 349 668 basechar 0
AnchorPoint: "Anchor-0" 349 0 basechar 0
LayerCount: 2
Fore
SplineSet
70 668 m 1,0,-1
 188 668 l 1,1,-1
 188 395 l 1,2,-1
 510 395 l 1,3,-1
 510 668 l 1,4,-1
 628 668 l 1,5,-1
 628 0 l 1,6,-1
 510 0 l 1,7,-1
 510 292 l 1,8,-1
 188 292 l 1,9,-1
 188 0 l 1,10,-1
 70 0 l 1,11,-1
 70 668 l 1,0,-1
EndSplineSet
EndChar
StartChar: J
Encoding: 74 74 48
Width: 535
GlyphClass: 2
Flags: W
AnchorPoint: "Anchor-1" 406 668 basechar 0
AnchorPoint: "Anchor-0" 264 0 basechar 0
LayerCount: 2
Fore
SplineSet
80 38.5 m 128,-1,1
 22 89 22 89 11 184 c 1,2,-1
 120 219 l 1,3,4
 121 157 121 157 153.5 120 c 128,-1,5
 186 83 186 83 236 83 c 0,6,7
 347 83 347 83 347 229 c 2,8,-1
 347 668 l 1,9,-1
 465 668 l 1,10,-1
 465 229 l 2,11,12
 465 114 465 114 405.5 51 c 128,-1,13
 346 -12 346 -12 236 -12 c 0,14,0
 138 -12 138 -12 80 38.5 c 128,-1,1
EndSplineSet
Substitution2: "Single Substitution lookup 14 subtable" uni004A0301
AlternateSubs2: "'aalt' Access All Alternates in Latin lookup 0 subtable" uni004A0301
EndChar
StartChar: K
Encoding: 75 75 50
Width: 646
GlyphClass: 2
Flags: W
AnchorPoint: "Anchor-1" 326 668 basechar 0
AnchorPoint: "Anchor-0" 326 0 basechar 0
LayerCount: 2
Fore
SplineSet
70 668 m 1,0,-1
 188 668 l 1,1,-1
 188 359 l 1,2,-1
 466 668 l 1,3,-1
 612 668 l 1,4,-1
 353 386 l 1,5,-1
 635 0 l 1,6,-1
 494 0 l 1,7,-1
 276 302 l 1,8,-1
 188 205 l 1,9,-1
 188 0 l 1,10,-1
 70 0 l 1,11,-1
 70 668 l 1,0,-1
EndSplineSet
EndChar
StartChar: M
Encoding: 77 77 56
Width: 840
GlyphClass: 2
Flags: W
AnchorPoint: "Anchor-1" 420 668 basechar 0
AnchorPoint: "Anchor-0" 420 0 basechar 0
LayerCount: 2
Fore
SplineSet
70 668 m 1,0,-1
 257 668 l 1,1,-1
 420 147 l 1,2,-1
 584 668 l 1,3,-1
 770 668 l 1,4,-1
 770 0 l 1,5,-1
 654 0 l 1,6,-1
 654 553 l 1,7,-1
 473 0 l 1,8,-1
 366 0 l 1,9,-1
 186 553 l 1,10,-1
 186 0 l 1,11,-1
 70 0 l 1,12,-1
 70 668 l 1,0,-1
EndSplineSet
EndChar
StartChar: O
Encoding: 79 79 62
Width: 729
GlyphClass: 2
Flags: W
AnchorPoint: "Anchor-3" 714 668 basechar 0
AnchorPoint: "Anchor-2" 660 10 basechar 0
AnchorPoint: "Anchor-1" 365 668 basechar 0
AnchorPoint: "Anchor-0" 365 0 basechar 0
LayerCount: 2
Fore
SplineSet
194 32 m 128,-1,1
 120 76 120 76 79.5 154.5 c 128,-1,2
 39 233 39 233 39 334 c 256,3,4
 39 435 39 435 79.5 513.5 c 128,-1,5
 120 592 120 592 194 636 c 128,-1,6
 268 680 268 680 365 680 c 256,7,8
 462 680 462 680 535.5 636 c 128,-1,9
 609 592 609 592 649.5 513.5 c 128,-1,10
 690 435 690 435 690 334 c 256,11,12
 690 233 690 233 649.5 154.5 c 128,-1,13
 609 76 609 76 535.5 32 c 128,-1,14
 462 -12 462 -12 365 -12 c 256,15,0
 268 -12 268 -12 194 32 c 128,-1,1
468 115 m 128,-1,17
 514 144 514 144 540.5 200 c 128,-1,18
 567 256 567 256 567 334 c 256,19,20
 567 412 567 412 540.5 468 c 128,-1,21
 514 524 514 524 468 553 c 128,-1,22
 422 582 422 582 365 582 c 256,23,24
 308 582 308 582 262 553 c 128,-1,25
 216 524 216 524 189 468 c 128,-1,26
 162 412 162 412 162 334 c 256,27,28
 162 256 162 256 189 200 c 128,-1,29
 216 144 216 144 262 115 c 128,-1,30
 308 86 308 86 365 86 c 256,31,16
 422 86 422 86 468 115 c 128,-1,17
EndSplineSet
Substitution2: "Single Substitution lookup 15 subtable" ordmasculine
AlternateSubs2: "'aalt' Access All Alternates in Latin lookup 0 subtable" ordmasculine
EndChar
StartChar: P
Encoding: 80 80 71
Width: 609
GlyphClass: 2
Flags: W
AnchorPoint: "Anchor-1" 313 668 basechar 0
AnchorPoint: "Anchor-0" 313 0 basechar 0
LayerCount: 2
Fore
SplineSet
70 668 m 1,0,-1
 333 668 l 2,1,2
 447 668 447 668 516 616 c 128,-1,3
 585 564 585 564 585 460 c 0,4,5
 585 357 585 357 515.5 305 c 128,-1,6
 446 253 446 253 333 253 c 2,7,-1
 188 253 l 1,8,-1
 188 0 l 1,9,-1
 70 0 l 1,10,-1
 70 668 l 1,0,-1
426.5 378.5 m 128,-1,12
 462 404 462 404 462 460 c 0,13,14
 462 567 462 567 329 567 c 2,15,-1
 188 567 l 1,16,-1
 188 353 l 1,17,-1
 329 353 l 2,18,11
 391 353 391 353 426.5 378.5 c 128,-1,12
EndSplineSet
EndChar
StartChar: Q
Encoding: 81 81 73
Width: 739
GlyphClass: 1
Flags: W
LayerCount: 2
Fore
SplineSet
194 32 m 128,-1,1
 120 76 120 76 79.5 154.5 c 128,-1,2
 39 233 39 233 39 334 c 256,3,4
 39 435 39 435 79.5 513.5 c 128,-1,5
 120 592 120 592 194 636 c 128,-1,6
 268 680 268 680 365 680 c 256,7,8
 462 680 462 680 535.5 636 c 128,-1,9
 609 592 609 592 649.5 513.5 c 128,-1,10
 690 435 690 435 690 334 c 0,11,12
 690 221 690 221 640 137 c 1,13,-1
 757 27 l 1,14,-1
 687 -48 l 1,15,-1
 573 59 l 1,16,17
 488 -12 488 -12 365 -12 c 0,18,0
 268 -12 268 -12 194 32 c 128,-1,1
492 135 m 1,20,-1
 327 291 l 1,21,-1
 397 365 l 1,22,-1
 549 221 l 1,23,24
 567 271 567 271 567 334 c 0,25,26
 567 412 567 412 540.5 468 c 128,-1,27
 514 524 514 524 468 553 c 128,-1,28
 422 582 422 582 365 582 c 256,29,30
 308 582 308 582 262 553 c 128,-1,31
 216 524 216 524 189 468 c 128,-1,32
 162 412 162 412 162 334 c 256,33,34
 162 256 162 256 189 200 c 128,-1,35
 216 144 216 144 262 115 c 128,-1,36
 308 86 308 86 365 86 c 0,37,19
 442 86 442 86 492 135 c 1,20,-1
EndSplineSet
EndChar
StartChar: R
Encoding: 82 82 74
Width: 631
GlyphClass: 2
Flags: W
AnchorPoint: "Anchor-1" 312 668 basechar 0
AnchorPoint: "Anchor-0" 320 0 basechar 0
LayerCount: 2
Fore
SplineSet
70 668 m 1,0,-1
 339 668 l 2,1,2
 451 668 451 668 519 618 c 128,-1,3
 587 568 587 568 587 467 c 0,4,5
 587 385 587 385 540 337.5 c 128,-1,6
 493 290 493 290 411 276 c 1,7,-1
 611 0 l 1,8,-1
 470 0 l 1,9,-1
 281 267 l 1,10,-1
 188 267 l 1,11,-1
 188 0 l 1,12,-1
 70 0 l 1,13,-1
 70 668 l 1,0,-1
430 391.5 m 128,-1,15
 464 415 464 415 464 467 c 0,16,17
 464 520 464 520 430 543.5 c 128,-1,18
 396 567 396 567 337 567 c 2,19,-1
 188 567 l 1,20,-1
 188 368 l 1,21,-1
 337 368 l 2,22,14
 396 368 396 368 430 391.5 c 128,-1,15
EndSplineSet
EndChar
StartChar: S
Encoding: 83 83 77
Width: 600
GlyphClass: 2
Flags: W
AnchorPoint: "Anchor-1" 300 668 basechar 0
AnchorPoint: "Anchor-0" 300 0 basechar 0
LayerCount: 2
Fore
SplineSet
132 30 m 128,-1,1
 59 72 59 72 32 150 c 1,2,-1
 140 189 l 1,3,4
 154 140 154 140 200 112.5 c 128,-1,5
 246 85 246 85 304 85 c 0,6,7
 367 85 367 85 408.5 111 c 128,-1,8
 450 137 450 137 450 188 c 0,9,10
 450 226 450 226 421.5 248 c 128,-1,11
 393 270 393 270 322 286 c 2,12,-1
 235 305 l 2,13,14
 48 345 48 345 48 486 c 0,15,16
 48 543 48 543 82 587 c 128,-1,17
 116 631 116 631 175 655.5 c 128,-1,18
 234 680 234 680 306 680 c 0,19,20
 387 680 387 680 452 647 c 128,-1,21
 517 614 517 614 547 548 c 1,22,-1
 439 509 l 1,23,24
 422 544 422 544 384 563.5 c 128,-1,25
 346 583 346 583 298 583 c 0,26,27
 242 583 242 583 204 559.5 c 128,-1,28
 166 536 166 536 166 493 c 0,29,30
 166 430 166 430 260 409 c 2,31,-1
 352 389 l 2,32,33
 460 365 460 365 514 322.5 c 128,-1,34
 568 280 568 280 568 195 c 0,35,36
 568 131 568 131 531.5 84 c 128,-1,37
 495 37 495 37 433.5 12.5 c 128,-1,38
 372 -12 372 -12 300 -12 c 0,39,0
 205 -12 205 -12 132 30 c 128,-1,1
EndSplineSet
EndChar
StartChar: T
Encoding: 84 84 83
Width: 581
GlyphClass: 2
Flags: W
AnchorPoint: "Anchor-1" 290 668 basechar 0
AnchorPoint: "Anchor-0" 290 0 basechar 0
LayerCount: 2
Fore
SplineSet
231 565 m 1,0,-1
 12 565 l 1,1,-1
 12 668 l 1,2,-1
 569 668 l 1,3,-1
 569 565 l 1,4,-1
 349 565 l 1,5,-1
 349 0 l 1,6,-1
 231 0 l 1,7,-1
 231 565 l 1,0,-1
EndSplineSet
EndChar
StartChar: U
Encoding: 85 85 87
Width: 688
GlyphClass: 2
Flags: W
AnchorPoint: "Anchor-3" 664 668 basechar 0
AnchorPoint: "Anchor-2" 539 10 basechar 0
AnchorPoint: "Anchor-1" 345 668 basechar 0
AnchorPoint: "Anchor-0" 345 0 basechar 0
LayerCount: 2
Fore
SplineSet
132.5 60 m 128,-1,1
 68 132 68 132 68 284 c 2,2,-1
 68 668 l 1,3,-1
 186 668 l 1,4,-1
 186 273 l 2,5,6
 186 177 186 177 223 132 c 128,-1,7
 260 87 260 87 345 87 c 256,8,9
 430 87 430 87 466 131.5 c 128,-1,10
 502 176 502 176 502 273 c 2,11,-1
 502 668 l 1,12,-1
 620 668 l 1,13,-1
 620 284 l 2,14,15
 620 132 620 132 555.5 60 c 128,-1,16
 491 -12 491 -12 344 -12 c 256,17,0
 197 -12 197 -12 132.5 60 c 128,-1,1
EndSplineSet
EndChar
StartChar: V
Encoding: 86 86 96
Width: 617
GlyphClass: 2
Flags: W
AnchorPoint: "Anchor-1" 309 668 basechar 0
AnchorPoint: "Anchor-0" 309 0 basechar 0
LayerCount: 2
Fore
SplineSet
11 668 m 1,0,-1
 137 668 l 1,1,-1
 308 135 l 1,2,-1
 479 668 l 1,3,-1
 605 668 l 1,4,-1
 377 0 l 1,5,-1
 239 0 l 1,6,-1
 11 668 l 1,0,-1
EndSplineSet
EndChar
StartChar: X
Encoding: 88 88 102
Width: 652
GlyphClass: 2
Flags: W
AnchorPoint: "Anchor-1" 326 668 basechar 0
AnchorPoint: "Anchor-0" 326 0 basechar 0
LayerCount: 2
Fore
SplineSet
255 344 m 1,0,-1
 24 668 l 1,1,-1
 165 668 l 1,2,-1
 325 443 l 1,3,-1
 486 668 l 1,4,-1
 628 668 l 1,5,-1
 397 344 l 1,6,-1
 642 0 l 1,7,-1
 500 0 l 1,8,-1
 325 245 l 1,9,-1
 152 0 l 1,10,-1
 10 0 l 1,11,-1
 255 344 l 1,0,-1
EndSplineSet
EndChar
StartChar: Y
Encoding: 89 89 103
Width: 610
GlyphClass: 2
Flags: W
AnchorPoint: "Anchor-1" 305 668 basechar 0
AnchorPoint: "Anchor-0" 305 0 basechar 0
LayerCount: 2
Fore
SplineSet
246 259 m 1,0,-1
 0 668 l 1,1,-1
 133 668 l 1,2,-1
 305 370 l 1,3,-1
 476 668 l 1,4,-1
 610 668 l 1,5,-1
 364 260 l 1,6,-1
 364 0 l 1,7,-1
 246 0 l 1,8,-1
 246 259 l 1,0,-1
EndSplineSet
EndChar
StartChar: Z
Encoding: 90 90 108
Width: 612
GlyphClass: 2
Flags: W
AnchorPoint: "Anchor-1" 307 668 basechar 0
AnchorPoint: "Anchor-0" 307 0 basechar 0
LayerCount: 2
Fore
SplineSet
40 96 m 1,0,-1
 412 565 l 1,1,-1
 55 565 l 1,2,-1
 55 668 l 1,3,-1
 558 668 l 1,4,-1
 558 572 l 1,5,-1
 188 103 l 1,6,-1
 573 103 l 1,7,-1
 573 0 l 1,8,-1
 40 0 l 1,9,-1
 40 96 l 1,0,-1
EndSplineSet
EndChar
StartChar: bracketleft
Encoding: 91 91 281
Width: 328
GlyphClass: 1
Flags: W
LayerCount: 2
Fore
SplineSet
70 708 m 1,0,-1
 295 708 l 1,1,-1
 295 618 l 1,2,-1
 168 618 l 1,3,-1
 168 -72 l 1,4,-1
 295 -72 l 1,5,-1
 295 -162 l 1,6,-1
 70 -162 l 1,7,-1
 70 708 l 1,0,-1
EndSplineSet
EndChar
StartChar: backslash
Encoding: 92 92 272
Width: 411
GlyphClass: 1
Flags: W
LayerCount: 2
Fore
SplineSet
284 -90 m 1,0,-1
 20 708 l 1,1,-1
 127 708 l 1,2,-1
 391 -90 l 1,3,-1
 284 -90 l 1,0,-1
EndSplineSet
EndChar
StartChar: underscore
Encoding: 95 95 276
Width: 385
GlyphClass: 1
Flags: W
LayerCount: 2
Fore
SplineSet
-2 0 m 1,0,-1
 387 0 l 1,1,-1
 387 -97 l 1,2,-1
 -2 -97 l 1,3,-1
 -2 0 l 1,0,-1
EndSplineSet
EndChar
StartChar: a
Encoding: 97 97 112
Width: 537
GlyphClass: 2
Flags: W
AnchorPoint: "Anchor-2" 488 10 basechar 0
AnchorPoint: "Anchor-1" 266 496 basechar 0
AnchorPoint: "Anchor-0" 266 0 basechar 0
LayerCount: 2
Fore
SplineSet
77.5 27 m 128,-1,1
 28 66 28 66 28 131 c 0,2,3
 28 215 28 215 113.5 255.5 c 128,-1,4
 199 296 199 296 366 310 c 1,5,-1
 366 322 l 2,6,7
 366 372 366 372 340 399 c 128,-1,8
 314 426 314 426 262 426 c 0,9,10
 221 426 221 426 194.5 408 c 128,-1,11
 168 390 168 390 160 356 c 1,12,-1
 61 388 l 1,13,14
 83 442 83 442 137 474 c 128,-1,15
 191 506 191 506 263 506 c 0,16,17
 369 506 369 506 420 457 c 128,-1,18
 471 408 471 408 471 303 c 2,19,-1
 471 190 l 2,20,21
 471 87 471 87 488 0 c 1,22,-1
 387 0 l 1,23,-1
 368 65 l 1,24,25
 321 -12 321 -12 200 -12 c 0,26,0
 127 -12 127 -12 77.5 27 c 128,-1,1
366 204 m 2,28,-1
 366 235 l 1,29,30
 255 226 255 226 200 203.5 c 128,-1,31
 145 181 145 181 145 136 c 0,32,33
 145 106 145 106 169 87.5 c 128,-1,34
 193 69 193 69 234 69 c 0,35,27
 366 69 366 69 366 204 c 2,28,-1
EndSplineSet
Substitution2: "Single Substitution lookup 15 subtable" ordfeminine
AlternateSubs2: "'aalt' Access All Alternates in Latin lookup 0 subtable" ordfeminine
EndChar
StartChar: b
Encoding: 98 98 123
Width: 580
GlyphClass: 2
Flags: W
AnchorPoint: "Anchor-1" 291 496 basechar 0
AnchorPoint: "Anchor-0" 291 0 basechar 0
LayerCount: 2
Fore
SplineSet
238.5 10 m 128,-1,1
 197 32 197 32 174 72 c 1,2,-1
 154 0 l 1,3,-1
 65 0 l 1,4,-1
 65 708 l 1,5,-1
 174 708 l 1,6,-1
 174 422 l 1,7,8
 197 462 197 462 238.5 484 c 128,-1,9
 280 506 280 506 332 506 c 0,10,11
 392 506 392 506 441 475 c 128,-1,12
 490 444 490 444 518.5 385.5 c 128,-1,13
 547 327 547 327 547 248 c 256,14,15
 547 169 547 169 518.5 110 c 128,-1,16
 490 51 490 51 441 19.5 c 128,-1,17
 392 -12 392 -12 332 -12 c 0,18,0
 280 -12 280 -12 238.5 10 c 128,-1,1
393 123 m 128,-1,20
 429 169 429 169 429 248 c 256,21,22
 429 327 429 327 393.5 372 c 128,-1,23
 358 417 358 417 300 417 c 0,24,25
 241 417 241 417 206 373 c 128,-1,26
 171 329 171 329 171 247 c 256,27,28
 171 165 171 165 206 121 c 128,-1,29
 241 77 241 77 300 77 c 0,30,19
 357 77 357 77 393 123 c 128,-1,20
EndSplineSet
EndChar
StartChar: c
Encoding: 99 99 124
Width: 497
GlyphClass: 2
Flags: W
AnchorPoint: "Anchor-1" 280 496 basechar 0
AnchorPoint: "Anchor-0" 273 0 basechar 0
LayerCount: 2
Fore
SplineSet
144.5 21 m 128,-1,1
 90 54 90 54 61.5 112.5 c 128,-1,2
 33 171 33 171 33 248 c 0,3,4
 33 323 33 323 63.5 381.5 c 128,-1,5
 94 440 94 440 149.5 473 c 128,-1,6
 205 506 205 506 278 506 c 0,7,8
 344 506 344 506 397.5 474.5 c 128,-1,9
 451 443 451 443 479 388 c 1,10,-1
 383 353 l 1,11,12
 369 383 369 383 341 399.5 c 128,-1,13
 313 416 313 416 278 416 c 0,14,15
 223 416 223 416 185.5 373.5 c 128,-1,16
 148 331 148 331 148 248 c 256,17,18
 148 165 148 165 185.5 122 c 128,-1,19
 223 79 223 79 278 79 c 0,20,21
 314 79 314 79 341.5 95 c 128,-1,22
 369 111 369 111 385 137 c 1,23,-1
 480 102 l 1,24,25
 448 48 448 48 392.5 18 c 128,-1,26
 337 -12 337 -12 273 -12 c 0,27,0
 199 -12 199 -12 144.5 21 c 128,-1,1
EndSplineSet
EndChar
StartChar: d
Encoding: 100 100 129
Width: 579
GlyphClass: 2
Flags: W
AnchorPoint: "Anchor-3" 548 497 basechar 0
AnchorPoint: "Anchor-1" 288 796 basechar 0
AnchorPoint: "Anchor-0" 288 0 basechar 0
LayerCount: 2
Fore
SplineSet
139 19.5 m 128,-1,1
 90 51 90 51 61.5 110 c 128,-1,2
 33 169 33 169 33 248 c 256,3,4
 33 327 33 327 61.5 385.5 c 128,-1,5
 90 444 90 444 139 475 c 128,-1,6
 188 506 188 506 248 506 c 0,7,8
 300 506 300 506 341.5 484 c 128,-1,9
 383 462 383 462 406 422 c 1,10,-1
 406 708 l 1,11,-1
 515 708 l 1,12,-1
 515 190 l 2,13,14
 515 93 515 93 532 0 c 1,15,-1
 428 0 l 1,16,-1
 407 71 l 1,17,18
 382 31 382 31 341 9.5 c 128,-1,19
 300 -12 300 -12 248 -12 c 0,20,0
 188 -12 188 -12 139 19.5 c 128,-1,1
374 121 m 128,-1,22
 409 165 409 165 409 247 c 256,23,24
 409 329 409 329 374 373 c 128,-1,25
 339 417 339 417 280 417 c 0,26,27
 222 417 222 417 186.5 372 c 128,-1,28
 151 327 151 327 151 248 c 256,29,30
 151 169 151 169 187 123 c 128,-1,31
 223 77 223 77 280 77 c 0,32,21
 339 77 339 77 374 121 c 128,-1,22
EndSplineSet
EndChar
StartChar: e
Encoding: 101 101 133
Width: 550
GlyphClass: 2
Flags: W
AnchorPoint: "Anchor-2" 450 10 basechar 0
AnchorPoint: "Anchor-1" 288 496 basechar 0
AnchorPoint: "Anchor-0" 275 0 basechar 0
LayerCount: 2
Fore
SplineSet
151.5 21 m 128,-1,1
 94 54 94 54 63.5 113.5 c 128,-1,2
 33 173 33 173 33 249 c 0,3,4
 33 326 33 326 66 384 c 128,-1,5
 99 442 99 442 156 474 c 128,-1,6
 213 506 213 506 283 506 c 0,7,8
 361 506 361 506 417.5 467 c 128,-1,9
 474 428 474 428 501.5 362.5 c 128,-1,10
 529 297 529 297 523 219 c 1,11,-1
 144 219 l 1,12,13
 152 145 152 145 193.5 112 c 128,-1,14
 235 79 235 79 285 79 c 0,15,16
 361 79 361 79 395 123 c 1,17,-1
 491 92 l 1,18,19
 459 43 459 43 406 15.5 c 128,-1,20
 353 -12 353 -12 287 -12 c 0,21,0
 209 -12 209 -12 151.5 21 c 128,-1,1
377 383 m 128,-1,23
 341 419 341 419 285 419 c 0,24,25
 232 419 232 419 193 389.5 c 128,-1,26
 154 360 154 360 144 295 c 1,27,-1
 415 295 l 1,28,22
 413 347 413 347 377 383 c 128,-1,23
EndSplineSet
EndChar
StartChar: f
Encoding: 102 102 142
Width: 338
GlyphClass: 2
Flags: W
AnchorPoint: "Anchor-1" 168 796 basechar 0
AnchorPoint: "Anchor-0" 168 0 basechar 0
LayerCount: 2
Fore
SplineSet
96 411 m 1,0,-1
 13 411 l 1,1,-1
 13 496 l 1,2,-1
 96 496 l 1,3,-1
 96 576 l 2,4,5
 96 631 96 631 110 661.5 c 128,-1,6
 124 692 124 692 157 705 c 128,-1,7
 190 718 190 718 251 718 c 2,8,-1
 311 718 l 1,9,-1
 311 629 l 1,10,-1
 263 629 l 2,11,12
 227 629 227 629 216.5 618 c 128,-1,13
 206 607 206 607 206 572 c 2,14,-1
 206 496 l 1,15,-1
 311 496 l 1,16,-1
 311 411 l 1,17,-1
 206 411 l 1,18,-1
 206 0 l 1,19,-1
 96 0 l 1,20,-1
 96 411 l 1,0,-1
EndSplineSet
EndChar
StartChar: g
Encoding: 103 103 143
Width: 574
GlyphClass: 2
Flags: W
AnchorPoint: "Anchor-1" 287 496 basechar 0
AnchorPoint: "Anchor-0" 287 -251 basechar 0
LayerCount: 2
Fore
SplineSet
157 -168 m 128,-1,1
 101 -140 101 -140 77 -81 c 1,2,-1
 174 -46 l 1,3,4
 186 -75 186 -75 215.5 -91 c 128,-1,5
 245 -107 245 -107 287 -107 c 0,6,7
 339 -107 339 -107 370.5 -79.5 c 128,-1,8
 402 -52 402 -52 402 9 c 2,9,-1
 402 95 l 1,10,11
 347 12 347 12 245 12 c 0,12,13
 189 12 189 12 140.5 41.5 c 128,-1,14
 92 71 92 71 62.5 126.5 c 128,-1,15
 33 182 33 182 33 257 c 0,16,17
 33 336 33 336 62 392.5 c 128,-1,18
 91 449 91 449 139 478 c 128,-1,19
 187 507 187 507 243 507 c 0,20,21
 297 507 297 507 337 485 c 128,-1,22
 377 463 377 463 402 422 c 1,23,-1
 424 496 l 1,24,-1
 511 496 l 1,25,-1
 511 19 l 2,26,27
 511 -88 511 -88 450 -142 c 128,-1,28
 389 -196 389 -196 281 -196 c 0,29,0
 213 -196 213 -196 157 -168 c 128,-1,1
370 139 m 128,-1,31
 406 178 406 178 406 259 c 256,32,33
 406 340 406 340 370 378.5 c 128,-1,34
 334 417 334 417 278 417 c 0,35,36
 221 417 221 417 185 376 c 128,-1,37
 149 335 149 335 149 260 c 256,38,39
 149 185 149 185 185 142.5 c 128,-1,40
 221 100 221 100 278 100 c 0,41,30
 334 100 334 100 370 139 c 128,-1,31
EndSplineSet
EndChar
StartChar: h
Encoding: 104 104 147
Width: 560
GlyphClass: 2
Flags: W
AnchorPoint: "Anchor-1" 280 796 basechar 0
AnchorPoint: "Anchor-0" 280 0 basechar 0
LayerCount: 2
Fore
SplineSet
65 708 m 1,0,-1
 174 708 l 1,1,-1
 174 424 l 1,2,3
 195 460 195 460 235 483 c 128,-1,4
 275 506 275 506 332 506 c 0,5,6
 420 506 420 506 458.5 455.5 c 128,-1,7
 497 405 497 405 497 310 c 2,8,-1
 497 0 l 1,9,-1
 387 0 l 1,10,-1
 387 280 l 2,11,12
 387 346 387 346 368.5 381.5 c 128,-1,13
 350 417 350 417 291 417 c 0,14,15
 234 417 234 417 204 378 c 128,-1,16
 174 339 174 339 174 264 c 2,17,-1
 174 0 l 1,18,-1
 65 0 l 1,19,-1
 65 708 l 1,0,-1
EndSplineSet
EndChar
StartChar: l
Encoding: 108 108 163
Width: 288
GlyphClass: 2
Flags: W
AnchorPoint: "Anchor-3" 203 498 basechar 0
AnchorPoint: "Anchor-1" 133 796 basechar 0
AnchorPoint: "Anchor-0" 139 0 basechar 0
LayerCount: 2
Fore
SplineSet
114.5 10.5 m 128,-1,1
 86 21 86 21 73.5 47.5 c 128,-1,2
 61 74 61 74 61 126 c 2,3,-1
 61 708 l 1,4,-1
 171 708 l 1,5,-1
 171 148 l 2,6,7
 171 114 171 114 182.5 103.5 c 128,-1,8
 194 93 194 93 231 93 c 2,9,-1
 268 93 l 1,10,-1
 268 0 l 1,11,-1
 197 0 l 2,12,0
 143 0 143 0 114.5 10.5 c 128,-1,1
EndSplineSet
EndChar
StartChar: m
Encoding: 109 109 167
Width: 862
GlyphClass: 2
Flags: W
AnchorPoint: "Anchor-1" 432 496 basechar 0
AnchorPoint: "Anchor-0" 432 0 basechar 0
LayerCount: 2
Fore
SplineSet
65 496 m 1,0,-1
 154 496 l 1,1,-1
 174 424 l 1,2,3
 195 460 195 460 233.5 483 c 128,-1,4
 272 506 272 506 324 506 c 0,5,6
 433 506 433 506 468 421 c 1,7,8
 526 506 526 506 636 506 c 0,9,10
 722 506 722 506 760.5 455.5 c 128,-1,11
 799 405 799 405 799 310 c 2,12,-1
 799 0 l 1,13,-1
 690 0 l 1,14,-1
 690 280 l 2,15,16
 690 346 690 346 671 381.5 c 128,-1,17
 652 417 652 417 594 417 c 0,18,19
 543 417 543 417 515 378.5 c 128,-1,20
 487 340 487 340 487 266 c 2,21,-1
 487 0 l 1,22,-1
 377 0 l 1,23,-1
 377 280 l 2,24,25
 377 346 377 346 358.5 381.5 c 128,-1,26
 340 417 340 417 283 417 c 0,27,28
 231 417 231 417 202.5 377.5 c 128,-1,29
 174 338 174 338 174 265 c 2,30,-1
 174 0 l 1,31,-1
 65 0 l 1,32,-1
 65 496 l 1,0,-1
EndSplineSet
EndChar
StartChar: o
Encoding: 111 111 173
Width: 561
GlyphClass: 2
Flags: W
AnchorPoint: "Anchor-3" 540 496 basechar 0
AnchorPoint: "Anchor-2" 504 10 basechar 0
AnchorPoint: "Anchor-1" 280 496 basechar 0
AnchorPoint: "Anchor-0" 280 0 basechar 0
LayerCount: 2
Fore
SplineSet
159 16.5 m 128,-1,1
 103 45 103 45 68 103.5 c 128,-1,2
 33 162 33 162 33 247 c 0,3,4
 33 333 33 333 68 391 c 128,-1,5
 103 449 103 449 159 477.5 c 128,-1,6
 215 506 215 506 280 506 c 256,7,8
 345 506 345 506 401.5 477.5 c 128,-1,9
 458 449 458 449 493 391 c 128,-1,10
 528 333 528 333 528 247 c 0,11,12
 528 162 528 162 493 103.5 c 128,-1,13
 458 45 458 45 401.5 16.5 c 128,-1,14
 345 -12 345 -12 280 -12 c 256,15,0
 215 -12 215 -12 159 16.5 c 128,-1,1
375 120.5 m 128,-1,17
 413 162 413 162 413 247 c 256,18,19
 413 332 413 332 375 374 c 128,-1,20
 337 416 337 416 280 416 c 256,21,22
 223 416 223 416 185 374 c 128,-1,23
 147 332 147 332 147 247 c 0,24,25
 147 163 147 163 185 121 c 128,-1,26
 223 79 223 79 280 79 c 256,27,16
 337 79 337 79 375 120.5 c 128,-1,17
EndSplineSet
Substitution2: "Single Substitution lookup 15 subtable" ordmasculine
AlternateSubs2: "'aalt' Access All Alternates in Latin lookup 0 subtable" ordmasculine
EndChar
StartChar: p
Encoding: 112 112 182
Width: 580
GlyphClass: 2
Flags: W
AnchorPoint: "Anchor-1" 291 496 basechar 0
AnchorPoint: "Anchor-0" 291 0 basechar 0
LayerCount: 2
Fore
SplineSet
65 496 m 1,0,-1
 153 496 l 1,1,-1
 174 422 l 1,2,3
 197 462 197 462 238.5 484 c 128,-1,4
 280 506 280 506 332 506 c 0,5,6
 392 506 392 506 441 475 c 128,-1,7
 490 444 490 444 518.5 385 c 128,-1,8
 547 326 547 326 547 247 c 256,9,10
 547 168 547 168 518.5 109 c 128,-1,11
 490 50 490 50 441 19 c 128,-1,12
 392 -12 392 -12 332 -12 c 0,13,14
 280 -12 280 -12 238.5 10.5 c 128,-1,15
 197 33 197 33 174 74 c 1,16,-1
 174 -162 l 1,17,-1
 65 -162 l 1,18,-1
 65 496 l 1,0,-1
393.5 122 m 128,-1,20
 429 167 429 167 429 247 c 0,21,22
 429 326 429 326 393.5 371.5 c 128,-1,23
 358 417 358 417 300 417 c 0,24,25
 241 417 241 417 206 373.5 c 128,-1,26
 171 330 171 330 171 248 c 256,27,28
 171 166 171 166 206 121.5 c 128,-1,29
 241 77 241 77 300 77 c 0,30,19
 358 77 358 77 393.5 122 c 128,-1,20
EndSplineSet
EndChar
StartChar: q
Encoding: 113 113 184
Width: 586
GlyphClass: 2
Flags: W
AnchorPoint: "Anchor-1" 293 496 basechar 0
AnchorPoint: "Anchor-0" 293 0 basechar 0
LayerCount: 2
Fore
SplineSet
447.5 -139 m 128,-1,1
 406 -105 406 -105 406 -22 c 2,2,-1
 406 73 l 1,3,4
 384 33 384 33 342 10.5 c 128,-1,5
 300 -12 300 -12 248 -12 c 0,6,7
 188 -12 188 -12 139 19 c 128,-1,8
 90 50 90 50 61.5 108.5 c 128,-1,9
 33 167 33 167 33 247 c 0,10,11
 33 326 33 326 61.5 384.5 c 128,-1,12
 90 443 90 443 139.5 474.5 c 128,-1,13
 189 506 189 506 248 506 c 0,14,15
 300 506 300 506 341.5 484 c 128,-1,16
 383 462 383 462 406 422 c 1,17,-1
 427 496 l 1,18,-1
 515 496 l 1,19,-1
 515 -1 l 2,20,21
 515 -37 515 -37 529.5 -54.5 c 128,-1,22
 544 -72 544 -72 582 -72 c 0,23,24
 615 -72 615 -72 643 -61 c 1,25,-1
 643 -158 l 1,26,27
 605 -173 605 -173 554 -173 c 0,28,0
 489 -173 489 -173 447.5 -139 c 128,-1,1
374 121.5 m 128,-1,30
 409 166 409 166 409 248 c 256,31,32
 409 330 409 330 374 373.5 c 128,-1,33
 339 417 339 417 280 417 c 0,34,35
 222 417 222 417 186.5 371.5 c 128,-1,36
 151 326 151 326 151 247 c 0,37,38
 151 167 151 167 186.5 122 c 128,-1,39
 222 77 222 77 280 77 c 0,40,29
 339 77 339 77 374 121.5 c 128,-1,30
EndSplineSet
EndChar
StartChar: r
Encoding: 114 114 185
Width: 361
GlyphClass: 2
Flags: W
AnchorPoint: "Anchor-1" 206 496 basechar 0
AnchorPoint: "Anchor-0" 178 0 basechar 0
LayerCount: 2
Fore
SplineSet
65 496 m 1,0,-1
 148 496 l 1,1,-1
 175 404 l 1,2,3
 227 509 227 509 346 506 c 1,4,-1
 346 395 l 1,5,6
 255 399 255 399 214.5 357.5 c 128,-1,7
 174 316 174 316 174 227 c 2,8,-1
 174 0 l 1,9,-1
 65 0 l 1,10,-1
 65 496 l 1,0,-1
EndSplineSet
EndChar
StartChar: s
Encoding: 115 115 188
Width: 488
GlyphClass: 2
Flags: W
AnchorPoint: "Anchor-1" 247 496 basechar 0
AnchorPoint: "Anchor-0" 251 0 basechar 0
LayerCount: 2
Fore
SplineSet
110.5 20 m 128,-1,1
 50 52 50 52 25 113 c 1,2,-1
 124 149 l 1,3,4
 134 113 134 113 169.5 93 c 128,-1,5
 205 73 205 73 249 73 c 0,6,7
 295 73 295 73 326 91 c 128,-1,8
 357 109 357 109 357 139 c 0,9,10
 357 165 357 165 335 179.5 c 128,-1,11
 313 194 313 194 262 205 c 2,12,-1
 194 219 l 2,13,14
 121 234 121 234 80.5 267 c 128,-1,15
 40 300 40 300 40 360 c 0,16,17
 40 405 40 405 68 439 c 128,-1,18
 96 473 96 473 143 490.5 c 128,-1,19
 190 508 190 508 245 508 c 0,20,21
 315 508 315 508 370 481 c 128,-1,22
 425 454 425 454 449 399 c 1,23,-1
 351 364 l 1,24,25
 339 392 339 392 309.5 407 c 128,-1,26
 280 422 280 422 240 422 c 0,27,28
 198 422 198 422 172.5 406.5 c 128,-1,29
 147 391 147 391 147 364 c 0,30,31
 147 342 147 342 165 329 c 128,-1,32
 183 316 183 316 223 308 c 2,33,-1
 292 294 l 2,34,35
 381 275 381 275 422.5 243 c 128,-1,36
 464 211 464 211 464 146 c 0,37,38
 464 98 464 98 435.5 62 c 128,-1,39
 407 26 407 26 357.5 7 c 128,-1,40
 308 -12 308 -12 248 -12 c 0,41,0
 171 -12 171 -12 110.5 20 c 128,-1,1
EndSplineSet
EndChar
StartChar: t
Encoding: 116 116 194
Width: 349
GlyphClass: 2
Flags: W
AnchorPoint: "Anchor-3" 229 549 basechar 0
AnchorPoint: "Anchor-1" 171 496 basechar 0
AnchorPoint: "Anchor-0" 201 0 basechar 0
LayerCount: 2
Fore
SplineSet
151 10 m 128,-1,1
 123 20 123 20 111.5 47.5 c 128,-1,2
 100 75 100 75 100 130 c 2,3,-1
 100 411 l 1,4,-1
 16 411 l 1,5,-1
 16 496 l 1,6,-1
 100 496 l 1,7,-1
 100 620 l 1,8,-1
 209 620 l 1,9,-1
 209 496 l 1,10,-1
 314 496 l 1,11,-1
 314 411 l 1,12,-1
 209 411 l 1,13,-1
 209 154 l 2,14,15
 209 127 209 127 213.5 114.5 c 128,-1,16
 218 102 218 102 229.5 97.5 c 128,-1,17
 241 93 241 93 265 93 c 2,18,-1
 314 93 l 1,19,-1
 314 0 l 1,20,-1
 234 0 l 2,21,0
 179 0 179 0 151 10 c 128,-1,1
EndSplineSet
EndChar
StartChar: u
Encoding: 117 117 198
Width: 552
GlyphClass: 2
Flags: W
AnchorPoint: "Anchor-3" 530 496 basechar 0
AnchorPoint: "Anchor-2" 488 10 basechar 0
AnchorPoint: "Anchor-1" 276 496 basechar 0
AnchorPoint: "Anchor-0" 276 0 basechar 0
LayerCount: 2
Fore
SplineSet
101.5 39.5 m 128,-1,1
 63 91 63 91 63 187 c 2,2,-1
 63 496 l 1,3,-1
 172 496 l 1,4,-1
 172 217 l 2,5,6
 172 149 172 149 190 114 c 128,-1,7
 208 79 208 79 266 79 c 0,8,9
 378 79 378 79 378 228 c 2,10,-1
 378 496 l 1,11,-1
 488 496 l 1,12,-1
 488 0 l 1,13,-1
 399 0 l 1,14,-1
 378 71 l 1,15,16
 354 31 354 31 318.5 9.5 c 128,-1,17
 283 -12 283 -12 227 -12 c 0,18,0
 140 -12 140 -12 101.5 39.5 c 128,-1,1
EndSplineSet
EndChar
StartChar: v
Encoding: 118 118 207
Width: 493
GlyphClass: 2
Flags: W
AnchorPoint: "Anchor-1" 247 496 basechar 0
AnchorPoint: "Anchor-0" 247 0 basechar 0
LayerCount: 2
Fore
SplineSet
10 496 m 1,0,-1
 126 496 l 1,1,-1
 247 128 l 1,2,-1
 367 496 l 1,3,-1
 483 496 l 1,4,-1
 306 0 l 1,5,-1
 187 0 l 1,6,-1
 10 496 l 1,0,-1
EndSplineSet
EndChar
StartChar: x
Encoding: 120 120 213
Width: 508
GlyphClass: 2
Flags: W
AnchorPoint: "Anchor-1" 255 496 basechar 0
AnchorPoint: "Anchor-0" 255 0 basechar 0
LayerCount: 2
Fore
SplineSet
192 257 m 1,0,-1
 21 496 l 1,1,-1
 145 496 l 1,2,-1
 254 343 l 1,3,-1
 363 496 l 1,4,-1
 487 496 l 1,5,-1
 316 257 l 1,6,-1
 498 0 l 1,7,-1
 374 0 l 1,8,-1
 254 169 l 1,9,-1
 134 0 l 1,10,-1
 10 0 l 1,11,-1
 192 257 l 1,0,-1
EndSplineSet
EndChar
StartChar: y
Encoding: 121 121 214
Width: 482
GlyphClass: 2
Flags: W
AnchorPoint: "Anchor-1" 242 496 basechar 0
AnchorPoint: "Anchor-0" 242 0 basechar 0
LayerCount: 2
Fore
SplineSet
56 -74 m 1,0,-1
 94 -74 l 2,1,2
 126 -74 126 -74 142.5 -70 c 128,-1,3
 159 -66 159 -66 169 -53.5 c 128,-1,4
 179 -41 179 -41 188 -14 c 2,5,-1
 193 1 l 1,6,-1
 10 496 l 1,7,-1
 129 496 l 1,8,-1
 244 143 l 1,9,-1
 354 496 l 1,10,-1
 472 496 l 1,11,-1
 292 -14 l 2,12,13
 271 -75 271 -75 250 -105.5 c 128,-1,14
 229 -136 229 -136 196 -149 c 128,-1,15
 163 -162 163 -162 105 -162 c 2,16,-1
 56 -162 l 1,17,-1
 56 -74 l 1,0,-1
EndSplineSet
EndChar
StartChar: braceleft
Encoding: 123 123 279
Width: 361
GlyphClass: 1
Flags: W
LayerCount: 2
Fore
SplineSet
157 -131 m 128,-1,1
 126 -100 126 -100 126 -28 c 2,2,-1
 126 133 l 2,3,4
 126 183 126 183 107 204 c 128,-1,5
 88 225 88 225 33 227 c 1,6,-1
 33 319 l 1,7,8
 88 321 88 321 107 342 c 128,-1,9
 126 363 126 363 126 414 c 2,10,-1
 126 574 l 2,11,12
 126 646 126 646 157 677 c 128,-1,13
 188 708 188 708 269 708 c 2,14,-1
 327 708 l 1,15,-1
 327 619 l 1,16,-1
 283 619 l 2,17,18
 254 619 254 619 243 609.5 c 128,-1,19
 232 600 232 600 232 575 c 2,20,-1
 232 402 l 2,21,22
 232 346 232 346 213 317 c 128,-1,23
 194 288 194 288 150 276 c 1,24,-1
 150 270 l 1,25,26
 194 258 194 258 213 229 c 128,-1,27
 232 200 232 200 232 144 c 2,28,-1
 232 -29 l 2,29,30
 232 -54 232 -54 243 -63.5 c 128,-1,31
 254 -73 254 -73 283 -73 c 2,32,-1
 327 -73 l 1,33,-1
 327 -162 l 1,34,-1
 269 -162 l 2,35,0
 188 -162 188 -162 157 -131 c 128,-1,1
EndSplineSet
EndChar
StartChar: braceright
Encoding: 125 125 280
Width: 361
GlyphClass: 1
Flags: W
LayerCount: 2
Fore
SplineSet
34 -73 m 1,0,-1
 79 -73 l 2,1,2
 108 -73 108 -73 118.5 -64 c 128,-1,3
 129 -55 129 -55 129 -29 c 2,4,-1
 129 144 l 2,5,6
 129 201 129 201 148 229.5 c 128,-1,7
 167 258 167 258 212 270 c 1,8,-1
 212 276 l 1,9,10
 167 288 167 288 148 316.5 c 128,-1,11
 129 345 129 345 129 402 c 2,12,-1
 129 575 l 2,13,14
 129 601 129 601 118.5 610 c 128,-1,15
 108 619 108 619 79 619 c 2,16,-1
 34 619 l 1,17,-1
 34 708 l 1,18,-1
 92 708 l 2,19,20
 173 708 173 708 204 677 c 128,-1,21
 235 646 235 646 235 574 c 2,22,-1
 235 414 l 2,23,24
 235 363 235 363 254.5 342 c 128,-1,25
 274 321 274 321 329 319 c 1,26,-1
 329 227 l 1,27,28
 274 225 274 225 254.5 204 c 128,-1,29
 235 183 235 183 235 133 c 2,30,-1
 235 -28 l 2,31,32
 235 -100 235 -100 204 -131 c 128,-1,33
 173 -162 173 -162 92 -162 c 2,34,-1
 34 -162 l 1,35,-1
 34 -73 l 1,0,-1
EndSplineSet
EndChar
StartChar: asciitilde
Encoding: 126 126 333
Width: 547
GlyphClass: 1
Flags: W
LayerCount: 2
Fore
SplineSet
75.5 299.5 m 128,-1,1
 105 337 105 337 167 337 c 0,2,3
 195 337 195 337 220 328.5 c 128,-1,4
 245 320 245 320 282 303 c 0,5,6
 317 288 317 288 335 281.5 c 128,-1,7
 353 275 353 275 371 275 c 0,8,9
 398 275 398 275 411.5 293.5 c 128,-1,10
 425 312 425 312 425 353 c 1,11,-1
 508 328 l 1,12,13
 501 257 501 257 471 219 c 128,-1,14
 441 181 441 181 380 181 c 0,15,16
 352 181 352 181 326 190 c 128,-1,17
 300 199 300 199 265 216 c 0,18,19
 230 231 230 231 212 237.5 c 128,-1,20
 194 244 194 244 176 244 c 0,21,22
 149 244 149 244 135.5 225.5 c 128,-1,23
 122 207 122 207 122 165 c 1,24,-1
 40 191 l 1,25,0
 46 262 46 262 75.5 299.5 c 128,-1,1
EndSplineSet
EndChar
StartChar: exclamdown
Encoding: 161 161 264
Width: 294
GlyphClass: 1
Flags: W
LayerCount: 2
Fore
SplineSet
88 2 m 1,0,-1
 112 285 l 1,1,-1
 183 285 l 1,2,-1
 206 2 l 1,3,-1
 206 -170 l 1,4,-1
 88 -170 l 1,5,-1
 88 2 l 1,0,-1
92.5 378.5 m 128,-1,7
 70 401 70 401 70 433 c 256,8,9
 70 465 70 465 92.5 487.5 c 128,-1,10
 115 510 115 510 147 510 c 256,11,12
 179 510 179 510 201.5 487.5 c 128,-1,13
 224 465 224 465 224 433 c 256,14,15
 224 401 224 401 201.5 378.5 c 128,-1,16
 179 356 179 356 147 356 c 256,17,6
 115 356 115 356 92.5 378.5 c 128,-1,7
EndSplineSet
EndChar
StartChar: cent
Encoding: 162 162 311
Width: 497
GlyphClass: 1
Flags: W
LayerCount: 2
Fore
SplineSet
88 71 m 128,-1,1
 33 141 33 141 33 249 c 0,2,3
 33 351 33 351 89 421 c 128,-1,4
 145 491 145 491 239 504 c 1,5,-1
 239 586 l 1,6,-1
 298 586 l 1,7,-1
 298 505 l 1,8,9
 358 501 358 501 405.5 470 c 128,-1,10
 453 439 453 439 479 388 c 1,11,-1
 383 353 l 1,12,13
 370 379 370 379 348 394.5 c 128,-1,14
 326 410 326 410 298 414 c 1,15,-1
 298 80 l 1,16,17
 327 84 327 84 349.5 98.5 c 128,-1,18
 372 113 372 113 385 136 c 1,19,-1
 480 102 l 1,20,21
 453 53 453 53 404.5 23.5 c 128,-1,22
 356 -6 356 -6 298 -11 c 1,23,-1
 298 -90 l 1,24,-1
 239 -90 l 1,25,-1
 239 -10 l 1,26,0
 143 1 143 1 88 71 c 128,-1,1
173.5 355.5 m 128,-1,28
 148 315 148 315 148 249 c 0,29,30
 148 182 148 182 173.5 140.5 c 128,-1,31
 199 99 199 99 239 85 c 1,32,-1
 239 409 l 1,33,27
 199 396 199 396 173.5 355.5 c 128,-1,28
EndSplineSet
EndChar
StartChar: sterling
Encoding: 163 163 316
Width: 621
GlyphClass: 1
Flags: W
LayerCount: 2
Fore
SplineSet
162.5 136 m 128,-1,1
 200 175 200 175 200 235 c 0,2,3
 200 270 200 270 182 309 c 1,4,-1
 71 309 l 1,5,-1
 71 369 l 1,6,-1
 153 369 l 1,7,8
 132 409 132 409 121 441.5 c 128,-1,9
 110 474 110 474 110 508 c 0,10,11
 110 590 110 590 176 635 c 128,-1,12
 242 680 242 680 342 680 c 0,13,14
 427 680 427 680 486.5 642.5 c 128,-1,15
 546 605 546 605 569 539 c 1,16,-1
 467 505 l 1,17,18
 455 549 455 549 420.5 569.5 c 128,-1,19
 386 590 386 590 340 590 c 0,20,21
 289 590 289 590 257 566.5 c 128,-1,22
 225 543 225 543 225 501 c 0,23,24
 225 475 225 475 234.5 451 c 128,-1,25
 244 427 244 427 263 389 c 2,26,-1
 273 369 l 1,27,-1
 461 369 l 1,28,-1
 461 309 l 1,29,-1
 300 309 l 1,30,31
 314 277 314 277 314 244 c 0,32,33
 314 200 314 200 287 163.5 c 128,-1,34
 260 127 260 127 215 99 c 1,35,36
 246 114 246 114 284 114 c 0,37,38
 315 114 315 114 362 99 c 0,39,40
 381 93 381 93 402 88.5 c 128,-1,41
 423 84 423 84 442 84 c 0,42,43
 492 84 492 84 549 111 c 1,44,-1
 581 20 l 1,45,46
 511 -12 511 -12 443 -12 c 0,47,48
 418 -12 418 -12 395 -7 c 128,-1,49
 372 -2 372 -2 342 7 c 0,50,51
 310 16 310 16 289.5 20.5 c 128,-1,52
 269 25 269 25 246 25 c 0,53,54
 180 25 180 25 111 -12 c 1,55,-1
 73 73 l 1,56,0
 125 97 125 97 162.5 136 c 128,-1,1
EndSplineSet
EndChar
StartChar: currency
Encoding: 164 164 312
Width: 586
GlyphClass: 1
Flags: W
LayerCount: 2
Fore
SplineSet
53 123 m 1,0,-1
 119 190 l 1,1,2
 75 248 75 248 75 321 c 256,3,4
 75 394 75 394 119 452 c 1,5,-1
 53 519 l 1,6,-1
 95 561 l 1,7,-1
 161 494 l 1,8,9
 220 539 220 539 293 539 c 0,10,11
 367 539 367 539 425 494 c 1,12,-1
 491 561 l 1,13,-1
 533 519 l 1,14,-1
 467 452 l 1,15,16
 511 394 511 394 511 321 c 256,17,18
 511 248 511 248 467 190 c 1,19,-1
 533 123 l 1,20,-1
 491 81 l 1,21,-1
 425 148 l 1,22,23
 367 103 367 103 293 103 c 0,24,25
 220 103 220 103 161 148 c 1,26,-1
 95 81 l 1,27,-1
 53 123 l 1,0,-1
382 232.5 m 128,-1,29
 419 269 419 269 419 321 c 0,30,31
 419 355 419 355 402 384 c 128,-1,32
 385 413 385 413 356 430 c 128,-1,33
 327 447 327 447 293 447 c 256,34,35
 259 447 259 447 230 430 c 128,-1,36
 201 413 201 413 184 384 c 128,-1,37
 167 355 167 355 167 321 c 0,38,39
 167 269 167 269 204 232.5 c 128,-1,40
 241 196 241 196 293 196 c 256,41,28
 345 196 345 196 382 232.5 c 128,-1,29
EndSplineSet
EndChar
StartChar: yen
Encoding: 165 165 317
Width: 610
GlyphClass: 1
Flags: W
LayerCount: 2
Fore
SplineSet
246 82 m 1,0,-1
 104 82 l 1,1,-1
 104 142 l 1,2,-1
 246 142 l 1,3,-1
 246 219 l 1,4,-1
 104 219 l 1,5,-1
 104 279 l 1,6,-1
 235 279 l 1,7,-1
 0 668 l 1,8,-1
 133 668 l 1,9,-1
 305 370 l 1,10,-1
 476 668 l 1,11,-1
 610 668 l 1,12,-1
 375 279 l 1,13,-1
 506 279 l 1,14,-1
 506 219 l 1,15,-1
 364 219 l 1,16,-1
 364 142 l 1,17,-1
 506 142 l 1,18,-1
 506 82 l 1,19,-1
 364 82 l 1,20,-1
 364 0 l 1,21,-1
 246 0 l 1,22,-1
 246 82 l 1,0,-1
EndSplineSet
EndChar
StartChar: brokenbar
Encoding: 166 166 306
Width: 245
GlyphClass: 1
Flags: W
LayerCount: 2
Fore
SplineSet
70 233 m 1,0,-1
 175 233 l 1,1,-1
 175 -162 l 1,2,-1
 70 -162 l 1,3,-1
 70 233 l 1,0,-1
70 838 m 1,4,-1
 175 838 l 1,5,-1
 175 443 l 1,6,-1
 70 443 l 1,7,-1
 70 838 l 1,4,-1
EndSplineSet
EndChar
StartChar: section
Encoding: 167 167 300
Width: 540
GlyphClass: 1
Flags: W
LayerCount: 2
Fore
SplineSet
137 -138 m 128,-1,1
 85 -103 85 -103 64 -41 c 1,2,-1
 164 -8 l 1,3,4
 184 -85 184 -85 268 -85 c 0,5,6
 308 -85 308 -85 333 -67 c 128,-1,7
 358 -49 358 -49 358 -23 c 0,8,9
 358 1 358 1 337 19.5 c 128,-1,10
 316 38 316 38 268 64 c 2,11,-1
 165 116 l 2,12,13
 92 154 92 154 58.5 192 c 128,-1,14
 25 230 25 230 25 285 c 0,15,16
 25 327 25 327 50.5 359.5 c 128,-1,17
 76 392 76 392 125 419 c 1,18,19
 98 443 98 443 86 467.5 c 128,-1,20
 74 492 74 492 74 522 c 0,21,22
 74 569 74 569 101 605 c 128,-1,23
 128 641 128 641 174 660.5 c 128,-1,24
 220 680 220 680 276 680 c 0,25,26
 353 680 353 680 405 645.5 c 128,-1,27
 457 611 457 611 477 548 c 1,28,-1
 377 515 l 1,29,30
 357 593 357 593 274 593 c 0,31,32
 234 593 234 593 209 574.5 c 128,-1,33
 184 556 184 556 184 530 c 0,34,35
 184 506 184 506 205 487 c 128,-1,36
 226 468 226 468 273 443 c 2,37,-1
 377 391 l 2,38,39
 450 354 450 354 483 315.5 c 128,-1,40
 516 277 516 277 516 223 c 0,41,42
 516 143 516 143 417 88 c 1,43,44
 443 64 443 64 455 39 c 128,-1,45
 467 14 467 14 467 -15 c 0,46,47
 467 -61 467 -61 440.5 -97 c 128,-1,48
 414 -133 414 -133 367.5 -153 c 128,-1,49
 321 -173 321 -173 265 -173 c 0,50,0
 189 -173 189 -173 137 -138 c 128,-1,1
392.5 174.5 m 128,-1,52
 409 192 409 192 409 216 c 0,53,54
 409 241 409 241 388.5 260 c 128,-1,55
 368 279 368 279 325 302 c 2,56,-1
 199 367 l 1,57,58
 166 351 166 351 149.5 333.5 c 128,-1,59
 133 316 133 316 133 292 c 0,60,61
 133 266 133 266 153 247 c 128,-1,62
 173 228 173 228 216 205 c 2,63,-1
 343 141 l 1,64,51
 376 157 376 157 392.5 174.5 c 128,-1,52
EndSplineSet
EndChar
StartChar: copyright
Encoding: 169 169 301
Width: 798
GlyphClass: 1
Flags: W
LayerCount: 2
Fore
SplineSet
225 33.5 m 128,-1,1
 145 80 145 80 98.5 160 c 128,-1,2
 52 240 52 240 52 334 c 256,3,4
 52 428 52 428 98.5 508 c 128,-1,5
 145 588 145 588 225 634.5 c 128,-1,6
 305 681 305 681 399 681 c 256,7,8
 493 681 493 681 573 634.5 c 128,-1,9
 653 588 653 588 699.5 508 c 128,-1,10
 746 428 746 428 746 334 c 256,11,12
 746 240 746 240 699.5 160 c 128,-1,13
 653 80 653 80 573 33.5 c 128,-1,14
 493 -13 493 -13 399 -13 c 256,15,0
 305 -13 305 -13 225 33.5 c 128,-1,1
269 194.5 m 128,-1,17
 222 246 222 246 222 336 c 0,18,19
 222 424 222 424 271 475 c 128,-1,20
 320 526 320 526 402 526 c 0,21,22
 454 526 454 526 493.5 504 c 128,-1,23
 533 482 533 482 554 440 c 1,24,-1
 478 411 l 1,25,26
 457 456 457 456 403 456 c 0,27,28
 363 456 363 456 338 426.5 c 128,-1,29
 313 397 313 397 313 336 c 0,30,31
 313 274 313 274 338 244 c 128,-1,32
 363 214 363 214 403 214 c 0,33,34
 458 214 458 214 480 253 c 1,35,-1
 555 225 l 1,36,37
 532 186 532 186 492 164.5 c 128,-1,38
 452 143 452 143 401 143 c 0,39,16
 316 143 316 143 269 194.5 c 128,-1,17
540.5 90 m 128,-1,41
 605 128 605 128 643 192.5 c 128,-1,42
 681 257 681 257 681 334 c 256,43,44
 681 411 681 411 643 476 c 128,-1,45
 605 541 605 541 540.5 578.5 c 128,-1,46
 476 616 476 616 399 616 c 256,47,48
 322 616 322 616 257.5 578.5 c 128,-1,49
 193 541 193 541 155 476 c 128,-1,50
 117 411 117 411 117 334 c 256,51,52
 117 257 117 257 155 192.5 c 128,-1,53
 193 128 193 128 257.5 90 c 128,-1,54
 322 52 322 52 399 52 c 256,55,40
 476 52 476 52 540.5 90 c 128,-1,41
EndSplineSet
EndChar
StartChar: ordfeminine
Encoding: 170 170 223
Width: 380
GlyphClass: 1
Flags: W
LayerCount: 2
Fore
SplineSet
80.5 417.5 m 128,-1,1
 53 441 53 441 53 477 c 0,2,3
 53 515 53 515 78.5 536 c 128,-1,4
 104 557 104 557 142 565.5 c 128,-1,5
 180 574 180 574 239 580 c 1,6,7
 239 605 239 605 229.5 618.5 c 128,-1,8
 220 632 220 632 191 632 c 0,9,10
 171 632 171 632 157.5 624.5 c 128,-1,11
 144 617 144 617 140 602 c 1,12,-1
 70 625 l 1,13,14
 82 655 82 655 115 671.5 c 128,-1,15
 148 688 148 688 197 688 c 0,16,17
 254 688 254 688 286 661.5 c 128,-1,18
 318 635 318 635 318 573 c 2,19,-1
 318 499 l 2,20,21
 318 451 318 451 327 400 c 1,22,-1
 259 400 l 1,23,-1
 248 437 l 1,24,25
 237 416 237 416 212 405 c 128,-1,26
 187 394 187 394 155 394 c 0,27,0
 108 394 108 394 80.5 417.5 c 128,-1,1
223.5 469.5 m 128,-1,29
 239 486 239 486 239 513 c 2,30,-1
 239 526 l 1,31,32
 181 522 181 522 158.5 512.5 c 128,-1,33
 136 503 136 503 136 484 c 0,34,35
 136 470 136 470 147 461.5 c 128,-1,36
 158 453 158 453 179 453 c 0,37,28
 208 453 208 453 223.5 469.5 c 128,-1,29
EndSplineSet
EndChar
StartChar: logicalnot
Encoding: 172 172 332
Width: 608
GlyphClass: 1
Flags: W
LayerCount: 2
Fore
SplineSet
456 309 m 1,0,-1
 53 309 l 1,1,-1
 53 406 l 1,2,-1
 555 406 l 1,3,-1
 555 77 l 1,4,-1
 456 77 l 1,5,-1
 456 309 l 1,0,-1
EndSplineSet
EndChar
StartChar: registered
Encoding: 174 174 302
Width: 798
GlyphClass: 1
Flags: W
LayerCount: 2
Fore
SplineSet
225 33.5 m 128,-1,1
 145 80 145 80 98.5 160 c 128,-1,2
 52 240 52 240 52 334 c 256,3,4
 52 428 52 428 98.5 508 c 128,-1,5
 145 588 145 588 225 634.5 c 128,-1,6
 305 681 305 681 399 681 c 256,7,8
 493 681 493 681 573 634.5 c 128,-1,9
 653 588 653 588 699.5 508 c 128,-1,10
 746 428 746 428 746 334 c 256,11,12
 746 240 746 240 699.5 160 c 128,-1,13
 653 80 653 80 573 33.5 c 128,-1,14
 493 -13 493 -13 399 -13 c 256,15,0
 305 -13 305 -13 225 33.5 c 128,-1,1
540.5 90 m 128,-1,17
 605 128 605 128 643 192.5 c 128,-1,18
 681 257 681 257 681 334 c 256,19,20
 681 411 681 411 643 476 c 128,-1,21
 605 541 605 541 540.5 578.5 c 128,-1,22
 476 616 476 616 399 616 c 256,23,24
 322 616 322 616 257.5 578.5 c 128,-1,25
 193 541 193 541 155 476 c 128,-1,26
 117 411 117 411 117 334 c 256,27,28
 117 257 117 257 155 192.5 c 128,-1,29
 193 128 193 128 257.5 90 c 128,-1,30
 322 52 322 52 399 52 c 256,31,16
 476 52 476 52 540.5 90 c 128,-1,17
256 529 m 1,32,-1
 396 529 l 2,33,34
 472 529 472 529 513 503 c 128,-1,35
 554 477 554 477 554 414 c 0,36,37
 554 374 554 374 530.5 347.5 c 128,-1,38
 507 321 507 321 466 310 c 1,39,-1
 574 162 l 1,40,-1
 480 162 l 1,41,-1
 378 300 l 1,42,-1
 340 300 l 1,43,-1
 340 162 l 1,44,-1
 256 162 l 1,45,-1
 256 529 l 1,32,-1
451.5 376 m 128,-1,47
 469 388 469 388 469 413 c 0,48,49
 469 441 469 441 450 451.5 c 128,-1,50
 431 462 431 462 393 462 c 2,51,-1
 340 462 l 1,52,-1
 340 364 l 1,53,-1
 396 364 l 2,54,46
 434 364 434 364 451.5 376 c 128,-1,47
EndSplineSet
EndChar
StartChar: degree
Encoding: 176 176 304
Width: 372
GlyphClass: 1
Flags: W
LayerCount: 2
Fore
SplineSet
113.5 408 m 128,-1,1
 80 428 80 428 60 461.5 c 128,-1,2
 40 495 40 495 40 534 c 0,3,4
 40 574 40 574 59.5 607.5 c 128,-1,5
 79 641 79 641 113 660.5 c 128,-1,6
 147 680 147 680 186 680 c 256,7,8
 225 680 225 680 259 660.5 c 128,-1,9
 293 641 293 641 312.5 607.5 c 128,-1,10
 332 574 332 574 332 534 c 0,11,12
 332 495 332 495 312 461.5 c 128,-1,13
 292 428 292 428 258.5 408 c 128,-1,14
 225 388 225 388 186 388 c 256,15,0
 147 388 147 388 113.5 408 c 128,-1,1
238 482.5 m 128,-1,17
 259 504 259 504 259 534 c 0,18,19
 259 565 259 565 238 586 c 128,-1,20
 217 607 217 607 186 607 c 0,21,22
 156 607 156 607 134.5 586 c 128,-1,23
 113 565 113 565 113 534 c 0,24,25
 113 504 113 504 134.5 482.5 c 128,-1,26
 156 461 156 461 186 461 c 0,27,16
 217 461 217 461 238 482.5 c 128,-1,17
EndSplineSet
EndChar
StartChar: plusminus
Encoding: 177 177 330
Width: 594
GlyphClass: 1
Flags: W
LayerCount: 2
Fore
SplineSet
248 275 m 1,0,-1
 53 275 l 1,1,-1
 53 365 l 1,2,-1
 248 365 l 1,3,-1
 248 496 l 1,4,-1
 346 496 l 1,5,-1
 346 365 l 1,6,-1
 541 365 l 1,7,-1
 541 275 l 1,8,-1
 346 275 l 1,9,-1
 346 145 l 1,10,-1
 248 145 l 1,11,-1
 248 275 l 1,0,-1
53 97 m 1,12,-1
 541 97 l 1,13,-1
 541 0 l 1,14,-1
 53 0 l 1,15,-1
 53 97 l 1,12,-1
EndSplineSet
EndChar
StartChar: uni00B2
Encoding: 178 178 254
Width: 391
GlyphClass: 1
Flags: W
LayerCount: 2
Fore
SplineSet
202.5 591 m 128,-1,1
 250 638 250 638 250 679 c 0,2,3
 250 702 250 702 236 714 c 128,-1,4
 222 726 222 726 199 726 c 0,5,6
 175 726 175 726 159 713 c 128,-1,7
 143 700 143 700 139 673 c 1,8,-1
 65 697 l 1,9,10
 77 739 77 739 113 762.5 c 128,-1,11
 149 786 149 786 202 786 c 0,12,13
 260 786 260 786 296.5 759 c 128,-1,14
 333 732 333 732 333 683 c 0,15,16
 333 631 333 631 289.5 581.5 c 128,-1,17
 246 532 246 532 157 472 c 1,18,-1
 338 472 l 1,19,-1
 338 403 l 1,20,-1
 53 403 l 1,21,-1
 53 468 l 1,22,0
 155 544 155 544 202.5 591 c 128,-1,1
EndSplineSet
EndChar
StartChar: uni00B3
Encoding: 179 179 255
Width: 394
GlyphClass: 1
Flags: W
LayerCount: 2
Fore
SplineSet
105.5 419 m 128,-1,1
 69 442 69 442 53 483 c 1,2,-1
 126 506 l 1,3,4
 143 457 143 457 197 457 c 0,5,6
 223 457 223 457 241 472.5 c 128,-1,7
 259 488 259 488 259 511 c 0,8,9
 259 569 259 569 157 565 c 1,10,-1
 157 630 l 1,11,12
 205 629 205 629 227.5 641 c 128,-1,13
 250 653 250 653 250 680 c 0,14,15
 250 703 250 703 234 714.5 c 128,-1,16
 218 726 218 726 194 726 c 0,17,18
 144 726 144 726 130 680 c 1,19,-1
 58 704 l 1,20,21
 72 743 72 743 109 764.5 c 128,-1,22
 146 786 146 786 198 786 c 0,23,24
 254 786 254 786 293 759.5 c 128,-1,25
 332 733 332 733 332 685 c 0,26,27
 332 658 332 658 317.5 636 c 128,-1,28
 303 614 303 614 280 602 c 1,29,30
 309 591 309 591 325 566.5 c 128,-1,31
 341 542 341 542 341 511 c 0,32,33
 341 458 341 458 300 427 c 128,-1,34
 259 396 259 396 198 396 c 0,35,0
 142 396 142 396 105.5 419 c 128,-1,1
EndSplineSet
EndChar
StartChar: paragraph
Encoding: 182 182 299
Width: 515
GlyphClass: 1
Flags: W
LayerCount: 2
Fore
SplineSet
74.5 360.5 m 128,-1,1
 33 412 33 412 33 479 c 0,2,3
 33 530 33 530 58.5 573.5 c 128,-1,4
 84 617 84 617 127.5 642.5 c 128,-1,5
 171 668 171 668 222 668 c 2,6,-1
 488 668 l 1,7,-1
 488 601 l 1,8,-1
 445 601 l 1,9,-1
 445 -162 l 1,10,-1
 359 -162 l 1,11,-1
 359 601 l 1,12,-1
 266 601 l 1,13,-1
 266 -162 l 1,14,-1
 179 -162 l 1,15,-1
 179 295 l 1,16,0
 116 309 116 309 74.5 360.5 c 128,-1,1
EndSplineSet
EndChar
StartChar: uni00B9
Encoding: 185 185 253
Width: 269
GlyphClass: 1
Flags: W
LayerCount: 2
Fore
SplineSet
136 670 m 1,0,-1
 53 670 l 1,1,-1
 53 732 l 1,2,3
 94 731 94 731 118.5 742 c 128,-1,4
 143 753 143 753 152 779 c 1,5,-1
 216 779 l 1,6,-1
 216 403 l 1,7,-1
 136 403 l 1,8,-1
 136 670 l 1,0,-1
EndSplineSet
EndChar
StartChar: ordmasculine
Encoding: 186 186 224
Width: 391
GlyphClass: 1
Flags: W
LayerCount: 2
Fore
SplineSet
93 432 m 128,-1,1
 52 470 52 470 52 541 c 256,2,3
 52 612 52 612 93 650 c 128,-1,4
 134 688 134 688 195 688 c 256,5,6
 256 688 256 688 297.5 650 c 128,-1,7
 339 612 339 612 339 541 c 256,8,9
 339 470 339 470 297.5 432 c 128,-1,10
 256 394 256 394 195 394 c 256,11,0
 134 394 134 394 93 432 c 128,-1,1
239.5 479 m 128,-1,13
 257 501 257 501 257 541 c 256,14,15
 257 581 257 581 239.5 603 c 128,-1,16
 222 625 222 625 195 625 c 256,17,18
 168 625 168 625 151 603 c 128,-1,19
 134 581 134 581 134 541 c 256,20,21
 134 501 134 501 151 479 c 128,-1,22
 168 457 168 457 195 457 c 256,23,12
 222 457 222 457 239.5 479 c 128,-1,13
EndSplineSet
EndChar
StartChar: onequarter
Encoding: 188 188 251
Width: 830
GlyphClass: 3
Flags: W
LayerCount: 2
Fore
SplineSet
581 668 m 1,0,-1
 684 668 l 1,1,-1
 216 0 l 1,2,-1
 113 0 l 1,3,-1
 581 668 l 1,0,-1
136 558 m 1,4,-1
 53 558 l 1,5,-1
 53 621 l 1,6,7
 94 621 94 621 118.5 631 c 128,-1,8
 143 641 143 641 152 668 c 1,9,-1
 217 668 l 1,10,-1
 217 293 l 1,11,-1
 136 293 l 1,12,-1
 136 558 l 1,4,-1
634 150 m 1,13,-1
 634 276 l 1,14,-1
 535 150 l 1,15,-1
 634 150 l 1,13,-1
634 82 m 1,16,-1
 451 82 l 1,17,-1
 451 145 l 1,18,-1
 635 375 l 1,19,-1
 715 375 l 1,20,-1
 715 150 l 1,21,-1
 777 150 l 1,22,-1
 777 82 l 1,23,-1
 715 82 l 1,24,-1
 715 0 l 1,25,-1
 634 0 l 1,26,-1
 634 82 l 1,16,-1
EndSplineSet
Ligature2: "'frac' Diagonal Fractions in Latin lookup 7 subtable" one slash four
EndChar
StartChar: onehalf
Encoding: 189 189 250
Width: 835
GlyphClass: 3
Flags: W
LayerCount: 2
Fore
SplineSet
581 668 m 1,0,-1
 684 668 l 1,1,-1
 216 0 l 1,2,-1
 113 0 l 1,3,-1
 581 668 l 1,0,-1
136 558 m 1,4,-1
 53 558 l 1,5,-1
 53 621 l 1,6,7
 94 621 94 621 118.5 631 c 128,-1,8
 143 641 143 641 152 668 c 1,9,-1
 217 668 l 1,10,-1
 217 293 l 1,11,-1
 136 293 l 1,12,-1
 136 558 l 1,4,-1
609.5 153.5 m 128,-1,14
 648 186 648 186 671.5 216 c 128,-1,15
 695 246 695 246 695 274 c 0,16,17
 695 297 695 297 680.5 310 c 128,-1,18
 666 323 666 323 643 323 c 0,19,20
 619 323 619 323 602.5 309.5 c 128,-1,21
 586 296 586 296 582 270 c 1,22,-1
 508 294 l 1,23,24
 521 336 521 336 557 359 c 128,-1,25
 593 382 593 382 646 382 c 0,26,27
 703 382 703 382 740 355 c 128,-1,28
 777 328 777 328 777 280 c 0,29,30
 777 227 777 227 733.5 178.5 c 128,-1,31
 690 130 690 130 601 69 c 1,32,-1
 782 69 l 1,33,-1
 782 0 l 1,34,-1
 497 0 l 1,35,-1
 497 64 l 1,36,13
 571 121 571 121 609.5 153.5 c 128,-1,14
EndSplineSet
Ligature2: "'frac' Diagonal Fractions in Latin lookup 7 subtable" one slash two
EndChar
StartChar: threequarters
Encoding: 190 190 252
Width: 892
GlyphClass: 3
Flags: W
LayerCount: 2
Fore
SplineSet
643 668 m 1,0,-1
 746 668 l 1,1,-1
 278 0 l 1,2,-1
 176 0 l 1,3,-1
 643 668 l 1,0,-1
105 313 m 128,-1,5
 69 336 69 336 53 376 c 1,6,-1
 126 400 l 1,7,8
 143 350 143 350 194 350 c 0,9,10
 223 350 223 350 241 364.5 c 128,-1,11
 259 379 259 379 259 403 c 0,12,13
 259 434 259 434 234.5 447 c 128,-1,14
 210 460 210 460 157 458 c 1,15,-1
 157 522 l 1,16,17
 207 521 207 521 228.5 534 c 128,-1,18
 250 547 250 547 250 573 c 0,19,20
 250 595 250 595 233.5 607 c 128,-1,21
 217 619 217 619 194 619 c 0,22,23
 170 619 170 619 153.5 607 c 128,-1,24
 137 595 137 595 130 573 c 1,25,-1
 58 596 l 1,26,27
 72 635 72 635 109 657 c 128,-1,28
 146 679 146 679 199 679 c 0,29,30
 255 679 255 679 293.5 652.5 c 128,-1,31
 332 626 332 626 332 577 c 0,32,33
 332 550 332 550 317.5 528 c 128,-1,34
 303 506 303 506 280 494 c 1,35,36
 309 484 309 484 325 459.5 c 128,-1,37
 341 435 341 435 341 404 c 0,38,39
 341 350 341 350 298.5 320 c 128,-1,40
 256 290 256 290 193 290 c 0,41,4
 141 290 141 290 105 313 c 128,-1,5
696 82 m 1,42,-1
 513 82 l 1,43,-1
 513 145 l 1,44,-1
 697 375 l 1,45,-1
 776 375 l 1,46,-1
 776 150 l 1,47,-1
 839 150 l 1,48,-1
 839 82 l 1,49,-1
 776 82 l 1,50,-1
 776 0 l 1,51,-1
 696 0 l 1,52,-1
 696 82 l 1,42,-1
696 150 m 1,53,-1
 696 276 l 1,54,-1
 597 150 l 1,55,-1
 696 150 l 1,53,-1
EndSplineSet
Ligature2: "'frac' Diagonal Fractions in Latin lookup 7 subtable" three slash four
EndChar
StartChar: questiondown
Encoding: 191 191 266
Width: 485
GlyphClass: 1
Flags: W
LayerCount: 2
Fore
SplineSet
135 -163.5 m 128,-1,1
 83 -145 83 -145 51.5 -107 c 128,-1,2
 20 -69 20 -69 20 -15 c 0,3,4
 20 44 20 44 52 86.5 c 128,-1,5
 84 129 84 129 145 164 c 0,6,7
 195 192 195 192 212.5 212.5 c 128,-1,8
 230 233 230 233 230 265 c 2,9,-1
 230 292 l 1,10,-1
 342 292 l 1,11,-1
 342 263 l 2,12,13
 342 207 342 207 317.5 171.5 c 128,-1,14
 293 136 293 136 224 97 c 0,15,16
 177 71 177 71 155.5 47.5 c 128,-1,17
 134 24 134 24 134 -7 c 0,18,19
 134 -46 134 -46 166 -69 c 128,-1,20
 198 -92 198 -92 251 -92 c 0,21,22
 306 -92 306 -92 339.5 -65.5 c 128,-1,23
 373 -39 373 -39 383 3 c 1,24,-1
 485 -30 l 1,25,26
 466 -101 466 -101 401.5 -141.5 c 128,-1,27
 337 -182 337 -182 246 -182 c 0,28,0
 187 -182 187 -182 135 -163.5 c 128,-1,1
231.5 378.5 m 128,-1,30
 209 401 209 401 209 433 c 256,31,32
 209 465 209 465 231.5 487.5 c 128,-1,33
 254 510 254 510 286 510 c 256,34,35
 318 510 318 510 340.5 487.5 c 128,-1,36
 363 465 363 465 363 433 c 256,37,38
 363 401 363 401 340.5 378.5 c 128,-1,39
 318 356 318 356 286 356 c 256,40,29
 254 356 254 356 231.5 378.5 c 128,-1,30
EndSplineSet
EndChar
StartChar: Aring
Encoding: 197 197 10
Width: 650
GlyphClass: 2
Flags: W
AnchorPoint: "Anchor-2" 642 10 basechar 0
AnchorPoint: "Anchor-1" 325 847 basechar 0
AnchorPoint: "Anchor-0" 325 0 basechar 0
LayerCount: 2
Fore
SplineSet
218.5 679.5 m 128,-1,1
 207 703 207 703 207 729 c 0,2,3
 207 777 207 777 241.5 812 c 128,-1,4
 276 847 276 847 325 847 c 256,5,6
 374 847 374 847 408.5 812 c 128,-1,7
 443 777 443 777 443 729 c 0,8,9
 443 703 443 703 432 679.5 c 128,-1,10
 421 656 421 656 401 640 c 1,11,-1
 642 0 l 1,12,-1
 515 0 l 1,13,-1
 467 136 l 1,14,-1
 183 136 l 1,15,-1
 135 0 l 1,16,-1
 8 0 l 1,17,-1
 249 640 l 1,18,0
 230 656 230 656 218.5 679.5 c 128,-1,1
434 235 m 1,19,-1
 325 546 l 1,20,-1
 216 235 l 1,21,-1
 434 235 l 1,19,-1
361 694 m 128,-1,23
 375 708 375 708 375 729 c 256,24,25
 375 750 375 750 361 764.5 c 128,-1,26
 347 779 347 779 325 779 c 0,27,28
 304 779 304 779 289.5 764.5 c 128,-1,29
 275 750 275 750 275 729 c 256,30,31
 275 708 275 708 289.5 694 c 128,-1,32
 304 680 304 680 325 680 c 0,33,22
 347 680 347 680 361 694 c 128,-1,23
EndSplineSet
EndChar
StartChar: AE
Encoding: 198 198 12
Width: 926
GlyphClass: 2
Flags: W
AnchorPoint: "Anchor-1" 492 668 basechar 0
AnchorPoint: "Anchor-0" 492 0 basechar 0
LayerCount: 2
Fore
SplineSet
376 668 m 1,0,-1
 889 668 l 1,1,-1
 889 565 l 1,2,-1
 561 565 l 1,3,-1
 561 395 l 1,4,-1
 778 395 l 1,5,-1
 778 292 l 1,6,-1
 561 292 l 1,7,-1
 561 103 l 1,8,-1
 889 103 l 1,9,-1
 889 0 l 1,10,-1
 443 0 l 1,11,-1
 443 136 l 1,12,-1
 204 136 l 1,13,-1
 130 0 l 1,14,-1
 0 0 l 1,15,-1
 376 668 l 1,0,-1
443 235 m 1,16,-1
 443 574 l 1,17,-1
 258 235 l 1,18,-1
 443 235 l 1,16,-1
EndSplineSet
EndChar
StartChar: Ccedilla
Encoding: 199 199 17
Width: 651
GlyphClass: 2
Flags: W
AnchorPoint: "Anchor-1" 357 668 basechar 0
LayerCount: 2
Fore
SplineSet
259 -167 m 1,1,-1
 274 -126 l 1,2,3
 302 -140 302 -140 333 -140 c 0,4,5
 357 -140 357 -140 369.5 -131.5 c 128,-1,6
 382 -123 382 -123 382 -109 c 0,7,8
 382 -96 382 -96 372.5 -88.5 c 128,-1,9
 363 -81 363 -81 345 -81 c 0,10,11
 329 -81 329 -81 314 -85 c 0,12,13
 303 -89 303 -89 295 -83 c 128,-1,14
 287 -77 287 -77 287 -68 c 0,15,16
 287 -63 287 -63 290 -58 c 2,17,-1
 320 -11 l 1,18,19
 233 -3 233 -3 169.5 42 c 128,-1,20
 106 87 106 87 72.5 162.5 c 128,-1,21
 39 238 39 238 39 335 c 0,22,23
 39 439 39 439 78.5 517 c 128,-1,24
 118 595 118 595 190.5 637.5 c 128,-1,25
 263 680 263 680 360 680 c 0,26,27
 447 680 447 680 516 640 c 128,-1,28
 585 600 585 600 621 528 c 1,29,-1
 517 490 l 1,30,31
 494 533 494 533 452 557.5 c 128,-1,32
 410 582 410 582 355 582 c 256,33,34
 300 582 300 582 256 553 c 128,-1,35
 212 524 212 524 186.5 468 c 128,-1,36
 161 412 161 412 161 335 c 256,37,38
 161 258 161 258 186 201.5 c 128,-1,39
 211 145 211 145 256 115.5 c 128,-1,40
 301 86 301 86 358 86 c 0,41,42
 413 86 413 86 455.5 109.5 c 128,-1,43
 498 133 498 133 521 178 c 1,44,-1
 625 140 l 1,45,46
 589 71 589 71 522 31.5 c 128,-1,47
 455 -8 455 -8 369 -12 c 1,48,-1
 348 -46 l 1,49,50
 370 -42 370 -42 380 -42 c 0,51,52
 412 -42 412 -42 433.5 -59.5 c 128,-1,53
 455 -77 455 -77 455 -105 c 0,54,55
 455 -140 455 -140 425 -162 c 128,-1,56
 395 -184 395 -184 347 -184 c 0,57,0
 303 -184 303 -184 259 -167 c 1,1,-1
EndSplineSet
EndChar
StartChar: multiply
Encoding: 215 215 322
Width: 534
GlyphClass: 1
Flags: W
LayerCount: 2
Fore
SplineSet
51 103 m 1,0,-1
 198 249 l 1,1,-1
 49 397 l 1,2,-1
 119 467 l 1,3,-1
 267 319 l 1,4,-1
 415 467 l 1,5,-1
 485 397 l 1,6,-1
 337 249 l 1,7,-1
 483 103 l 1,8,-1
 414 33 l 1,9,-1
 267 180 l 1,10,-1
 120 33 l 1,11,-1
 51 103 l 1,0,-1
EndSplineSet
EndChar
StartChar: Oslash
Encoding: 216 216 68
Width: 729
GlyphClass: 2
Flags: W
AnchorPoint: "Anchor-3" 714 668 basechar 0
AnchorPoint: "Anchor-1" 365 668 basechar 0
AnchorPoint: "Anchor-0" 365 0 basechar 0
LayerCount: 2
Fore
SplineSet
163 53 m 1,1,-1
 111 -8 l 1,2,-1
 66 30 l 1,3,-1
 120 94 l 1,4,5
 81 139 81 139 60 200.5 c 128,-1,6
 39 262 39 262 39 334 c 0,7,8
 39 435 39 435 79.5 513.5 c 128,-1,9
 120 592 120 592 194 636 c 128,-1,10
 268 680 268 680 365 680 c 0,11,12
 481 680 481 680 567 615 c 1,13,-1
 618 675 l 1,14,-1
 663 637 l 1,15,-1
 609 575 l 1,16,17
 648 529 648 529 669 467.5 c 128,-1,18
 690 406 690 406 690 334 c 0,19,20
 690 233 690 233 649.5 154.5 c 128,-1,21
 609 76 609 76 535.5 32 c 128,-1,22
 462 -12 462 -12 365 -12 c 0,23,0
 247 -12 247 -12 163 53 c 1,1,-1
468 115 m 128,-1,25
 514 144 514 144 540.5 200 c 128,-1,26
 567 256 567 256 567 334 c 0,27,28
 567 426 567 426 532 484 c 1,29,-1
 234 137 l 1,30,31
 288 86 288 86 365 86 c 0,32,24
 422 86 422 86 468 115 c 128,-1,25
197 183 m 1,34,-1
 495 532 l 1,35,36
 440 582 440 582 365 582 c 0,37,38
 308 582 308 582 262 553 c 128,-1,39
 216 524 216 524 189 468 c 128,-1,40
 162 412 162 412 162 334 c 0,41,33
 162 247 162 247 197 183 c 1,34,-1
EndSplineSet
EndChar
StartChar: Thorn
Encoding: 222 222 72
Width: 609
GlyphClass: 2
Flags: W
AnchorPoint: "Anchor-1" 303 668 basechar 0
AnchorPoint: "Anchor-0" 303 0 basechar 0
LayerCount: 2
Fore
SplineSet
70 668 m 1,0,-1
 188 668 l 1,1,-1
 188 548 l 1,2,-1
 333 548 l 2,3,4
 447 548 447 548 516 496 c 128,-1,5
 585 444 585 444 585 340 c 0,6,7
 585 237 585 237 515.5 185 c 128,-1,8
 446 133 446 133 333 133 c 2,9,-1
 188 133 l 1,10,-1
 188 0 l 1,11,-1
 70 0 l 1,12,-1
 70 668 l 1,0,-1
462 340 m 0,14,15
 462 447 462 447 329 447 c 2,16,-1
 188 447 l 1,17,-1
 188 234 l 1,18,-1
 329 234 l 2,19,13
 462 234 462 234 462 340 c 0,14,15
EndSplineSet
EndChar
StartChar: germandbls
Encoding: 223 223 193
Width: 600
GlyphClass: 1
Flags: W
LayerCount: 2
Fore
SplineSet
308 82 m 0,1,2
 373 82 373 82 415 113 c 128,-1,3
 457 144 457 144 457 209 c 0,4,5
 457 276 457 276 406 314.5 c 128,-1,6
 355 353 355 353 275 353 c 2,7,-1
 263 353 l 1,8,-1
 263 443 l 1,9,10
 324 442 324 442 354 463.5 c 128,-1,11
 384 485 384 485 384 522 c 0,12,13
 384 555 384 555 359.5 575 c 128,-1,14
 335 595 335 595 290 595 c 0,15,16
 235 595 235 595 207.5 563 c 128,-1,17
 180 531 180 531 180 464 c 2,18,-1
 180 0 l 1,19,-1
 70 0 l 1,20,-1
 70 469 l 2,21,22
 70 680 70 680 289 680 c 0,23,24
 374 680 374 680 429.5 637.5 c 128,-1,25
 485 595 485 595 485 525 c 0,26,27
 485 485 485 485 465 454 c 128,-1,28
 445 423 445 423 411 407 c 1,29,30
 483 391 483 391 527.5 337 c 128,-1,31
 572 283 572 283 572 205 c 0,32,33
 572 96 572 96 503 42 c 128,-1,34
 434 -12 434 -12 327 -12 c 0,35,36
 299 -12 299 -12 285 -10 c 1,37,-1
 256 87 l 1,38,0
 283 82 283 82 308 82 c 0,1,2
EndSplineSet
EndChar
StartChar: ae
Encoding: 230 230 122
Width: 872
GlyphClass: 2
Flags: W
AnchorPoint: "Anchor-1" 439 496 basechar 0
AnchorPoint: "Anchor-0" 439 0 basechar 0
LayerCount: 2
Fore
SplineSet
81 27 m 128,-1,1
 28 66 28 66 28 132 c 0,2,3
 28 214 28 214 115.5 254.5 c 128,-1,4
 203 295 203 295 367 295 c 1,5,-1
 367 322 l 2,6,7
 367 372 367 372 341 399 c 128,-1,8
 315 426 315 426 263 426 c 0,9,10
 223 426 223 426 196 408 c 128,-1,11
 169 390 169 390 161 356 c 1,12,-1
 63 388 l 1,13,14
 84 442 84 442 138 474 c 128,-1,15
 192 506 192 506 265 506 c 0,16,17
 387 506 387 506 433 432 c 1,18,19
 465 467 465 467 509.5 486.5 c 128,-1,20
 554 506 554 506 605 506 c 0,21,22
 683 506 683 506 739 467 c 128,-1,23
 795 428 795 428 822.5 362.5 c 128,-1,24
 850 297 850 297 845 219 c 1,25,-1
 469 219 l 1,26,27
 477 143 477 143 516.5 111 c 128,-1,28
 556 79 556 79 608 79 c 0,29,30
 683 79 683 79 717 123 c 1,31,-1
 813 92 l 1,32,33
 781 43 781 43 728 15.5 c 128,-1,34
 675 -12 675 -12 609 -12 c 256,35,36
 543 -12 543 -12 493 13 c 128,-1,37
 443 38 443 38 412 84 c 1,38,39
 383 35 383 35 331.5 11.5 c 128,-1,40
 280 -12 280 -12 212 -12 c 0,41,0
 134 -12 134 -12 81 27 c 128,-1,1
367 211 m 2,43,-1
 367 220 l 1,44,45
 255 220 255 220 200 200 c 128,-1,46
 145 180 145 180 145 138 c 0,47,48
 145 107 145 107 169 88 c 128,-1,49
 193 69 193 69 236 69 c 0,50,42
 367 69 367 69 367 211 c 2,43,-1
699 383 m 128,-1,52
 663 419 663 419 607 419 c 0,53,54
 554 419 554 419 517 389.5 c 128,-1,55
 480 360 480 360 470 295 c 1,56,-1
 737 295 l 1,57,51
 735 347 735 347 699 383 c 128,-1,52
EndSplineSet
EndChar
StartChar: ccedilla
Encoding: 231 231 127
Width: 497
GlyphClass: 2
Flags: W
AnchorPoint: "Anchor-1" 280 496 basechar 0
LayerCount: 2
Fore
SplineSet
178 -167 m 1,1,-1
 193 -126 l 1,2,3
 221 -140 221 -140 252 -140 c 0,4,5
 276 -140 276 -140 288.5 -131.5 c 128,-1,6
 301 -123 301 -123 301 -109 c 0,7,8
 301 -96 301 -96 291.5 -88.5 c 128,-1,9
 282 -81 282 -81 264 -81 c 0,10,11
 248 -81 248 -81 233 -85 c 0,12,13
 222 -89 222 -89 214 -83 c 128,-1,14
 206 -77 206 -77 206 -68 c 0,15,16
 206 -63 206 -63 209 -58 c 2,17,-1
 239 -10 l 1,18,19
 143 1 143 1 88 71 c 128,-1,20
 33 141 33 141 33 248 c 0,21,22
 33 323 33 323 63.5 381.5 c 128,-1,23
 94 440 94 440 149.5 473 c 128,-1,24
 205 506 205 506 278 506 c 0,25,26
 344 506 344 506 397.5 474.5 c 128,-1,27
 451 443 451 443 479 388 c 1,28,-1
 383 353 l 1,29,30
 369 383 369 383 341 399.5 c 128,-1,31
 313 416 313 416 278 416 c 0,32,33
 223 416 223 416 185.5 373.5 c 128,-1,34
 148 331 148 331 148 248 c 256,35,36
 148 165 148 165 185.5 122 c 128,-1,37
 223 79 223 79 278 79 c 0,38,39
 314 79 314 79 341.5 95 c 128,-1,40
 369 111 369 111 385 137 c 1,41,-1
 480 102 l 1,42,43
 451 51 451 51 399.5 21.5 c 128,-1,44
 348 -8 348 -8 288 -12 c 1,45,-1
 267 -46 l 1,46,47
 287 -42 287 -42 299 -42 c 0,48,49
 331 -42 331 -42 352.5 -59.5 c 128,-1,50
 374 -77 374 -77 374 -105 c 0,51,52
 374 -140 374 -140 344 -162 c 128,-1,53
 314 -184 314 -184 266 -184 c 0,54,0
 221 -184 221 -184 178 -167 c 1,1,-1
EndSplineSet
EndChar
StartChar: eth
Encoding: 240 240 132
Width: 576
GlyphClass: 2
Flags: W
AnchorPoint: "Anchor-1" 288 796 basechar 0
AnchorPoint: "Anchor-0" 288 0 basechar 0
LayerCount: 2
Fore
SplineSet
150.5 18 m 128,-1,1
 95 48 95 48 64 101 c 128,-1,2
 33 154 33 154 33 219 c 0,3,4
 33 285 33 285 62 337 c 128,-1,5
 91 389 91 389 141.5 418.5 c 128,-1,6
 192 448 192 448 254 448 c 0,7,8
 361 448 361 448 418 372 c 1,9,10
 414 444 414 444 397 490 c 128,-1,11
 380 536 380 536 348 565 c 1,12,-1
 279 496 l 1,13,-1
 238 536 l 1,14,-1
 299 597 l 1,15,16
 251 621 251 621 171 621 c 1,17,-1
 171 715 l 1,18,19
 293 715 293 715 371 669 c 1,20,-1
 421 718 l 1,21,-1
 461 678 l 1,22,-1
 418 635 l 1,23,24
 472 590 472 590 501.5 506 c 128,-1,25
 531 422 531 422 531 317 c 0,26,27
 531 168 531 168 471.5 78 c 128,-1,28
 412 -12 412 -12 278 -12 c 0,29,0
 206 -12 206 -12 150.5 18 c 128,-1,1
374 114 m 128,-1,31
 410 153 410 153 410 217 c 0,32,33
 410 280 410 280 374 319.5 c 128,-1,34
 338 359 338 359 278 359 c 0,35,36
 219 359 219 359 183.5 319.5 c 128,-1,37
 148 280 148 280 148 217 c 0,38,39
 148 153 148 153 183 114 c 128,-1,40
 218 75 218 75 278 75 c 256,41,30
 338 75 338 75 374 114 c 128,-1,31
EndSplineSet
EndChar
StartChar: divide
Encoding: 247 247 323
Width: 601
GlyphClass: 1
Flags: W
LayerCount: 2
Fore
SplineSet
49 297 m 1,0,-1
 551 297 l 1,1,-1
 551 199 l 1,2,-1
 49 199 l 1,3,-1
 49 297 l 1,0,-1
251.5 25 m 128,-1,5
 231 46 231 46 231 75 c 256,6,7
 231 104 231 104 251.5 124.5 c 128,-1,8
 272 145 272 145 301 145 c 0,9,10
 329 145 329 145 349.5 124.5 c 128,-1,11
 370 104 370 104 370 75 c 256,12,13
 370 46 370 46 349.5 25 c 128,-1,14
 329 4 329 4 301 4 c 0,15,4
 272 4 272 4 251.5 25 c 128,-1,5
251.5 372.5 m 128,-1,17
 231 393 231 393 231 422 c 256,18,19
 231 451 231 451 251.5 471.5 c 128,-1,20
 272 492 272 492 301 492 c 256,21,22
 330 492 330 492 350 471.5 c 128,-1,23
 370 451 370 451 370 422 c 256,24,25
 370 393 370 393 350 372.5 c 128,-1,26
 330 352 330 352 301 352 c 256,27,16
 272 352 272 352 251.5 372.5 c 128,-1,17
EndSplineSet
EndChar
StartChar: oslash
Encoding: 248 248 179
Width: 561
GlyphClass: 2
Flags: W
AnchorPoint: "Anchor-3" 540 496 basechar 0
AnchorPoint: "Anchor-1" 280 496 basechar 0
AnchorPoint: "Anchor-0" 280 0 basechar 0
LayerCount: 2
Fore
SplineSet
203.5 -1 m 128,-1,1
 166 10 166 10 134 32 c 1,2,-1
 93 -16 l 1,3,-1
 48 22 l 1,4,-1
 90 71 l 1,5,6
 33 139 33 139 33 247 c 0,7,8
 33 333 33 333 68 391 c 128,-1,9
 103 449 103 449 159 477.5 c 128,-1,10
 215 506 215 506 280 506 c 0,11,12
 362 506 362 506 426 463 c 1,13,-1
 468 512 l 1,14,-1
 513 474 l 1,15,-1
 470 424 l 1,16,17
 528 354 528 354 528 247 c 0,18,19
 528 162 528 162 493 103.5 c 128,-1,20
 458 45 458 45 401.5 16.5 c 128,-1,21
 345 -12 345 -12 280 -12 c 0,22,0
 241 -12 241 -12 203.5 -1 c 128,-1,1
375 120.5 m 128,-1,24
 413 162 413 162 413 247 c 0,25,26
 413 301 413 301 396 338 c 1,27,-1
 199 107 l 1,28,29
 233 79 233 79 280 79 c 0,30,23
 337 79 337 79 375 120.5 c 128,-1,24
164 158 m 1,32,-1
 361 388 l 1,33,34
 327 416 327 416 280 416 c 0,35,36
 223 416 223 416 185 374 c 128,-1,37
 147 332 147 332 147 247 c 0,38,31
 147 194 147 194 164 158 c 1,32,-1
EndSplineSet
EndChar
StartChar: Aogonek
Encoding: 260 260 9
Width: 650
GlyphClass: 2
Flags: W
AnchorPoint: "Anchor-1" 325 668 basechar 0
AnchorPoint: "Anchor-0" 325 0 basechar 0
LayerCount: 2
Fore
SplineSet
491.5 -149 m 128,-1,1
 461 -125 461 -125 461 -89 c 0,2,3
 461 -31 461 -31 522 1 c 1,4,-1
 514 1 l 1,5,-1
 467 136 l 1,6,-1
 183 136 l 1,7,-1
 135 0 l 1,8,-1
 8 0 l 1,9,-1
 260 668 l 1,10,-1
 391 668 l 1,11,-1
 642 0 l 1,12,13
 601 -11 601 -11 576.5 -29.5 c 128,-1,14
 552 -48 552 -48 552 -72 c 0,15,16
 552 -90 552 -90 565.5 -99.5 c 128,-1,17
 579 -109 579 -109 600 -109 c 0,18,19
 622 -109 622 -109 642 -100 c 1,20,-1
 642 -162 l 1,21,22
 614 -173 614 -173 575 -173 c 0,23,0
 522 -173 522 -173 491.5 -149 c 128,-1,1
434 235 m 1,24,-1
 325 546 l 1,25,-1
 216 235 l 1,26,-1
 434 235 l 1,24,-1
EndSplineSet
EndChar
StartChar: aogonek
Encoding: 261 261 119
Width: 537
GlyphClass: 2
Flags: W
AnchorPoint: "Anchor-1" 266 496 basechar 0
AnchorPoint: "Anchor-0" 266 0 basechar 0
LayerCount: 2
Fore
SplineSet
335.5 -148 m 128,-1,1
 307 -123 307 -123 307 -89 c 0,2,3
 307 -28 307 -28 385 8 c 1,4,-1
 368 65 l 1,5,6
 321 -12 321 -12 200 -12 c 0,7,8
 127 -12 127 -12 77.5 27 c 128,-1,9
 28 66 28 66 28 131 c 0,10,11
 28 215 28 215 113.5 255.5 c 128,-1,12
 199 296 199 296 366 310 c 1,13,-1
 366 322 l 2,14,15
 366 372 366 372 340 399 c 128,-1,16
 314 426 314 426 262 426 c 0,17,18
 221 426 221 426 194.5 408 c 128,-1,19
 168 390 168 390 160 356 c 1,20,-1
 61 388 l 1,21,22
 83 442 83 442 137 474 c 128,-1,23
 191 506 191 506 263 506 c 0,24,25
 369 506 369 506 420 457 c 128,-1,26
 471 408 471 408 471 303 c 2,27,-1
 471 190 l 2,28,29
 471 87 471 87 488 0 c 1,30,31
 398 -27 398 -27 398 -72 c 0,32,33
 398 -90 398 -90 412 -99.5 c 128,-1,34
 426 -109 426 -109 446 -109 c 0,35,36
 468 -109 468 -109 488 -100 c 1,37,-1
 488 -162 l 1,38,39
 457 -173 457 -173 419 -173 c 0,40,0
 364 -173 364 -173 335.5 -148 c 128,-1,1
366 204 m 2,42,-1
 366 235 l 1,43,44
 255 226 255 226 200 203.5 c 128,-1,45
 145 181 145 181 145 136 c 0,46,47
 145 106 145 106 169 87.5 c 128,-1,48
 193 69 193 69 234 69 c 0,49,41
 366 69 366 69 366 204 c 2,42,-1
EndSplineSet
EndChar
StartChar: Dcroat
Encoding: 272 272 21
Width: 698
GlyphClass: 1
Flags: W
LayerCount: 2
Fore
SplineSet
90 298 m 1,0,-1
 23 298 l 1,1,-1
 23 396 l 1,2,-1
 90 396 l 1,3,-1
 90 668 l 1,4,-1
 286 668 l 2,5,6
 465 668 465 668 562 589.5 c 128,-1,7
 659 511 659 511 659 335 c 0,8,9
 659 155 659 155 560.5 77.5 c 128,-1,10
 462 0 462 0 286 0 c 2,11,-1
 90 0 l 1,12,-1
 90 298 l 1,0,-1
419.5 117.5 m 128,-1,14
 474 136 474 136 506 188 c 128,-1,15
 538 240 538 240 538 335 c 0,16,17
 538 429 538 429 506 480.5 c 128,-1,18
 474 532 474 532 419 551 c 128,-1,19
 364 570 364 570 286 570 c 2,20,-1
 208 570 l 1,21,-1
 208 396 l 1,22,-1
 378 396 l 1,23,-1
 378 298 l 1,24,-1
 208 298 l 1,25,-1
 208 99 l 1,26,-1
 286 99 l 2,27,13
 365 99 365 99 419.5 117.5 c 128,-1,14
EndSplineSet
EndChar
StartChar: dcroat
Encoding: 273 273 131
Width: 579
GlyphClass: 1
Flags: W
LayerCount: 2
Fore
SplineSet
139 19.5 m 128,-1,1
 90 51 90 51 61.5 110 c 128,-1,2
 33 169 33 169 33 248 c 256,3,4
 33 327 33 327 61.5 385.5 c 128,-1,5
 90 444 90 444 139 475 c 128,-1,6
 188 506 188 506 248 506 c 0,7,8
 300 506 300 506 341.5 484 c 128,-1,9
 383 462 383 462 406 422 c 1,10,-1
 406 547 l 1,11,-1
 257 547 l 1,12,-1
 257 618 l 1,13,-1
 406 618 l 1,14,-1
 406 708 l 1,15,-1
 515 708 l 1,16,-1
 515 618 l 1,17,-1
 601 618 l 1,18,-1
 601 547 l 1,19,-1
 515 547 l 1,20,-1
 515 190 l 2,21,22
 515 93 515 93 532 0 c 1,23,-1
 428 0 l 1,24,-1
 407 71 l 1,25,26
 382 31 382 31 341 9.5 c 128,-1,27
 300 -12 300 -12 248 -12 c 0,28,0
 188 -12 188 -12 139 19.5 c 128,-1,1
374 121 m 128,-1,30
 409 165 409 165 409 247 c 256,31,32
 409 329 409 329 374 373 c 128,-1,33
 339 417 339 417 280 417 c 0,34,35
 222 417 222 417 186.5 372 c 128,-1,36
 151 327 151 327 151 248 c 256,37,38
 151 169 151 169 187 123 c 128,-1,39
 223 77 223 77 280 77 c 0,40,29
 339 77 339 77 374 121 c 128,-1,30
EndSplineSet
EndChar
StartChar: Eogonek
Encoding: 280 280 31
Width: 582
GlyphClass: 2
Flags: W
AnchorPoint: "Anchor-1" 286 668 basechar 0
AnchorPoint: "Anchor-0" 292 0 basechar 0
LayerCount: 2
Fore
SplineSet
70 668 m 1,0,-1
 542 668 l 1,1,-1
 542 565 l 1,2,-1
 188 565 l 1,3,-1
 188 395 l 1,4,-1
 435 395 l 1,5,-1
 435 292 l 1,6,-1
 188 292 l 1,7,-1
 188 103 l 1,8,-1
 546 103 l 1,9,-1
 546 0 l 1,10,11
 505 -11 505 -11 480.5 -29.5 c 128,-1,12
 456 -48 456 -48 456 -72 c 0,13,14
 456 -90 456 -90 469.5 -99.5 c 128,-1,15
 483 -109 483 -109 504 -109 c 0,16,17
 526 -109 526 -109 546 -100 c 1,18,-1
 546 -162 l 1,19,20
 533 -167 533 -167 514 -170 c 128,-1,21
 495 -173 495 -173 479 -173 c 0,22,23
 426 -173 426 -173 395.5 -149 c 128,-1,24
 365 -125 365 -125 365 -89 c 0,25,26
 365 -31 365 -31 423 0 c 1,27,-1
 70 0 l 1,28,-1
 70 668 l 1,0,-1
EndSplineSet
EndChar
StartChar: eogonek
Encoding: 281 281 141
Width: 550
GlyphClass: 2
Flags: W
AnchorPoint: "Anchor-1" 288 496 basechar 0
AnchorPoint: "Anchor-0" 275 0 basechar 0
LayerCount: 2
Fore
SplineSet
297.5 -147.5 m 128,-1,1
 269 -122 269 -122 269 -85 c 0,2,3
 269 -44 269 -44 295 -11 c 1,4,5
 217 -13 217 -13 157.5 18.5 c 128,-1,6
 98 50 98 50 65.5 109.5 c 128,-1,7
 33 169 33 169 33 249 c 0,8,9
 33 326 33 326 66 384 c 128,-1,10
 99 442 99 442 156 474 c 128,-1,11
 213 506 213 506 283 506 c 0,12,13
 361 506 361 506 417.5 467 c 128,-1,14
 474 428 474 428 501.5 362.5 c 128,-1,15
 529 297 529 297 523 219 c 1,16,-1
 144 219 l 1,17,18
 152 145 152 145 193.5 112 c 128,-1,19
 235 79 235 79 285 79 c 0,20,21
 361 79 361 79 395 123 c 1,22,-1
 491 92 l 1,23,24
 466 51 466 51 418 21 c 0,25,26
 393 5 393 5 376.5 -17.5 c 128,-1,27
 360 -40 360 -40 360 -66 c 0,28,29
 360 -88 360 -88 373.5 -98.5 c 128,-1,30
 387 -109 387 -109 408 -109 c 0,31,32
 430 -109 430 -109 450 -100 c 1,33,-1
 450 -162 l 1,34,35
 419 -173 419 -173 381 -173 c 0,36,0
 326 -173 326 -173 297.5 -147.5 c 128,-1,1
377 383 m 128,-1,38
 341 419 341 419 285 419 c 0,39,40
 232 419 232 419 193 389.5 c 128,-1,41
 154 360 154 360 144 295 c 1,42,-1
 415 295 l 1,43,37
 413 347 413 347 377 383 c 128,-1,38
EndSplineSet
EndChar
StartChar: Hbar
Encoding: 294 294 38
Width: 697
GlyphClass: 1
Flags: W
LayerCount: 2
Fore
SplineSet
70 504 m 1,0,-1
 11 504 l 1,1,-1
 11 588 l 1,2,-1
 70 588 l 1,3,-1
 70 668 l 1,4,-1
 188 668 l 1,5,-1
 188 588 l 1,6,-1
 510 588 l 1,7,-1
 510 668 l 1,8,-1
 628 668 l 1,9,-1
 628 588 l 1,10,-1
 686 588 l 1,11,-1
 686 504 l 1,12,-1
 628 504 l 1,13,-1
 628 0 l 1,14,-1
 510 0 l 1,15,-1
 510 292 l 1,16,-1
 188 292 l 1,17,-1
 188 0 l 1,18,-1
 70 0 l 1,19,-1
 70 504 l 1,0,-1
510 395 m 1,20,-1
 510 504 l 1,21,-1
 188 504 l 1,22,-1
 188 395 l 1,23,-1
 510 395 l 1,20,-1
EndSplineSet
EndChar
StartChar: hbar
Encoding: 295 295 148
Width: 560
GlyphClass: 1
Flags: W
LayerCount: 2
Fore
SplineSet
65 547 m 1,0,-1
 -21 547 l 1,1,-1
 -21 618 l 1,2,-1
 65 618 l 1,3,-1
 65 708 l 1,4,-1
 174 708 l 1,5,-1
 174 618 l 1,6,-1
 323 618 l 1,7,-1
 323 547 l 1,8,-1
 174 547 l 1,9,-1
 174 424 l 1,10,11
 195 460 195 460 235 483 c 128,-1,12
 275 506 275 506 332 506 c 0,13,14
 420 506 420 506 458.5 455.5 c 128,-1,15
 497 405 497 405 497 310 c 2,16,-1
 497 0 l 1,17,-1
 387 0 l 1,18,-1
 387 280 l 2,19,20
 387 346 387 346 368.5 381.5 c 128,-1,21
 350 417 350 417 291 417 c 0,22,23
 234 417 234 417 204 378 c 128,-1,24
 174 339 174 339 174 264 c 2,25,-1
 174 0 l 1,26,-1
 65 0 l 1,27,-1
 65 547 l 1,0,-1
EndSplineSet
EndChar
StartChar: Iogonek
Encoding: 302 302 47
Width: 407
GlyphClass: 2
Flags: W
AnchorPoint: "Anchor-1" 204 668 basechar 0
AnchorPoint: "Anchor-0" 204 0 basechar 0
LayerCount: 2
Fore
SplineSet
51 87 m 1,0,-1
 145 87 l 1,1,-1
 145 581 l 1,2,-1
 51 581 l 1,3,-1
 51 668 l 1,4,-1
 356 668 l 1,5,-1
 356 581 l 1,6,-1
 263 581 l 1,7,-1
 263 87 l 1,8,-1
 356 87 l 1,9,-1
 356 0 l 1,10,11
 316 -11 316 -11 291 -29.5 c 128,-1,12
 266 -48 266 -48 266 -72 c 0,13,14
 266 -90 266 -90 279.5 -99.5 c 128,-1,15
 293 -109 293 -109 314 -109 c 0,16,17
 336 -109 336 -109 356 -100 c 1,18,-1
 356 -162 l 1,19,20
 344 -167 344 -167 325 -170 c 128,-1,21
 306 -173 306 -173 290 -173 c 0,22,23
 236 -173 236 -173 205.5 -149.5 c 128,-1,24
 175 -126 175 -126 175 -89 c 0,25,26
 175 -32 175 -32 234 0 c 1,27,-1
 51 0 l 1,28,-1
 51 87 l 1,0,-1
EndSplineSet
EndChar
StartChar: iogonek
Encoding: 303 303 156
Width: 274
GlyphClass: 2
Flags: W
AnchorPoint: "Anchor-1" 145 731 basechar 0
AnchorPoint: "Anchor-0" 125 0 basechar 0
LayerCount: 2
Fore
SplineSet
93.5 607 m 128,-1,1
 72 628 72 628 72 658 c 256,2,3
 72 688 72 688 93.5 709.5 c 128,-1,4
 115 731 115 731 145 731 c 256,5,6
 175 731 175 731 196 709.5 c 128,-1,7
 217 688 217 688 217 658 c 256,8,9
 217 628 217 628 196 607 c 128,-1,10
 175 586 175 586 145 586 c 256,11,0
 115 586 115 586 93.5 607 c 128,-1,1
54.5 -148 m 128,-1,13
 26 -123 26 -123 26 -89 c 0,14,15
 26 -31 26 -31 97 6 c 1,16,-1
 97 411 l 1,17,-1
 23 411 l 1,18,-1
 23 496 l 1,19,-1
 207 496 l 1,20,-1
 207 0 l 1,21,22
 117 -27 117 -27 117 -72 c 0,23,24
 117 -90 117 -90 130.5 -99.5 c 128,-1,25
 144 -109 144 -109 165 -109 c 0,26,27
 187 -109 187 -109 207 -100 c 1,28,-1
 207 -162 l 1,29,30
 176 -173 176 -173 138 -173 c 0,31,12
 83 -173 83 -173 54.5 -148 c 128,-1,13
EndSplineSet
EndChar
StartChar: dotlessi
Encoding: 305 305 150
Width: 274
GlyphClass: 2
Flags: W
AnchorPoint: "Anchor-2" 207 10 basechar 0
AnchorPoint: "Anchor-1" 145 496 basechar 0
AnchorPoint: "Anchor-0" 125 0 basechar 0
LayerCount: 2
Fore
SplineSet
97 411 m 1,0,-1
 23 411 l 1,1,-1
 23 496 l 1,2,-1
 207 496 l 1,3,-1
 207 0 l 1,4,-1
 97 0 l 1,5,-1
 97 411 l 1,0,-1
EndSplineSet
EndChar
StartChar: Lslash
Encoding: 321 321 55
Width: 576
GlyphClass: 1
Flags: W
LayerCount: 2
Fore
SplineSet
100 239 m 1,0,-1
 10 186 l 1,1,-1
 10 281 l 1,2,-1
 100 334 l 1,3,-1
 100 668 l 1,4,-1
 218 668 l 1,5,-1
 218 405 l 1,6,-1
 393 508 l 1,7,-1
 393 413 l 1,8,-1
 218 310 l 1,9,-1
 218 103 l 1,10,-1
 562 103 l 1,11,-1
 562 0 l 1,12,-1
 100 0 l 1,13,-1
 100 239 l 1,0,-1
EndSplineSet
EndChar
StartChar: lslash
Encoding: 322 322 166
Width: 320
GlyphClass: 1
Flags: W
LayerCount: 2
Fore
SplineSet
134.5 10.5 m 128,-1,1
 106 21 106 21 93.5 47.5 c 128,-1,2
 81 74 81 74 81 126 c 2,3,-1
 81 263 l 1,4,-1
 27 231 l 1,5,-1
 27 318 l 1,6,-1
 81 351 l 1,7,-1
 81 708 l 1,8,-1
 191 708 l 1,9,-1
 191 414 l 1,10,-1
 282 467 l 1,11,-1
 282 379 l 1,12,-1
 191 326 l 1,13,-1
 191 150 l 2,14,15
 191 125 191 125 195 113.5 c 128,-1,16
 199 102 199 102 211.5 97.5 c 128,-1,17
 224 93 224 93 250 93 c 2,18,-1
 288 93 l 1,19,-1
 288 0 l 1,20,-1
 217 0 l 2,21,0
 163 0 163 0 134.5 10.5 c 128,-1,1
EndSplineSet
EndChar
StartChar: OE
Encoding: 338 338 70
Width: 1014
GlyphClass: 2
Flags: W
AnchorPoint: "Anchor-1" 513 668 basechar 0
AnchorPoint: "Anchor-0" 513 0 basechar 0
LayerCount: 2
Fore
SplineSet
185 32 m 128,-1,1
 115 76 115 76 77 154.5 c 128,-1,2
 39 233 39 233 39 335 c 0,3,4
 39 436 39 436 77 514.5 c 128,-1,5
 115 593 115 593 185 636.5 c 128,-1,6
 255 680 255 680 346 680 c 0,7,8
 403 680 403 680 451 660.5 c 128,-1,9
 499 641 499 641 534 604 c 1,10,-1
 534 668 l 1,11,-1
 974 668 l 1,12,-1
 974 565 l 1,13,-1
 646 565 l 1,14,-1
 646 395 l 1,15,-1
 867 395 l 1,16,-1
 867 292 l 1,17,-1
 646 292 l 1,18,-1
 646 103 l 1,19,-1
 978 103 l 1,20,-1
 978 0 l 1,21,-1
 534 0 l 1,22,-1
 534 64 l 1,23,24
 499 27 499 27 451 7.5 c 128,-1,25
 403 -12 403 -12 346 -12 c 0,26,0
 255 -12 255 -12 185 32 c 128,-1,1
443 113.5 m 128,-1,28
 485 141 485 141 509.5 197 c 128,-1,29
 534 253 534 253 534 335 c 0,30,31
 534 457 534 457 482 519.5 c 128,-1,32
 430 582 430 582 348 582 c 256,33,34
 266 582 266 582 214 519.5 c 128,-1,35
 162 457 162 457 162 335 c 0,36,37
 162 253 162 253 186.5 197 c 128,-1,38
 211 141 211 141 253 113.5 c 128,-1,39
 295 86 295 86 348 86 c 256,40,27
 401 86 401 86 443 113.5 c 128,-1,28
EndSplineSet
EndChar
StartChar: oe
Encoding: 339 339 181
Width: 930
GlyphClass: 2
Flags: W
AnchorPoint: "Anchor-1" 465 496 basechar 0
AnchorPoint: "Anchor-0" 465 0 basechar 0
LayerCount: 2
Fore
SplineSet
552.5 12.5 m 128,-1,1
 502 37 502 37 470 81 c 1,2,3
 437 35 437 35 387 11.5 c 128,-1,4
 337 -12 337 -12 280 -12 c 0,5,6
 216 -12 216 -12 159.5 16.5 c 128,-1,7
 103 45 103 45 68 104 c 128,-1,8
 33 163 33 163 33 248 c 256,9,10
 33 333 33 333 68 391.5 c 128,-1,11
 103 450 103 450 159 478 c 128,-1,12
 215 506 215 506 280 506 c 0,13,14
 337 506 337 506 387.5 482.5 c 128,-1,15
 438 459 438 459 471 413 c 1,16,17
 504 457 504 457 554 481.5 c 128,-1,18
 604 506 604 506 663 506 c 0,19,20
 741 506 741 506 797.5 467 c 128,-1,21
 854 428 854 428 881.5 362.5 c 128,-1,22
 909 297 909 297 903 219 c 1,23,-1
 524 219 l 1,24,25
 532 145 532 145 573.5 112 c 128,-1,26
 615 79 615 79 665 79 c 0,27,28
 741 79 741 79 775 123 c 1,29,-1
 871 92 l 1,30,31
 839 43 839 43 786 15.5 c 128,-1,32
 733 -12 733 -12 667 -12 c 0,33,0
 603 -12 603 -12 552.5 12.5 c 128,-1,1
375 121.5 m 128,-1,35
 413 164 413 164 413 248 c 256,36,37
 413 332 413 332 375 374 c 128,-1,38
 337 416 337 416 280 416 c 256,39,40
 223 416 223 416 185 374 c 128,-1,41
 147 332 147 332 147 248 c 256,42,43
 147 164 147 164 185 121.5 c 128,-1,44
 223 79 223 79 280 79 c 256,45,34
 337 79 337 79 375 121.5 c 128,-1,35
757 383 m 128,-1,47
 721 419 721 419 665 419 c 0,48,49
 612 419 612 419 573 389.5 c 128,-1,50
 534 360 534 360 524 295 c 1,51,-1
 795 295 l 1,52,46
 793 347 793 347 757 383 c 128,-1,47
EndSplineSet
EndChar
StartChar: Scedilla
Encoding: 350 350 80
Width: 600
GlyphClass: 2
Flags: W
AnchorPoint: "Anchor-1" 300 668 basechar 0
LayerCount: 2
Fore
SplineSet
205 -167 m 1,1,-1
 220 -126 l 1,2,3
 250 -140 250 -140 279 -140 c 0,4,5
 303 -140 303 -140 316 -131.5 c 128,-1,6
 329 -123 329 -123 329 -109 c 0,7,8
 329 -97 329 -97 319 -89 c 128,-1,9
 309 -81 309 -81 291 -81 c 0,10,11
 275 -81 275 -81 260 -85 c 0,12,13
 249 -89 249 -89 241 -83.5 c 128,-1,14
 233 -78 233 -78 233 -69 c 0,15,16
 233 -64 233 -64 237 -58 c 2,17,-1
 266 -11 l 1,18,19
 182 -3 182 -3 119.5 38 c 128,-1,20
 57 79 57 79 32 150 c 1,21,-1
 140 189 l 1,22,23
 154 140 154 140 200 112.5 c 128,-1,24
 246 85 246 85 304 85 c 0,25,26
 367 85 367 85 408.5 111 c 128,-1,27
 450 137 450 137 450 188 c 0,28,29
 450 226 450 226 421.5 248 c 128,-1,30
 393 270 393 270 322 286 c 2,31,-1
 235 305 l 2,32,33
 48 345 48 345 48 486 c 0,34,35
 48 543 48 543 82 587 c 128,-1,36
 116 631 116 631 175 655.5 c 128,-1,37
 234 680 234 680 306 680 c 0,38,39
 387 680 387 680 452 647 c 128,-1,40
 517 614 517 614 547 548 c 1,41,-1
 439 509 l 1,42,43
 422 544 422 544 384 563.5 c 128,-1,44
 346 583 346 583 298 583 c 0,45,46
 242 583 242 583 204 559.5 c 128,-1,47
 166 536 166 536 166 493 c 0,48,49
 166 430 166 430 260 409 c 2,50,-1
 352 389 l 2,51,52
 460 365 460 365 514 322.5 c 128,-1,53
 568 280 568 280 568 195 c 0,54,55
 568 134 568 134 534 88 c 128,-1,56
 500 42 500 42 442.5 16.5 c 128,-1,57
 385 -9 385 -9 316 -12 c 1,58,-1
 295 -46 l 1,59,60
 315 -42 315 -42 326 -42 c 0,61,62
 359 -42 359 -42 380.5 -59.5 c 128,-1,63
 402 -77 402 -77 402 -105 c 0,64,65
 402 -140 402 -140 371.5 -162 c 128,-1,66
 341 -184 341 -184 293 -184 c 0,67,0
 249 -184 249 -184 205 -167 c 1,1,-1
EndSplineSet
Substitution2: "'locl' Localized Forms in Latin lookup 4 subtable" uni0218
AlternateSubs2: "'aalt' Access All Alternates in Latin lookup 0 subtable" uni0218
EndChar
StartChar: scedilla
Encoding: 351 351 191
Width: 488
GlyphClass: 2
Flags: W
AnchorPoint: "Anchor-1" 247 496 basechar 0
LayerCount: 2
Fore
SplineSet
158 -167 m 1,1,-1
 173 -126 l 1,2,3
 201 -140 201 -140 232 -140 c 0,4,5
 256 -140 256 -140 268.5 -131.5 c 128,-1,6
 281 -123 281 -123 281 -109 c 0,7,8
 281 -96 281 -96 271.5 -88.5 c 128,-1,9
 262 -81 262 -81 244 -81 c 0,10,11
 228 -81 228 -81 213 -85 c 0,12,13
 202 -89 202 -89 194 -83 c 128,-1,14
 186 -77 186 -77 186 -68 c 0,15,16
 186 -63 186 -63 189 -58 c 2,17,-1
 218 -11 l 1,18,19
 151 -6 151 -6 99.5 26 c 128,-1,20
 48 58 48 58 25 113 c 1,21,-1
 124 149 l 1,22,23
 134 113 134 113 169.5 93 c 128,-1,24
 205 73 205 73 249 73 c 0,25,26
 295 73 295 73 326 91 c 128,-1,27
 357 109 357 109 357 139 c 0,28,29
 357 165 357 165 335 179.5 c 128,-1,30
 313 194 313 194 262 205 c 2,31,-1
 194 219 l 2,32,33
 121 234 121 234 80.5 267 c 128,-1,34
 40 300 40 300 40 360 c 0,35,36
 40 405 40 405 68 439 c 128,-1,37
 96 473 96 473 143 490.5 c 128,-1,38
 190 508 190 508 245 508 c 0,39,40
 315 508 315 508 370 481 c 128,-1,41
 425 454 425 454 449 399 c 1,42,-1
 351 364 l 1,43,44
 339 392 339 392 309.5 407 c 128,-1,45
 280 422 280 422 240 422 c 0,46,47
 198 422 198 422 172.5 406.5 c 128,-1,48
 147 391 147 391 147 364 c 0,49,50
 147 342 147 342 165 329 c 128,-1,51
 183 316 183 316 223 308 c 2,52,-1
 292 294 l 2,53,54
 381 275 381 275 422.5 243 c 128,-1,55
 464 211 464 211 464 146 c 0,56,57
 464 78 464 78 409 36 c 128,-1,58
 354 -6 354 -6 269 -11 c 1,59,-1
 247 -46 l 1,60,61
 269 -42 269 -42 279 -42 c 0,62,63
 311 -42 311 -42 332.5 -59.5 c 128,-1,64
 354 -77 354 -77 354 -105 c 0,65,66
 354 -140 354 -140 324 -162 c 128,-1,67
 294 -184 294 -184 246 -184 c 0,68,0
 202 -184 202 -184 158 -167 c 1,1,-1
EndSplineSet
Substitution2: "'locl' Localized Forms in Latin lookup 4 subtable" uni0219
AlternateSubs2: "'aalt' Access All Alternates in Latin lookup 0 subtable" uni0219
EndChar
StartChar: uni0162
Encoding: 354 354 85
Width: 581
GlyphClass: 2
Flags: W
AnchorPoint: "Anchor-1" 290 668 basechar 0
LayerCount: 2
Fore
SplineSet
231 565 m 1,0,-1
 12 565 l 1,1,-1
 12 668 l 1,2,-1
 569 668 l 1,3,-1
 569 565 l 1,4,-1
 349 565 l 1,5,-1
 349 0 l 1,6,-1
 316 0 l 1,7,-1
 287 -46 l 1,8,9
 309 -42 309 -42 319 -42 c 0,10,11
 351 -42 351 -42 372.5 -59.5 c 128,-1,12
 394 -77 394 -77 394 -105 c 0,13,14
 394 -140 394 -140 364 -162 c 128,-1,15
 334 -184 334 -184 286 -184 c 0,16,17
 242 -184 242 -184 198 -167 c 1,18,-1
 213 -126 l 1,19,20
 241 -140 241 -140 272 -140 c 0,21,22
 296 -140 296 -140 309 -131.5 c 128,-1,23
 322 -123 322 -123 322 -109 c 0,24,25
 322 -97 322 -97 312 -89 c 128,-1,26
 302 -81 302 -81 284 -81 c 0,27,28
 268 -81 268 -81 253 -85 c 0,29,30
 242 -89 242 -89 234 -83 c 128,-1,31
 226 -77 226 -77 226 -68 c 0,32,33
 226 -63 226 -63 229 -58 c 2,34,-1
 265 0 l 1,35,-1
 231 0 l 1,36,-1
 231 565 l 1,0,-1
EndSplineSet
Substitution2: "'locl' Localized Forms in Latin lookup 4 subtable" uni021A
AlternateSubs2: "'aalt' Access All Alternates in Latin lookup 0 subtable" uni021A
EndChar
StartChar: uni0163
Encoding: 355 355 196
Width: 349
GlyphClass: 2
Flags: W
AnchorPoint: "Anchor-3" 229 549 basechar 0
AnchorPoint: "Anchor-1" 171 496 basechar 0
LayerCount: 2
Fore
SplineSet
107 -167 m 1,1,-1
 121 -126 l 1,2,3
 151 -140 151 -140 180 -140 c 0,4,5
 204 -140 204 -140 217 -131.5 c 128,-1,6
 230 -123 230 -123 230 -109 c 0,7,8
 230 -96 230 -96 220.5 -88.5 c 128,-1,9
 211 -81 211 -81 192 -81 c 0,10,11
 177 -81 177 -81 162 -85 c 0,12,13
 151 -89 151 -89 143 -83 c 128,-1,14
 135 -77 135 -77 135 -68 c 0,15,16
 135 -63 135 -63 138 -58 c 2,17,-1
 176 4 l 1,18,19
 132 11 132 11 116 38 c 128,-1,20
 100 65 100 65 100 130 c 2,21,-1
 100 411 l 1,22,-1
 16 411 l 1,23,-1
 16 496 l 1,24,-1
 100 496 l 1,25,-1
 100 620 l 1,26,-1
 209 620 l 1,27,-1
 209 496 l 1,28,-1
 314 496 l 1,29,-1
 314 411 l 1,30,-1
 209 411 l 1,31,-1
 209 154 l 2,32,33
 209 127 209 127 213.5 114.5 c 128,-1,34
 218 102 218 102 229.5 97.5 c 128,-1,35
 241 93 241 93 265 93 c 2,36,-1
 314 93 l 1,37,-1
 314 0 l 1,38,-1
 234 0 l 1,39,-1
 225 0 l 1,40,-1
 196 -46 l 1,41,42
 216 -42 216 -42 227 -42 c 0,43,44
 260 -42 260 -42 281.5 -59.5 c 128,-1,45
 303 -77 303 -77 303 -105 c 0,46,47
 303 -140 303 -140 273 -162 c 128,-1,48
 243 -184 243 -184 195 -184 c 0,49,0
 150 -184 150 -184 107 -167 c 1,1,-1
EndSplineSet
Substitution2: "'locl' Localized Forms in Latin lookup 4 subtable" uni021B
AlternateSubs2: "'aalt' Access All Alternates in Latin lookup 0 subtable" uni021B
EndChar
StartChar: Uring
Encoding: 366 366 95
Width: 688
GlyphClass: 2
Flags: W
AnchorPoint: "Anchor-3" 664 668 basechar 0
AnchorPoint: "Anchor-2" 539 10 basechar 0
AnchorPoint: "Anchor-1" 345 901 basechar 0
AnchorPoint: "Anchor-0" 345 0 basechar 0
LayerCount: 2
Fore
SplineSet
132.5 60 m 128,-1,1
 68 132 68 132 68 284 c 2,2,-1
 68 668 l 1,3,-1
 186 668 l 1,4,-1
 186 273 l 2,5,6
 186 177 186 177 223 132 c 128,-1,7
 260 87 260 87 345 87 c 256,8,9
 430 87 430 87 466 131.5 c 128,-1,10
 502 176 502 176 502 273 c 2,11,-1
 502 668 l 1,12,-1
 620 668 l 1,13,-1
 620 284 l 2,14,15
 620 132 620 132 555.5 60 c 128,-1,16
 491 -12 491 -12 344 -12 c 256,17,0
 197 -12 197 -12 132.5 60 c 128,-1,1
261.5 700 m 128,-1,19
 227 735 227 735 227 783 c 256,20,21
 227 831 227 831 261.5 866 c 128,-1,22
 296 901 296 901 345 901 c 0,23,24
 393 901 393 901 427.5 866 c 128,-1,25
 462 831 462 831 462 783 c 256,26,27
 462 735 462 735 427.5 700 c 128,-1,28
 393 665 393 665 345 665 c 0,29,18
 296 665 296 665 261.5 700 c 128,-1,19
380 748.5 m 128,-1,31
 395 763 395 763 395 783 c 256,32,33
 395 803 395 803 380 818 c 128,-1,34
 365 833 365 833 345 833 c 0,35,36
 324 833 324 833 309 818 c 128,-1,37
 294 803 294 803 294 783 c 256,38,39
 294 763 294 763 309 748.5 c 128,-1,40
 324 734 324 734 345 734 c 0,41,30
 365 734 365 734 380 748.5 c 128,-1,31
EndSplineSet
EndChar
StartChar: Uogonek
Encoding: 370 370 94
Width: 688
GlyphClass: 2
Flags: W
AnchorPoint: "Anchor-3" 664 668 basechar 0
AnchorPoint: "Anchor-1" 345 668 basechar 0
AnchorPoint: "Anchor-0" 345 0 basechar 0
LayerCount: 2
Fore
SplineSet
385.5 -147.5 m 128,-1,1
 357 -122 357 -122 357 -85 c 0,2,3
 357 -44 357 -44 384 -10 c 1,4,5
 370 -11 370 -11 343 -11 c 0,6,7
 208 -11 208 -11 138 55.5 c 128,-1,8
 68 122 68 122 68 284 c 2,9,-1
 68 668 l 1,10,-1
 186 668 l 1,11,-1
 186 273 l 2,12,13
 186 177 186 177 223 132 c 128,-1,14
 260 87 260 87 345 87 c 256,15,16
 430 87 430 87 466 131.5 c 128,-1,17
 502 176 502 176 502 273 c 2,18,-1
 502 668 l 1,19,-1
 620 668 l 1,20,-1
 620 284 l 2,21,22
 620 184 620 184 593.5 120.5 c 128,-1,23
 567 57 567 57 511 24 c 0,24,25
 484 8 484 8 466 -16 c 128,-1,26
 448 -40 448 -40 448 -66 c 0,27,28
 448 -88 448 -88 461.5 -98.5 c 128,-1,29
 475 -109 475 -109 496 -109 c 0,30,31
 518 -109 518 -109 538 -100 c 1,32,-1
 538 -162 l 1,33,34
 507 -173 507 -173 469 -173 c 0,35,0
 414 -173 414 -173 385.5 -147.5 c 128,-1,1
EndSplineSet
EndChar
StartChar: uogonek
Encoding: 371 371 205
Width: 552
GlyphClass: 2
Flags: W
AnchorPoint: "Anchor-3" 530 496 basechar 0
AnchorPoint: "Anchor-1" 276 496 basechar 0
AnchorPoint: "Anchor-0" 276 0 basechar 0
LayerCount: 2
Fore
SplineSet
101.5 39.5 m 128,-1,1
 63 91 63 91 63 187 c 2,2,-1
 63 496 l 1,3,-1
 172 496 l 1,4,-1
 172 217 l 2,5,6
 172 149 172 149 190 114 c 128,-1,7
 208 79 208 79 266 79 c 0,8,9
 378 79 378 79 378 228 c 2,10,-1
 378 496 l 1,11,-1
 488 496 l 1,12,-1
 488 0 l 1,13,14
 398 -27 398 -27 398 -72 c 0,15,16
 398 -90 398 -90 411.5 -99.5 c 128,-1,17
 425 -109 425 -109 445 -109 c 0,18,19
 466 -109 466 -109 488 -100 c 1,20,-1
 488 -162 l 1,21,22
 457 -173 457 -173 419 -173 c 0,23,24
 364 -173 364 -173 335.5 -148 c 128,-1,25
 307 -123 307 -123 307 -89 c 0,26,27
 307 -23 307 -23 395 13 c 1,28,-1
 378 71 l 1,29,30
 354 31 354 31 318.5 9.5 c 128,-1,31
 283 -12 283 -12 227 -12 c 0,32,0
 140 -12 140 -12 101.5 39.5 c 128,-1,1
EndSplineSet
EndChar
StartChar: florin
Encoding: 402 402 295
Width: 348
GlyphClass: 1
Flags: W
LayerCount: 2
Fore
SplineSet
23 -165 m 1,1,-1
 23 -68 l 1,2,3
 40 -71 40 -71 50 -71 c 0,4,5
 80 -71 80 -71 93 -53.5 c 128,-1,6
 106 -36 106 -36 106 0 c 2,7,-1
 106 411 l 1,8,-1
 23 411 l 1,9,-1
 23 496 l 1,10,-1
 106 496 l 1,11,-1
 106 573 l 2,12,13
 106 628 106 628 120 658.5 c 128,-1,14
 134 689 134 689 167 702 c 128,-1,15
 200 715 200 715 261 715 c 2,16,-1
 321 715 l 1,17,-1
 321 625 l 1,18,-1
 273 625 l 2,19,20
 237 625 237 625 226.5 614 c 128,-1,21
 216 603 216 603 216 568 c 2,22,-1
 216 496 l 1,23,-1
 321 496 l 1,24,-1
 321 411 l 1,25,-1
 216 411 l 1,26,-1
 216 -23 l 2,27,28
 216 -102 216 -102 180.5 -137.5 c 128,-1,29
 145 -173 145 -173 87 -173 c 0,30,0
 58 -173 58 -173 23 -165 c 1,1,-1
EndSplineSet
EndChar
StartChar: uni0237
Encoding: 567 567 159
Width: 251
GlyphClass: 2
Flags: W
AnchorPoint: "Anchor-1" 130 496 basechar 0
AnchorPoint: "Anchor-0" 126 -251 basechar 0
LayerCount: 2
Fore
SplineSet
-64 -71 m 1,0,-1
 -11 -71 l 2,1,2
 26 -71 26 -71 43.5 -65 c 128,-1,3
 61 -59 61 -59 68 -42.5 c 128,-1,4
 75 -26 75 -26 75 7 c 2,5,-1
 75 496 l 1,6,-1
 185 496 l 1,7,-1
 185 -5 l 2,8,9
 185 -65 185 -65 166 -99.5 c 128,-1,10
 147 -134 147 -134 108 -148 c 128,-1,11
 69 -162 69 -162 5 -162 c 2,12,-1
 -64 -162 l 1,13,-1
 -64 -71 l 1,0,-1
EndSplineSet
EndChar
StartChar: uni02C9
Encoding: 713 713 374
Width: 368
GlyphClass: 1
Flags: W
LayerCount: 2
Fore
SplineSet
42 661 m 1,0,-1
 327 661 l 1,1,-1
 327 582 l 1,2,-1
 42 582 l 1,3,-1
 42 661 l 1,0,-1
EndSplineSet
EndChar
StartChar: gravecomb
Encoding: 768 768 349
Width: 0
GlyphClass: 4
Flags: W
AnchorPoint: "Anchor-5" 182 715 basemark 0
AnchorPoint: "Anchor-5" 182 496 mark 0
AnchorPoint: "Anchor-1" 182 496 mark 0
LayerCount: 2
Fore
SplineSet
50.5 646 m 128,-1,1
 42 658 42 658 42 671 c 0,2,3
 42 690 42 690 54 702 c 128,-1,4
 66 714 66 714 85 714 c 0,5,6
 99 714 99 714 110 706.5 c 128,-1,7
 121 699 121 699 134 682 c 2,8,-1
 222 572 l 1,9,-1
 136 572 l 1,10,-1
 81 616 l 2,11,0
 59 634 59 634 50.5 646 c 128,-1,1
EndSplineSet
Substitution2: "Single Substitution lookup 13 subtable" gravecomb.case
Substitution2: "'case' Case-Sensitive Forms in Latin lookup 11 subtable" gravecomb.case
AlternateSubs2: "'aalt' Access All Alternates in Latin lookup 0 subtable" gravecomb.case
EndChar
StartChar: acutecomb
Encoding: 769 769 351
Width: 0
GlyphClass: 4
Flags: W
AnchorPoint: "Anchor-5" 82 715 basemark 0
AnchorPoint: "Anchor-5" 82 496 mark 0
AnchorPoint: "Anchor-1" 82 496 mark 0
LayerCount: 2
Fore
SplineSet
153.5 706.5 m 128,-1,1
 164 714 164 714 178 714 c 0,2,3
 197 714 197 714 209.5 702 c 128,-1,4
 222 690 222 690 222 671 c 0,5,6
 222 658 222 658 213.5 646 c 128,-1,7
 205 634 205 634 183 616 c 2,8,-1
 128 572 l 1,9,-1
 42 572 l 1,10,-1
 129 682 l 2,11,0
 143 699 143 699 153.5 706.5 c 128,-1,1
EndSplineSet
Substitution2: "Single Substitution lookup 13 subtable" acutecomb.case
Substitution2: "'case' Case-Sensitive Forms in Latin lookup 11 subtable" acutecomb.case
AlternateSubs2: "'aalt' Access All Alternates in Latin lookup 0 subtable" acutecomb.case
EndChar
StartChar: uni0302
Encoding: 770 770 356
Width: 0
GlyphClass: 4
Flags: W
AnchorPoint: "Anchor-5" 217 707 basemark 0
AnchorPoint: "Anchor-5" 217 496 mark 0
AnchorPoint: "Anchor-1" 217 496 mark 0
LayerCount: 2
Fore
SplineSet
217 707 m 0,1,2
 244 707 244 707 266 687 c 2,3,-1
 391 575 l 1,4,-1
 284 575 l 1,5,-1
 216 636 l 1,6,-1
 149 575 l 1,7,-1
 42 575 l 1,8,-1
 167 687 l 2,9,0
 189 707 189 707 217 707 c 0,1,2
EndSplineSet
Substitution2: "Single Substitution lookup 13 subtable" uni0302.case
Substitution2: "'case' Case-Sensitive Forms in Latin lookup 11 subtable" uni0302.case
AlternateSubs2: "'aalt' Access All Alternates in Latin lookup 0 subtable" uni0302.case
EndChar
StartChar: tildecomb
Encoding: 771 771 364
Width: 0
GlyphClass: 4
Flags: W
AnchorPoint: "Anchor-5" 214 684 basemark 0
AnchorPoint: "Anchor-5" 214 496 mark 0
AnchorPoint: "Anchor-1" 214 496 mark 0
LayerCount: 2
Fore
SplineSet
246 579 m 128,-1,1
 230 585 230 585 207 597 c 0,2,3
 190 606 190 606 179.5 610 c 128,-1,4
 169 614 169 614 158 614 c 0,5,6
 141 614 141 614 129.5 604 c 128,-1,7
 118 594 118 594 116 576 c 1,8,-1
 42 576 l 1,9,10
 51 629 51 629 80 656.5 c 128,-1,11
 109 684 109 684 155 684 c 0,12,13
 176 684 176 684 192 678 c 128,-1,14
 208 672 208 672 228 660 c 0,15,16
 247 650 247 650 257 646 c 128,-1,17
 267 642 267 642 279 642 c 0,18,19
 293 642 293 642 302 647 c 128,-1,20
 311 652 311 652 320 664 c 0,21,22
 332 683 332 683 351 683 c 0,23,24
 366 683 366 683 376 673 c 128,-1,25
 386 663 386 663 386 649 c 0,26,27
 386 634 386 634 372 616 c 128,-1,28
 358 598 358 598 334.5 585.5 c 128,-1,29
 311 573 311 573 284 573 c 0,30,0
 262 573 262 573 246 579 c 128,-1,1
EndSplineSet
Substitution2: "Single Substitution lookup 13 subtable" tildecomb.case
Substitution2: "'case' Case-Sensitive Forms in Latin lookup 11 subtable" tildecomb.case
AlternateSubs2: "'aalt' Access All Alternates in Latin lookup 0 subtable" tildecomb.case
EndChar
StartChar: uni0306
Encoding: 774 774 360
Width: 0
GlyphClass: 4
Flags: W
AnchorPoint: "Anchor-5" 188 689 basemark 0
AnchorPoint: "Anchor-5" 188 496 mark 0
AnchorPoint: "Anchor-1" 188 496 mark 0
LayerCount: 2
Fore
SplineSet
91 601.5 m 128,-1,1
 52 636 52 636 42 689 c 1,2,-1
 116 689 l 1,3,4
 123 668 123 668 142.5 654 c 128,-1,5
 162 640 162 640 188 640 c 0,6,7
 213 640 213 640 233 654 c 128,-1,8
 253 668 253 668 260 689 c 1,9,-1
 334 689 l 1,10,11
 324 636 324 636 284.5 601.5 c 128,-1,12
 245 567 245 567 188 567 c 0,13,0
 130 567 130 567 91 601.5 c 128,-1,1
EndSplineSet
Substitution2: "Single Substitution lookup 13 subtable" uni0306.case
Substitution2: "'case' Case-Sensitive Forms in Latin lookup 11 subtable" uni0306.case
AlternateSubs2: "'aalt' Access All Alternates in Latin lookup 0 subtable" uni0306.case
EndChar
StartChar: uni0307
Encoding: 775 775 346
Width: 0
GlyphClass: 4
Flags: W
AnchorPoint: "Anchor-5" 104 707 basemark 0
AnchorPoint: "Anchor-5" 104 496 mark 0
AnchorPoint: "Anchor-1" 104 496 mark 0
LayerCount: 2
Fore
SplineSet
60.5 601.5 m 128,-1,1
 42 620 42 620 42 645 c 0,2,3
 42 671 42 671 60.5 689 c 128,-1,4
 79 707 79 707 104 707 c 0,5,6
 130 707 130 707 148 689 c 128,-1,7
 166 671 166 671 166 645 c 0,8,9
 166 620 166 620 148 601.5 c 128,-1,10
 130 583 130 583 104 583 c 0,11,0
 79 583 79 583 60.5 601.5 c 128,-1,1
EndSplineSet
Substitution2: "Single Substitution lookup 13 subtable" uni0307.case
Substitution2: "'case' Case-Sensitive Forms in Latin lookup 11 subtable" uni0307.case
AlternateSubs2: "'aalt' Access All Alternates in Latin lookup 0 subtable" uni0307.case
EndChar
StartChar: uni0308
Encoding: 776 776 344
Width: 0
GlyphClass: 4
Flags: W
AnchorPoint: "Anchor-5" 199 707 basemark 0
AnchorPoint: "Anchor-5" 199 496 mark 0
AnchorPoint: "Anchor-1" 199 496 mark 0
LayerCount: 2
Fore
SplineSet
250.5 601.5 m 128,-1,1
 232 620 232 620 232 645 c 0,2,3
 232 671 232 671 250.5 689 c 128,-1,4
 269 707 269 707 294 707 c 0,5,6
 320 707 320 707 338 689 c 128,-1,7
 356 671 356 671 356 645 c 0,8,9
 356 620 356 620 338 601.5 c 128,-1,10
 320 583 320 583 294 583 c 0,11,0
 269 583 269 583 250.5 601.5 c 128,-1,1
60.5 601.5 m 128,-1,13
 42 620 42 620 42 645 c 0,14,15
 42 671 42 671 60.5 689 c 128,-1,16
 79 707 79 707 104 707 c 0,17,18
 130 707 130 707 148 689 c 128,-1,19
 166 671 166 671 166 645 c 0,20,21
 166 620 166 620 148 601.5 c 128,-1,22
 130 583 130 583 104 583 c 0,23,12
 79 583 79 583 60.5 601.5 c 128,-1,13
EndSplineSet
Substitution2: "Single Substitution lookup 13 subtable" uni0308.case
Substitution2: "'case' Case-Sensitive Forms in Latin lookup 11 subtable" uni0308.case
AlternateSubs2: "'aalt' Access All Alternates in Latin lookup 0 subtable" uni0308.case
EndChar
StartChar: uni030A
Encoding: 778 778 362
Width: 0
GlyphClass: 4
Flags: W
AnchorPoint: "Anchor-5" 160 786 basemark 0
AnchorPoint: "Anchor-5" 160 496 mark 0
AnchorPoint: "Anchor-1" 160 496 mark 0
LayerCount: 2
Fore
SplineSet
76.5 585 m 128,-1,1
 42 619 42 619 42 668 c 256,2,3
 42 717 42 717 76.5 751 c 128,-1,4
 111 785 111 785 160 785 c 0,5,6
 208 785 208 785 242.5 751 c 128,-1,7
 277 717 277 717 277 668 c 256,8,9
 277 619 277 619 242.5 585 c 128,-1,10
 208 551 208 551 160 551 c 0,11,0
 111 551 111 551 76.5 585 c 128,-1,1
195 632 m 128,-1,13
 210 647 210 647 210 668 c 256,14,15
 210 689 210 689 195 704 c 128,-1,16
 180 719 180 719 160 719 c 0,17,18
 139 719 139 719 124 704 c 128,-1,19
 109 689 109 689 109 668 c 256,20,21
 109 647 109 647 124 632 c 128,-1,22
 139 617 139 617 160 617 c 0,23,12
 180 617 180 617 195 632 c 128,-1,13
EndSplineSet
Substitution2: "Single Substitution lookup 13 subtable" uni030A.case
Substitution2: "'case' Case-Sensitive Forms in Latin lookup 11 subtable" uni030A.case
AlternateSubs2: "'aalt' Access All Alternates in Latin lookup 0 subtable" uni030A.case
EndChar
StartChar: uni030B
Encoding: 779 779 353
Width: 0
GlyphClass: 4
Flags: W
AnchorPoint: "Anchor-5" 262 714 basemark 0
AnchorPoint: "Anchor-5" 167 496 mark 0
AnchorPoint: "Anchor-1" 167 496 mark 0
LayerCount: 2
Fore
SplineSet
153.5 706.5 m 128,-1,1
 164 714 164 714 178 714 c 0,2,3
 197 714 197 714 208.5 702 c 128,-1,4
 220 690 220 690 220 673 c 0,5,6
 220 648 220 648 180 616 c 2,7,-1
 125 572 l 1,8,-1
 42 572 l 1,9,-1
 129 682 l 2,10,0
 143 699 143 699 153.5 706.5 c 128,-1,1
322 706.5 m 128,-1,12
 333 714 333 714 347 714 c 0,13,14
 366 714 366 714 377.5 702 c 128,-1,15
 389 690 389 690 389 673 c 0,16,17
 389 648 389 648 349 616 c 2,18,-1
 294 572 l 1,19,-1
 211 572 l 1,20,-1
 298 682 l 2,21,11
 311 699 311 699 322 706.5 c 128,-1,12
EndSplineSet
Substitution2: "Single Substitution lookup 13 subtable" uni030B.case
Substitution2: "'case' Case-Sensitive Forms in Latin lookup 11 subtable" uni030B.case
AlternateSubs2: "'aalt' Access All Alternates in Latin lookup 0 subtable" uni030B.case
EndChar
StartChar: uni0312
Encoding: 786 786 368
Width: 0
GlyphClass: 4
Flags: W
AnchorPoint: "Anchor-5" 133 773 basemark 0
AnchorPoint: "Anchor-5" 118 496 mark 0
AnchorPoint: "Anchor-1" 118 496 mark 0
LayerCount: 2
Fore
SplineSet
58 614.5 m 128,-1,1
 42 638 42 638 42 665 c 0,2,3
 42 713 42 713 80 743 c 128,-1,4
 118 773 118 773 180 773 c 1,5,-1
 224 735 l 1,6,7
 184 735 184 735 155.5 720.5 c 128,-1,8
 127 706 127 706 127 669 c 0,9,10
 127 649 127 649 142 632 c 128,-1,11
 157 615 157 615 184 606 c 1,12,-1
 108 575 l 1,13,0
 74 591 74 591 58 614.5 c 128,-1,1
EndSplineSet
EndChar
StartChar: uni0326
Encoding: 806 806 369
Width: 0
GlyphClass: 4
Flags: W
AnchorPoint: "Anchor-4" 143 -250 basemark 0
AnchorPoint: "Anchor-4" 143 0 mark 0
AnchorPoint: "Anchor-0" 143 0 mark 0
LayerCount: 2
Fore
SplineSet
110.5 -197.5 m 128,-1,1
 139 -183 139 -183 139 -146 c 0,2,3
 139 -125 139 -125 124.5 -108.5 c 128,-1,4
 110 -92 110 -92 82 -83 c 1,5,-1
 158 -52 l 1,6,7
 192 -68 192 -68 208 -91.5 c 128,-1,8
 224 -115 224 -115 224 -142 c 0,9,10
 224 -190 224 -190 186.5 -220 c 128,-1,11
 149 -250 149 -250 86 -250 c 1,12,-1
 42 -212 l 1,13,0
 82 -212 82 -212 110.5 -197.5 c 128,-1,1
EndSplineSet
EndChar
StartChar: uni0327
Encoding: 807 807 370
Width: 0
GlyphClass: 4
Flags: W
AnchorPoint: "Anchor-4" 137 -183 basemark 0
AnchorPoint: "Anchor-4" 137 0 mark 0
AnchorPoint: "Anchor-0" 137 0 mark 0
LayerCount: 2
Fore
SplineSet
42 -167 m 1,1,-1
 57 -126 l 1,2,3
 85 -140 85 -140 116 -140 c 0,4,5
 140 -140 140 -140 152.5 -131.5 c 128,-1,6
 165 -123 165 -123 165 -109 c 0,7,8
 165 -96 165 -96 155.5 -88.5 c 128,-1,9
 146 -81 146 -81 128 -81 c 0,10,11
 112 -81 112 -81 97 -85 c 0,12,13
 86 -89 86 -89 78 -83 c 128,-1,14
 70 -77 70 -77 70 -68 c 0,15,16
 70 -63 70 -63 73 -58 c 2,17,-1
 125 25 l 1,18,-1
 161 3 l 1,19,-1
 131 -46 l 1,20,21
 153 -42 153 -42 163 -42 c 0,22,23
 195 -42 195 -42 216.5 -59.5 c 128,-1,24
 238 -77 238 -77 238 -105 c 0,25,26
 238 -140 238 -140 208 -162 c 128,-1,27
 178 -184 178 -184 130 -184 c 0,28,0
 86 -184 86 -184 42 -167 c 1,1,-1
EndSplineSet
EndChar
StartChar: uni0328
Encoding: 808 808 371
Width: 0
GlyphClass: 4
Flags: W
AnchorPoint: "Anchor-2" 223 10 mark 0
LayerCount: 2
Fore
SplineSet
70.5 -148 m 128,-1,1
 42 -123 42 -123 42 -89 c 0,2,3
 42 -19 42 -19 138 16 c 1,4,-1
 223 0 l 1,5,6
 133 -27 133 -27 133 -72 c 0,7,8
 133 -90 133 -90 146.5 -99.5 c 128,-1,9
 160 -109 160 -109 181 -109 c 0,10,11
 201 -109 201 -109 223 -100 c 1,12,-1
 223 -162 l 1,13,14
 192 -173 192 -173 154 -173 c 0,15,0
 99 -173 99 -173 70.5 -148 c 128,-1,1
EndSplineSet
Substitution2: "Single Substitution lookup 13 subtable" uni0328.case
Substitution2: "'case' Case-Sensitive Forms in Latin lookup 11 subtable" uni0328.case
AlternateSubs2: "'aalt' Access All Alternates in Latin lookup 0 subtable" uni0328.case
EndChar
StartChar: uni03A9
Encoding: 937 937 226
Width: 664
GlyphClass: 1
Flags: W
LayerCount: 2
Fore
SplineSet
39 94 m 1,0,-1
 185 94 l 1,1,-1
 185 133 l 1,2,3
 119 172 119 172 79 239.5 c 128,-1,4
 39 307 39 307 39 385 c 0,5,6
 39 465 39 465 78.5 533 c 128,-1,7
 118 601 118 601 185 640.5 c 128,-1,8
 252 680 252 680 332 680 c 256,9,10
 412 680 412 680 479 640.5 c 128,-1,11
 546 601 546 601 585.5 533 c 128,-1,12
 625 465 625 465 625 385 c 0,13,14
 625 307 625 307 585 239.5 c 128,-1,15
 545 172 545 172 479 133 c 1,16,-1
 479 94 l 1,17,-1
 625 94 l 1,18,-1
 625 0 l 1,19,-1
 377 0 l 1,20,-1
 377 192 l 1,21,22
 445 207 445 207 489.5 262 c 128,-1,23
 534 317 534 317 534 388 c 0,24,25
 534 443 534 443 506.5 489.5 c 128,-1,26
 479 536 479 536 433 563 c 128,-1,27
 387 590 387 590 332 590 c 256,28,29
 277 590 277 590 231 563 c 128,-1,30
 185 536 185 536 157.5 489.5 c 128,-1,31
 130 443 130 443 130 388 c 0,32,33
 130 317 130 317 174.5 262 c 128,-1,34
 219 207 219 207 287 192 c 1,35,-1
 287 0 l 1,36,-1
 39 0 l 1,37,-1
 39 94 l 1,0,-1
EndSplineSet
EndChar
StartChar: uni03BC
Encoding: 956 956 227
Width: 574
GlyphClass: 1
Flags: W
LayerCount: 2
Fore
SplineSet
65 496 m 1,0,-1
 174 496 l 1,1,-1
 174 206 l 2,2,3
 174 140 174 140 194 109.5 c 128,-1,4
 214 79 214 79 268 79 c 0,5,6
 380 79 380 79 380 226 c 2,7,-1
 380 496 l 1,8,-1
 490 496 l 1,9,-1
 490 150 l 2,10,11
 490 115 490 115 500 104 c 128,-1,12
 510 93 510 93 542 93 c 2,13,-1
 554 93 l 1,14,-1
 554 0 l 1,15,-1
 505 0 l 2,16,17
 449 0 449 0 422 15.5 c 128,-1,18
 395 31 395 31 385 66 c 1,19,20
 360 25 360 25 334 6.5 c 128,-1,21
 308 -12 308 -12 266 -12 c 0,22,23
 213 -12 213 -12 174 32 c 1,24,-1
 174 -162 l 1,25,-1
 65 -162 l 1,26,-1
 65 496 l 1,0,-1
EndSplineSet
EndChar
StartChar: pi
Encoding: 960 960 228
Width: 604
GlyphClass: 1
Flags: W
LayerCount: 2
Fore
SplineSet
103 401 m 1,0,-1
 16 401 l 1,1,-1
 16 496 l 1,2,-1
 569 496 l 1,3,-1
 569 401 l 1,4,-1
 484 401 l 1,5,-1
 484 142 l 2,6,7
 484 107 484 107 493.5 96.5 c 128,-1,8
 503 86 503 86 536 86 c 2,9,-1
 569 86 l 1,10,-1
 569 0 l 1,11,-1
 508 0 l 2,12,13
 457 0 457 0 431 9.5 c 128,-1,14
 405 19 405 19 394 45 c 128,-1,15
 383 71 383 71 383 122 c 2,16,-1
 383 401 l 1,17,-1
 202 401 l 1,18,-1
 202 0 l 1,19,-1
 103 0 l 1,20,-1
 103 401 l 1,0,-1
EndSplineSet
EndChar
StartChar: uni1E9E
Encoding: 7838 7838 82
Width: 668
GlyphClass: 1
Flags: W
LayerCount: 2
Fore
SplineSet
322 21 m 128,-1,1
 276 54 276 54 256 105 c 1,2,-1
 350 139 l 1,3,4
 369 81 369 81 436 81 c 0,5,6
 473 81 473 81 499.5 108.5 c 128,-1,7
 526 136 526 136 526 184 c 0,8,9
 526 233 526 233 499 259.5 c 128,-1,10
 472 286 472 286 432 286 c 0,11,12
 412 286 412 286 389 277 c 1,13,-1
 344 353 l 1,14,-1
 507 573 l 1,15,16
 426 588 426 588 362 588 c 0,17,18
 272 588 272 588 229 550 c 128,-1,19
 186 512 186 512 186 427 c 2,20,-1
 186 0 l 1,21,-1
 68 0 l 1,22,-1
 68 447 l 2,23,24
 68 566 68 566 134.5 623 c 128,-1,25
 201 680 201 680 338 680 c 0,26,27
 462 680 462 680 604 645 c 1,28,-1
 604 553 l 1,29,-1
 463 363 l 1,30,31
 518 362 518 362 558 337 c 128,-1,32
 598 312 598 312 619 271.5 c 128,-1,33
 640 231 640 231 640 181 c 0,34,35
 640 122 640 122 612.5 78.5 c 128,-1,36
 585 35 585 35 540.5 11.5 c 128,-1,37
 496 -12 496 -12 445 -12 c 0,38,0
 368 -12 368 -12 322 21 c 128,-1,1
EndSplineSet
EndChar
StartChar: emdash
Encoding: 8212 8212 275
Width: 828
GlyphClass: 1
Flags: W
LayerCount: 2
Fore
SplineSet
47 297 m 1,0,-1
 781 297 l 1,1,-1
 781 199 l 1,2,-1
 47 199 l 1,3,-1
 47 297 l 1,0,-1
EndSplineSet
EndChar
StartChar: quoteleft
Encoding: 8216 8216 287
Width: 251
GlyphClass: 1
Flags: W
LayerCount: 2
Fore
SplineSet
71.5 410.5 m 128,-1,1
 49 433 49 433 49 465 c 0,2,3
 49 483 49 483 55 496 c 2,4,-1
 122 668 l 1,5,-1
 190 668 l 1,6,-1
 141 540 l 1,7,8
 168 536 168 536 185.5 514.5 c 128,-1,9
 203 493 203 493 203 465 c 0,10,11
 203 434 203 434 180.5 411 c 128,-1,12
 158 388 158 388 126 388 c 256,13,0
 94 388 94 388 71.5 410.5 c 128,-1,1
EndSplineSet
EndChar
StartChar: quoteright
Encoding: 8217 8217 288
Width: 251
GlyphClass: 1
Flags: W
LayerCount: 2
Fore
SplineSet
66.5 553.5 m 128,-1,1
 49 575 49 575 49 603 c 0,2,3
 49 635 49 635 71.5 657.5 c 128,-1,4
 94 680 94 680 125 680 c 0,5,6
 157 680 157 680 180 657.5 c 128,-1,7
 203 635 203 635 203 603 c 0,8,9
 203 590 203 590 197 572 c 2,10,-1
 129 400 l 1,11,-1
 61 400 l 1,12,-1
 110 527 l 1,13,0
 84 532 84 532 66.5 553.5 c 128,-1,1
EndSplineSet
EndChar
StartChar: quotesinglbase
Encoding: 8218 8218 283
Width: 251
GlyphClass: 1
Flags: W
LayerCount: 2
Fore
SplineSet
66.5 16 m 128,-1,1
 49 37 49 37 49 65 c 0,2,3
 49 97 49 97 71 119.5 c 128,-1,4
 93 142 93 142 125 142 c 256,5,6
 157 142 157 142 180 119.5 c 128,-1,7
 203 97 203 97 203 65 c 0,8,9
 203 54 203 54 197 34 c 2,10,-1
 129 -138 l 1,11,-1
 61 -138 l 1,12,-1
 110 -10 l 1,13,0
 84 -5 84 -5 66.5 16 c 128,-1,1
EndSplineSet
EndChar
StartChar: quotedblleft
Encoding: 8220 8220 285
Width: 436
GlyphClass: 1
Flags: W
LayerCount: 2
Fore
SplineSet
256 410.5 m 128,-1,1
 233 433 233 433 233 465 c 0,2,3
 233 478 233 478 239 496 c 2,4,-1
 307 668 l 1,5,-1
 375 668 l 1,6,-1
 326 540 l 1,7,8
 352 535 352 535 370 514 c 128,-1,9
 388 493 388 493 388 465 c 0,10,11
 388 434 388 434 365.5 411 c 128,-1,12
 343 388 343 388 311 388 c 256,13,0
 279 388 279 388 256 410.5 c 128,-1,1
71.5 410.5 m 128,-1,15
 49 433 49 433 49 465 c 0,16,17
 49 483 49 483 55 496 c 2,18,-1
 122 668 l 1,19,-1
 190 668 l 1,20,-1
 141 540 l 1,21,22
 168 536 168 536 185.5 514.5 c 128,-1,23
 203 493 203 493 203 465 c 0,24,25
 203 434 203 434 180.5 411 c 128,-1,26
 158 388 158 388 126 388 c 256,27,14
 94 388 94 388 71.5 410.5 c 128,-1,15
EndSplineSet
EndChar
StartChar: quotedblright
Encoding: 8221 8221 286
Width: 436
GlyphClass: 1
Flags: W
LayerCount: 2
Fore
SplineSet
251 553.5 m 128,-1,1
 233 575 233 575 233 603 c 0,2,3
 233 635 233 635 256 657.5 c 128,-1,4
 279 680 279 680 310 680 c 0,5,6
 342 680 342 680 365 657.5 c 128,-1,7
 388 635 388 635 388 603 c 0,8,9
 388 590 388 590 382 572 c 2,10,-1
 314 400 l 1,11,-1
 246 400 l 1,12,-1
 295 527 l 1,13,0
 269 532 269 532 251 553.5 c 128,-1,1
66.5 553.5 m 128,-1,15
 49 575 49 575 49 603 c 0,16,17
 49 635 49 635 71.5 657.5 c 128,-1,18
 94 680 94 680 125 680 c 0,19,20
 157 680 157 680 180 657.5 c 128,-1,21
 203 635 203 635 203 603 c 0,22,23
 203 590 203 590 197 572 c 2,24,-1
 129 400 l 1,25,-1
 61 400 l 1,26,-1
 110 527 l 1,27,14
 84 532 84 532 66.5 553.5 c 128,-1,15
EndSplineSet
EndChar
StartChar: quotedblbase
Encoding: 8222 8222 284
Width: 436
GlyphClass: 1
Flags: W
LayerCount: 2
Fore
SplineSet
250.5 16.5 m 128,-1,1
 233 38 233 38 233 65 c 0,2,3
 233 97 233 97 255.5 119.5 c 128,-1,4
 278 142 278 142 310 142 c 256,5,6
 342 142 342 142 365 119.5 c 128,-1,7
 388 97 388 97 388 65 c 0,8,9
 388 54 388 54 382 34 c 2,10,-1
 314 -138 l 1,11,-1
 246 -138 l 1,12,-1
 295 -10 l 1,13,0
 268 -5 268 -5 250.5 16.5 c 128,-1,1
66.5 16 m 128,-1,15
 49 37 49 37 49 65 c 0,16,17
 49 97 49 97 71 119.5 c 128,-1,18
 93 142 93 142 125 142 c 256,19,20
 157 142 157 142 180 119.5 c 128,-1,21
 203 97 203 97 203 65 c 0,22,23
 203 54 203 54 197 34 c 2,24,-1
 129 -138 l 1,25,-1
 61 -138 l 1,26,-1
 110 -10 l 1,27,14
 84 -5 84 -5 66.5 16 c 128,-1,15
EndSplineSet
EndChar
StartChar: dagger
Encoding: 8224 8224 307
Width: 560
GlyphClass: 1
Flags: W
LayerCount: 2
Fore
SplineSet
228 403 m 1,0,-1
 40 403 l 1,1,-1
 40 496 l 1,2,-1
 228 496 l 1,3,-1
 228 668 l 1,4,-1
 332 668 l 1,5,-1
 332 496 l 1,6,-1
 520 496 l 1,7,-1
 520 403 l 1,8,-1
 332 403 l 1,9,-1
 332 0 l 1,10,-1
 228 0 l 1,11,-1
 228 403 l 1,0,-1
EndSplineSet
EndChar
StartChar: daggerdbl
Encoding: 8225 8225 309
Width: 561
GlyphClass: 1
Flags: W
LayerCount: 2
Fore
SplineSet
228 172 m 1,0,-1
 40 172 l 1,1,-1
 40 265 l 1,2,-1
 228 265 l 1,3,-1
 228 403 l 1,4,-1
 40 403 l 1,5,-1
 40 496 l 1,6,-1
 228 496 l 1,7,-1
 228 668 l 1,8,-1
 333 668 l 1,9,-1
 333 496 l 1,10,-1
 521 496 l 1,11,-1
 521 403 l 1,12,-1
 333 403 l 1,13,-1
 333 265 l 1,14,-1
 521 265 l 1,15,-1
 521 172 l 1,16,-1
 333 172 l 1,17,-1
 333 0 l 1,18,-1
 228 0 l 1,19,-1
 228 172 l 1,0,-1
EndSplineSet
EndChar
StartChar: perthousand
Encoding: 8240 8240 342
Width: 1359
GlyphClass: 1
Flags: W
LayerCount: 2
Fore
SplineSet
652 668 m 1,0,-1
 755 668 l 1,1,-1
 287 0 l 1,2,-1
 185 0 l 1,3,-1
 652 668 l 1,0,-1
127 329.5 m 128,-1,5
 84 355 84 355 58.5 398 c 128,-1,6
 33 441 33 441 33 492 c 256,7,8
 33 543 33 543 58.5 586 c 128,-1,9
 84 629 84 629 127 654.5 c 128,-1,10
 170 680 170 680 221 680 c 256,11,12
 272 680 272 680 315 655 c 128,-1,13
 358 630 358 630 383 586.5 c 128,-1,14
 408 543 408 543 408 492 c 256,15,16
 408 441 408 441 383 397.5 c 128,-1,17
 358 354 358 354 315 329 c 128,-1,18
 272 304 272 304 221 304 c 256,19,4
 170 304 170 304 127 329.5 c 128,-1,5
289 423.5 m 128,-1,21
 317 452 317 452 317 492 c 256,22,23
 317 532 317 532 289 560.5 c 128,-1,24
 261 589 261 589 221 589 c 256,25,26
 181 589 181 589 152.5 561 c 128,-1,27
 124 533 124 533 124 492 c 0,28,29
 124 452 124 452 152.5 423.5 c 128,-1,30
 181 395 181 395 221 395 c 256,31,20
 261 395 261 395 289 423.5 c 128,-1,21
627 13 m 128,-1,33
 584 38 584 38 559 81.5 c 128,-1,34
 534 125 534 125 534 176 c 256,35,36
 534 227 534 227 559 270.5 c 128,-1,37
 584 314 584 314 627 339 c 128,-1,38
 670 364 670 364 721 364 c 256,39,40
 772 364 772 364 815 338.5 c 128,-1,41
 858 313 858 313 883.5 270 c 128,-1,42
 909 227 909 227 909 176 c 256,43,44
 909 125 909 125 883.5 82 c 128,-1,45
 858 39 858 39 815 13.5 c 128,-1,46
 772 -12 772 -12 721 -12 c 256,47,32
 670 -12 670 -12 627 13 c 128,-1,33
790 107.5 m 128,-1,49
 818 136 818 136 818 176 c 0,50,51
 818 217 818 217 790 245 c 128,-1,52
 762 273 762 273 721 273 c 0,53,54
 681 273 681 273 653 244.5 c 128,-1,55
 625 216 625 216 625 176 c 256,56,57
 625 136 625 136 653 107.5 c 128,-1,58
 681 79 681 79 721 79 c 0,59,48
 762 79 762 79 790 107.5 c 128,-1,49
1044 13 m 128,-1,61
 1001 38 1001 38 976 81.5 c 128,-1,62
 951 125 951 125 951 176 c 256,63,64
 951 227 951 227 976 270.5 c 128,-1,65
 1001 314 1001 314 1044 339 c 128,-1,66
 1087 364 1087 364 1138 364 c 256,67,68
 1189 364 1189 364 1232 338.5 c 128,-1,69
 1275 313 1275 313 1300.5 270 c 128,-1,70
 1326 227 1326 227 1326 176 c 256,71,72
 1326 125 1326 125 1300.5 82 c 128,-1,73
 1275 39 1275 39 1232 13.5 c 128,-1,74
 1189 -12 1189 -12 1138 -12 c 256,75,60
 1087 -12 1087 -12 1044 13 c 128,-1,61
1207 107.5 m 128,-1,77
 1235 136 1235 136 1235 176 c 0,78,79
 1235 217 1235 217 1207 245 c 128,-1,80
 1179 273 1179 273 1138 273 c 0,81,82
 1098 273 1098 273 1069.5 244.5 c 128,-1,83
 1041 216 1041 216 1041 176 c 256,84,85
 1041 136 1041 136 1069.5 107.5 c 128,-1,86
 1098 79 1098 79 1138 79 c 0,87,76
 1179 79 1179 79 1207 107.5 c 128,-1,77
EndSplineSet
EndChar
StartChar: fraction
Encoding: 8260 8260 249
Width: 600
GlyphClass: 1
Flags: W
LayerCount: 2
Fore
SplineSet
483 668 m 1,0,-1
 585 668 l 1,1,-1
 118 0 l 1,2,-1
 15 0 l 1,3,-1
 483 668 l 1,0,-1
EndSplineSet
EndChar
StartChar: Euro
Encoding: 8364 8364 314
Width: 670
GlyphClass: 1
Flags: W
LayerCount: 2
Fore
SplineSet
200 55.5 m 128,-1,1
 129 123 129 123 107 237 c 1,2,-1
 12 237 l 1,3,-1
 44 296 l 1,4,-1
 100 296 l 1,5,6
 98 328 98 328 98 344 c 0,7,8
 98 363 98 363 99 373 c 1,9,-1
 11 373 l 1,10,-1
 44 433 l 1,11,-1
 108 433 l 1,12,13
 131 550 131 550 208.5 615 c 128,-1,14
 286 680 286 680 392 680 c 0,15,16
 473 680 473 680 536 639.5 c 128,-1,17
 599 599 599 599 632 527 c 1,18,-1
 535 492 l 1,19,20
 514 535 514 535 476 558.5 c 128,-1,21
 438 582 438 582 387 582 c 0,22,23
 325 582 325 582 282 542 c 128,-1,24
 239 502 239 502 222 433 c 1,25,-1
 446 433 l 1,26,-1
 414 373 l 1,27,-1
 212 373 l 1,28,29
 211 360 211 360 211 335 c 0,30,31
 211 309 211 309 212 296 c 1,32,-1
 372 296 l 1,33,-1
 339 237 l 1,34,-1
 222 237 l 1,35,36
 239 167 239 167 282.5 126.5 c 128,-1,37
 326 86 326 86 391 86 c 0,38,39
 441 86 441 86 479.5 109 c 128,-1,40
 518 132 518 132 539 175 c 1,41,-1
 635 140 l 1,42,43
 601 67 601 67 535.5 27.5 c 128,-1,44
 470 -12 470 -12 386 -12 c 0,45,0
 271 -12 271 -12 200 55.5 c 128,-1,1
EndSplineSet
EndChar
StartChar: uni20B9
Encoding: 8377 8377 315
Width: 586
GlyphClass: 1
Flags: W
LayerCount: 2
Fore
SplineSet
76 290 m 1,0,-1
 76 347 l 1,1,-1
 183 347 l 2,2,3
 244 347 244 347 279.5 367 c 128,-1,4
 315 387 315 387 323 431 c 1,5,-1
 76 431 l 1,6,-1
 76 490 l 1,7,-1
 323 490 l 1,8,9
 305 575 305 575 183 575 c 2,10,-1
 76 575 l 1,11,-1
 76 668 l 1,12,-1
 532 668 l 1,13,-1
 532 608 l 1,14,-1
 374 608 l 1,15,16
 430 566 430 566 440 490 c 1,17,-1
 532 490 l 1,18,-1
 532 431 l 1,19,-1
 440 431 l 1,20,21
 431 358 431 358 381.5 315.5 c 128,-1,22
 332 273 332 273 249 261 c 1,23,-1
 512 0 l 1,24,-1
 366 0 l 1,25,-1
 76 290 l 1,0,-1
EndSplineSet
EndChar
StartChar: uni2113
Encoding: 8467 8467 308
Width: 470
GlyphClass: 1
Flags: W
LayerCount: 2
Fore
SplineSet
153.5 28 m 128,-1,1
 114 68 114 68 114 155 c 2,2,-1
 114 176 l 1,3,-1
 49 128 l 1,4,-1
 49 224 l 1,5,-1
 114 273 l 1,6,-1
 114 486 l 2,7,8
 114 680 114 680 276 680 c 0,9,10
 344 680 344 680 382 641 c 128,-1,11
 420 602 420 602 420 536 c 0,12,13
 420 456 420 456 372.5 393 c 128,-1,14
 325 330 325 330 224 256 c 1,15,-1
 224 166 l 2,16,17
 224 118 224 118 240.5 98.5 c 128,-1,18
 257 79 257 79 289 79 c 0,19,20
 331 79 331 79 374 115 c 1,21,-1
 419 46 l 1,22,23
 392 21 392 21 353.5 4.5 c 128,-1,24
 315 -12 315 -12 270 -12 c 0,25,0
 193 -12 193 -12 153.5 28 c 128,-1,1
297.5 434.5 m 128,-1,27
 322 479 322 479 322 530 c 0,28,29
 322 563 322 563 309.5 579.5 c 128,-1,30
 297 596 297 596 274 596 c 0,31,32
 247 596 247 596 235.5 577 c 128,-1,33
 224 558 224 558 224 512 c 2,34,-1
 224 355 l 1,35,26
 273 390 273 390 297.5 434.5 c 128,-1,27
EndSplineSet
EndChar
StartChar: trademark
Encoding: 8482 8482 303
Width: 906
GlyphClass: 1
Flags: W
LayerCount: 2
Fore
SplineSet
405 668 m 1,0,-1
 537 668 l 1,1,-1
 620 405 l 1,2,-1
 703 668 l 1,3,-1
 836 668 l 1,4,-1
 836 303 l 1,5,-1
 754 303 l 1,6,-1
 754 576 l 1,7,-1
 661 303 l 1,8,-1
 580 303 l 1,9,-1
 487 576 l 1,10,-1
 487 303 l 1,11,-1
 405 303 l 1,12,-1
 405 668 l 1,0,-1
158 596 m 1,13,-1
 39 596 l 1,14,-1
 39 668 l 1,15,-1
 359 668 l 1,16,-1
 359 596 l 1,17,-1
 240 596 l 1,18,-1
 240 303 l 1,19,-1
 158 303 l 1,20,-1
 158 596 l 1,13,-1
EndSplineSet
EndChar
StartChar: estimated
Encoding: 8494 8494 310
Width: 615
GlyphClass: 1
Flags: W
LayerCount: 2
Fore
SplineSet
181.5 20.5 m 128,-1,1
 122 53 122 53 85.5 113.5 c 128,-1,2
 49 174 49 174 49 253 c 0,3,4
 49 317 49 317 82.5 375.5 c 128,-1,5
 116 434 116 434 175.5 470 c 128,-1,6
 235 506 235 506 308 506 c 0,7,8
 378 506 378 506 437 471.5 c 128,-1,9
 496 437 496 437 531.5 377.5 c 128,-1,10
 567 318 567 318 567 248 c 1,11,-1
 166 248 l 1,12,-1
 166 88 l 1,13,14
 226 34 226 34 308 34 c 0,15,16
 355 34 355 34 397.5 54 c 128,-1,17
 440 74 440 74 469 109 c 1,18,-1
 516 93 l 1,19,20
 480 45 480 45 425 16.5 c 128,-1,21
 370 -12 370 -12 308 -12 c 0,22,0
 241 -12 241 -12 181.5 20.5 c 128,-1,1
449 293 m 1,23,-1
 449 406 l 1,24,25
 421 432 421 432 384.5 446 c 128,-1,26
 348 460 348 460 308 460 c 0,27,28
 226 460 226 460 166 406 c 1,29,-1
 166 293 l 1,30,-1
 449 293 l 1,23,-1
EndSplineSet
EndChar
StartChar: partialdiff
Encoding: 8706 8706 340
Width: 589
GlyphClass: 1
Flags: W
LayerCount: 2
Fore
SplineSet
172 15 m 128,-1,1
 117 42 117 42 83.5 97 c 128,-1,2
 50 152 50 152 50 231 c 0,3,4
 50 306 50 306 81.5 361 c 128,-1,5
 113 416 113 416 165.5 444.5 c 128,-1,6
 218 473 218 473 279 473 c 0,7,8
 329 473 329 473 368 454 c 128,-1,9
 407 435 407 435 430 399 c 1,10,11
 415 499 415 499 344.5 542 c 128,-1,12
 274 585 274 585 170 585 c 0,13,14
 147 585 147 585 136 584 c 1,15,-1
 136 680 l 1,16,17
 341 680 341 680 440.5 588 c 128,-1,18
 540 496 540 496 540 291 c 0,19,20
 540 140 540 140 472 64 c 128,-1,21
 404 -12 404 -12 291 -12 c 0,22,0
 227 -12 227 -12 172 15 c 128,-1,1
359 96 m 128,-1,24
 389 114 389 114 407 148 c 128,-1,25
 425 182 425 182 425 230 c 0,26,27
 425 301 425 301 386.5 341.5 c 128,-1,28
 348 382 348 382 294 382 c 0,29,30
 259 382 259 382 229 364.5 c 128,-1,31
 199 347 199 347 180.5 312.5 c 128,-1,32
 162 278 162 278 162 230 c 256,33,34
 162 182 162 182 180.5 148 c 128,-1,35
 199 114 199 114 229 96 c 128,-1,36
 259 78 259 78 294 78 c 256,37,23
 329 78 329 78 359 96 c 128,-1,24
EndSplineSet
EndChar
StartChar: product
Encoding: 8719 8719 337
Width: 596
GlyphClass: 1
Flags: W
LayerCount: 2
Fore
SplineSet
49 668 m 1,0,-1
 547 668 l 1,1,-1
 547 -162 l 1,2,-1
 448 -162 l 1,3,-1
 448 574 l 1,4,-1
 147 574 l 1,5,-1
 147 -162 l 1,6,-1
 49 -162 l 1,7,-1
 49 668 l 1,0,-1
EndSplineSet
EndChar
StartChar: summation
Encoding: 8721 8721 338
Width: 598
GlyphClass: 1
Flags: W
LayerCount: 2
Fore
SplineSet
49 -63 m 1,0,-1
 291 254 l 1,1,-1
 49 569 l 1,2,-1
 49 668 l 1,3,-1
 550 668 l 1,4,-1
 550 569 l 1,5,-1
 175 569 l 1,6,-1
 418 254 l 1,7,-1
 175 -63 l 1,8,-1
 550 -63 l 1,9,-1
 550 -162 l 1,10,-1
 49 -162 l 1,11,-1
 49 -63 l 1,0,-1
EndSplineSet
EndChar
StartChar: radical
Encoding: 8730 8730 339
Width: 630
GlyphClass: 1
Flags: W
LayerCount: 2
Fore
SplineSet
168 126 m 1,0,-1
 49 126 l 1,1,-1
 49 225 l 1,2,-1
 237 225 l 1,3,-1
 332 -13 l 1,4,-1
 472 668 l 1,5,-1
 581 668 l 1,6,-1
 405 -162 l 1,7,-1
 284 -162 l 1,8,-1
 168 126 l 1,0,-1
EndSplineSet
EndChar
StartChar: infinity
Encoding: 8734 8734 335
Width: 765
GlyphClass: 1
Flags: W
LayerCount: 2
Fore
SplineSet
95.5 144.5 m 128,-1,1
 49 188 49 188 49 256 c 256,2,3
 49 324 49 324 95.5 367.5 c 128,-1,4
 142 411 142 411 213 411 c 0,5,6
 264 411 264 411 304 387.5 c 128,-1,7
 344 364 344 364 383 322 c 1,8,9
 421 364 421 364 461 387.5 c 128,-1,10
 501 411 501 411 552 411 c 0,11,12
 623 411 623 411 669.5 367.5 c 128,-1,13
 716 324 716 324 716 256 c 256,14,15
 716 188 716 188 669.5 144.5 c 128,-1,16
 623 101 623 101 552 101 c 0,17,18
 501 101 501 101 461 124.5 c 128,-1,19
 421 148 421 148 383 190 c 1,20,21
 344 148 344 148 304 124.5 c 128,-1,22
 264 101 264 101 213 101 c 0,23,0
 142 101 142 101 95.5 144.5 c 128,-1,1
273 205 m 128,-1,25
 298 221 298 221 328 256 c 1,26,27
 299 291 299 291 273.5 307 c 128,-1,28
 248 323 248 323 219 323 c 0,29,30
 186 323 186 323 165.5 304 c 128,-1,31
 145 285 145 285 145 256 c 0,32,33
 145 228 145 228 166 208.5 c 128,-1,34
 187 189 187 189 219 189 c 0,35,24
 248 189 248 189 273 205 c 128,-1,25
600 208.5 m 128,-1,37
 621 228 621 228 621 256 c 0,38,39
 621 285 621 285 600 304 c 128,-1,40
 579 323 579 323 547 323 c 0,41,42
 517 323 517 323 491.5 307 c 128,-1,43
 466 291 466 291 437 256 c 1,44,45
 467 221 467 221 492 205 c 128,-1,46
 517 189 517 189 547 189 c 0,47,36
 579 189 579 189 600 208.5 c 128,-1,37
EndSplineSet
EndChar
StartChar: integral
Encoding: 8747 8747 336
Width: 469
GlyphClass: 1
Flags: W
LayerCount: 2
Fore
SplineSet
71 -152 m 128,-1,1
 45 -131 45 -131 45 -102 c 0,2,3
 45 -78 45 -78 60 -63 c 128,-1,4
 75 -48 75 -48 99 -48 c 0,5,6
 124 -48 124 -48 138.5 -63 c 128,-1,7
 153 -78 153 -78 153 -103 c 0,8,9
 153 -112 153 -112 150 -121 c 1,10,11
 164 -114 164 -114 172 -93.5 c 128,-1,12
 180 -73 180 -73 181 -28 c 2,13,-1
 185 458 l 2,14,15
 189 681 189 681 327 681 c 0,16,17
 371 681 371 681 397 660 c 128,-1,18
 423 639 423 639 423 610 c 0,19,20
 423 586 423 586 408 571 c 128,-1,21
 393 556 393 556 369 556 c 0,22,23
 344 556 344 556 330 571 c 128,-1,24
 316 586 316 586 316 611 c 0,25,26
 316 620 316 620 319 630 c 1,27,28
 305 623 305 623 297 602 c 128,-1,29
 289 581 289 581 288 536 c 2,30,-1
 283 50 l 2,31,32
 282 -73 282 -73 243 -123 c 128,-1,33
 204 -173 204 -173 141 -173 c 0,34,0
 97 -173 97 -173 71 -152 c 128,-1,1
EndSplineSet
EndChar
StartChar: approxequal
Encoding: 8776 8776 331
Width: 545
GlyphClass: 1
Flags: W
LayerCount: 2
Fore
SplineSet
77 198 m 128,-1,1
 107 233 107 233 166 233 c 0,2,3
 192 233 192 233 216.5 224.5 c 128,-1,4
 241 216 241 216 280 199 c 0,5,6
 310 185 310 185 330 177.5 c 128,-1,7
 350 170 350 170 369 170 c 0,8,9
 421 170 421 170 424 237 c 1,10,-1
 505 211 l 1,11,12
 498 147 498 147 468 112 c 128,-1,13
 438 77 438 77 379 77 c 0,14,15
 352 77 352 77 326 86 c 128,-1,16
 300 95 300 95 265 111 c 0,17,18
 231 126 231 126 212.5 132.5 c 128,-1,19
 194 139 194 139 175 139 c 0,20,21
 124 139 124 139 121 72 c 1,22,-1
 40 98 l 1,23,0
 47 163 47 163 77 198 c 128,-1,1
77 396 m 128,-1,25
 107 431 107 431 166 431 c 0,26,27
 192 431 192 431 216.5 422.5 c 128,-1,28
 241 414 241 414 280 397 c 0,29,30
 310 383 310 383 330 375.5 c 128,-1,31
 350 368 350 368 369 368 c 0,32,33
 421 368 421 368 424 435 c 1,34,-1
 505 409 l 1,35,36
 498 344 498 344 468 309 c 128,-1,37
 438 274 438 274 379 274 c 0,38,39
 353 274 353 274 328.5 282.5 c 128,-1,40
 304 291 304 291 265 308 c 0,41,42
 234 323 234 323 214 330 c 128,-1,43
 194 337 194 337 175 337 c 0,44,45
 124 337 124 337 121 270 c 1,46,-1
 40 296 l 1,47,24
 47 361 47 361 77 396 c 128,-1,25
EndSplineSet
EndChar
StartChar: lessequal
Encoding: 8804 8804 329
Width: 585
GlyphClass: 1
Flags: W
LayerCount: 2
Fore
SplineSet
49 264 m 1,0,-1
 49 355 l 1,1,-1
 536 507 l 1,2,-1
 536 402 l 1,3,-1
 180 310 l 1,4,-1
 536 218 l 1,5,-1
 536 114 l 1,6,-1
 49 264 l 1,0,-1
49 98 m 1,7,-1
 536 98 l 1,8,-1
 536 0 l 1,9,-1
 49 0 l 1,10,-1
 49 98 l 1,7,-1
EndSplineSet
EndChar
StartChar: greaterequal
Encoding: 8805 8805 328
Width: 585
GlyphClass: 1
Flags: W
LayerCount: 2
Fore
SplineSet
49 218 m 1,0,-1
 405 310 l 1,1,-1
 49 402 l 1,2,-1
 49 507 l 1,3,-1
 536 355 l 1,4,-1
 536 264 l 1,5,-1
 49 114 l 1,6,-1
 49 218 l 1,0,-1
49 98 m 1,7,-1
 536 98 l 1,8,-1
 536 0 l 1,9,-1
 49 0 l 1,10,-1
 49 98 l 1,7,-1
EndSplineSet
EndChar
StartChar: lozenge
Encoding: 9674 9674 343
Width: 578
GlyphClass: 1
Flags: W
LayerCount: 2
Fore
SplineSet
49 314 m 1,0,-1
 290 708 l 1,1,-1
 530 314 l 1,2,-1
 290 -80 l 1,3,-1
 49 314 l 1,0,-1
424 314 m 1,4,-1
 290 535 l 1,5,-1
 155 314 l 1,6,-1
 290 94 l 1,7,-1
 424 314 l 1,4,-1
EndSplineSet
EndChar
StartChar: acutecomb.case
Encoding: 65553 -1 352
Width: 0
GlyphClass: 4
Flags: W
AnchorPoint: "Anchor-5" 87 872 basemark 0
AnchorPoint: "Anchor-5" 87 668 mark 0
AnchorPoint: "Anchor-1" 87 668 mark 0
LayerCount: 2
Fore
SplineSet
189 871 m 0,1,2
 208 871 208 871 220.5 859 c 128,-1,3
 233 847 233 847 233 829 c 0,4,5
 233 816 233 816 224.5 804 c 128,-1,6
 216 792 216 792 194 777 c 2,7,-1
 135 739 l 1,8,-1
 42 739 l 1,9,-1
 139 843 l 2,10,0
 164 871 164 871 189 871 c 0,1,2
EndSplineSet
EndChar
StartChar: gravecomb.case
Encoding: 65552 -1 350
Width: 0
GlyphClass: 4
Flags: W
AnchorPoint: "Anchor-5" 188 872 basemark 0
AnchorPoint: "Anchor-5" 188 668 mark 0
AnchorPoint: "Anchor-1" 188 668 mark 0
LayerCount: 2
Fore
SplineSet
50 803.5 m 128,-1,1
 42 815 42 815 42 829 c 0,2,3
 42 847 42 847 54 859 c 128,-1,4
 66 871 66 871 85 871 c 0,5,6
 109 871 109 871 136 843 c 2,7,-1
 233 739 l 1,8,-1
 139 739 l 1,9,-1
 81 777 l 2,10,0
 58 792 58 792 50 803.5 c 128,-1,1
EndSplineSet
EndChar
StartChar: one.tf
Encoding: 65540 -1 240
Width: 632
GlyphClass: 1
Flags: W
LayerCount: 2
Fore
SplineSet
106 95 m 1,0,-1
 274 95 l 1,1,-1
 274 483 l 1,2,-1
 106 483 l 1,3,-1
 106 571 l 1,4,5
 190 571 190 571 236.5 590 c 128,-1,6
 283 609 283 609 305 668 c 1,7,-1
 383 668 l 1,8,-1
 383 95 l 1,9,-1
 531 95 l 1,10,-1
 531 0 l 1,11,-1
 106 0 l 1,12,-1
 106 95 l 1,0,-1
EndSplineSet
Substitution2: "'pnum' Proportional Numbers in Latin lookup 9 subtable" one
AlternateSubs2: "'aalt' Access All Alternates in Latin lookup 0 subtable" one
EndChar
StartChar: uni0307.case
Encoding: 65550 -1 347
Width: 0
GlyphClass: 4
Flags: W
AnchorPoint: "Anchor-5" 104 856 basemark 0
AnchorPoint: "Anchor-5" 104 668 mark 0
AnchorPoint: "Anchor-1" 104 668 mark 0
LayerCount: 2
Fore
SplineSet
60 751 m 128,-1,1
 42 769 42 769 42 794 c 0,2,3
 42 820 42 820 60 838 c 128,-1,4
 78 856 78 856 104 856 c 256,5,6
 130 856 130 856 148 838 c 128,-1,7
 166 820 166 820 166 794 c 0,8,9
 166 769 166 769 148 751 c 128,-1,10
 130 733 130 733 104 733 c 256,11,0
 78 733 78 733 60 751 c 128,-1,1
EndSplineSet
EndChar
StartChar: uni0307.large
Encoding: 65551 -1 348
Width: 0
GlyphClass: 4
Flags: W
AnchorPoint: "Anchor-5" 114 731 basemark 0
AnchorPoint: "Anchor-5" 114 496 mark 0
AnchorPoint: "Anchor-1" 114 496 mark 0
LayerCount: 2
Fore
SplineSet
63 607 m 128,-1,1
 42 628 42 628 42 658 c 256,2,3
 42 688 42 688 63 709.5 c 128,-1,4
 84 731 84 731 114 731 c 256,5,6
 144 731 144 731 165.5 709.5 c 128,-1,7
 187 688 187 688 187 658 c 256,8,9
 187 628 187 628 165.5 607 c 128,-1,10
 144 586 144 586 114 586 c 256,11,0
 84 586 84 586 63 607 c 128,-1,1
EndSplineSet
EndChar
StartChar: uni030A.case
Encoding: 65559 -1 363
Width: 0
GlyphClass: 4
Flags: W
AnchorPoint: "Anchor-5" 160 847 basemark 0
AnchorPoint: "Anchor-5" 160 668 mark 0
AnchorPoint: "Anchor-1" 160 668 mark 0
LayerCount: 2
Fore
SplineSet
76 645.5 m 128,-1,1
 42 680 42 680 42 729 c 256,2,3
 42 778 42 778 76 812.5 c 128,-1,4
 110 847 110 847 160 847 c 0,5,6
 209 847 209 847 243 812 c 128,-1,7
 277 777 277 777 277 729 c 256,8,9
 277 681 277 681 243 646 c 128,-1,10
 209 611 209 611 160 611 c 0,11,0
 110 611 110 611 76 645.5 c 128,-1,1
195.5 694 m 128,-1,13
 210 708 210 708 210 729 c 256,14,15
 210 750 210 750 195.5 764.5 c 128,-1,16
 181 779 181 779 160 779 c 0,17,18
 138 779 138 779 123.5 764.5 c 128,-1,19
 109 750 109 750 109 729 c 256,20,21
 109 708 109 708 123.5 694 c 128,-1,22
 138 680 138 680 160 680 c 0,23,12
 181 680 181 680 195.5 694 c 128,-1,13
EndSplineSet
EndChar
StartChar: uni030C.alt
Encoding: 65555 -1 355
Width: 0
GlyphClass: 4
Flags: W
AnchorPoint: "Anchor-3" 22 496 mark 0
LayerCount: 2
Fore
SplineSet
81.5 707.5 m 128,-1,1
 94 718 94 718 111 718 c 0,2,3
 131 718 131 718 143 706 c 128,-1,4
 155 694 155 694 155 676 c 0,5,6
 155 662 155 662 144 637 c 2,7,-1
 103 532 l 1,8,-1
 42 532 l 1,9,-1
 67 682 l 2,10,0
 69 697 69 697 81.5 707.5 c 128,-1,1
EndSplineSet
EndChar
StartChar: uni0328.alt
Encoding: 65562 -1 372
Width: 0
GlyphClass: 4
Flags: W
AnchorPoint: "Anchor-2" 223 10 mark 0
LayerCount: 2
Fore
SplineSet
70.5 -147.5 m 128,-1,1
 42 -122 42 -122 42 -85 c 0,2,3
 42 -43 42 -43 66.5 -12.5 c 128,-1,4
 91 18 91 18 124 33 c 1,5,-1
 208 33 l 1,6,7
 133 -14 133 -14 133 -66 c 0,8,9
 133 -88 133 -88 146.5 -98.5 c 128,-1,10
 160 -109 160 -109 181 -109 c 0,11,12
 203 -109 203 -109 223 -100 c 1,13,-1
 223 -162 l 1,14,15
 192 -173 192 -173 154 -173 c 0,16,0
 99 -173 99 -173 70.5 -147.5 c 128,-1,1
EndSplineSet
EndChar
StartChar: uni0328.case
Encoding: 65563 -1 373
Width: 0
GlyphClass: 4
Flags: W
AnchorPoint: "Anchor-2" 223 10 mark 0
LayerCount: 2
Fore
SplineSet
72.5 -149 m 128,-1,1
 42 -125 42 -125 42 -89 c 0,2,3
 42 -21 42 -21 124 11 c 1,4,-1
 223 0 l 1,5,6
 182 -11 182 -11 157.5 -29.5 c 128,-1,7
 133 -48 133 -48 133 -72 c 0,8,9
 133 -90 133 -90 146.5 -99.5 c 128,-1,10
 160 -109 160 -109 181 -109 c 0,11,12
 203 -109 203 -109 223 -100 c 1,13,-1
 223 -162 l 1,14,15
 195 -173 195 -173 156 -173 c 0,16,0
 103 -173 103 -173 72.5 -149 c 128,-1,1
EndSplineSet
EndChar
